<svg class="main-svg" xmlns="http://www.w3.org/2000/svg" xmlns:xlink="http://www.w3.org/1999/xlink" width="800" height="800" style="" viewBox="0 0 800 800"><rect x="0" y="0" width="800" height="800" style="fill: rgb(255, 255, 255); fill-opacity: 1;"/><defs id="defs-6d735e"><g class="clips"><clipPath id="clip6d735exyplot" class="plotclip"><rect width="640" height="616"/></clipPath><clipPath class="axesclip" id="clip6d735ex"><rect x="80" y="0" width="640" height="800"/></clipPath><clipPath class="axesclip" id="clip6d735ey"><rect x="0" y="60" width="800" height="616"/></clipPath><clipPath class="axesclip" id="clip6d735exy"><rect x="80" y="60" width="640" height="616"/></clipPath></g><g class="gradients"/><g class="patterns"/></defs><g class="bglayer"><rect class="bg" x="80" y="60" width="640" height="616" style="fill: rgb(229, 236, 246); fill-opacity: 1; stroke-width: 0;"/></g><g class="layer-below"><g class="imagelayer"/><g class="shapelayer"/></g><g class="cartesianlayer"><g class="subplot xy"><g class="layer-subplot"><g class="shapelayer"/><g class="imagelayer"/></g><g class="gridlayer"><g class="x"/><g class="y"><path class="ygrid crisp" transform="translate(0,664.99)" d="M80,0h640" style="stroke: rgb(255, 255, 255); stroke-opacity: 1; stroke-width: 1px;"/><path class="ygrid crisp" transform="translate(0,560.27)" d="M80,0h640" style="stroke: rgb(255, 255, 255); stroke-opacity: 1; stroke-width: 1px;"/><path class="ygrid crisp" transform="translate(0,455.55)" d="M80,0h640" style="stroke: rgb(255, 255, 255); stroke-opacity: 1; stroke-width: 1px;"/><path class="ygrid crisp" transform="translate(0,350.83)" d="M80,0h640" style="stroke: rgb(255, 255, 255); stroke-opacity: 1; stroke-width: 1px;"/><path class="ygrid crisp" transform="translate(0,246.1)" d="M80,0h640" style="stroke: rgb(255, 255, 255); stroke-opacity: 1; stroke-width: 1px;"/><path class="ygrid crisp" transform="translate(0,141.38)" d="M80,0h640" style="stroke: rgb(255, 255, 255); stroke-opacity: 1; stroke-width: 1px;"/></g></g><g class="zerolinelayer"/><path class="xlines-below"/><path class="ylines-below"/><g class="overlines-below"/><g class="xaxislayer-below"/><g class="yaxislayer-below"/><g class="overaxes-below"/><g class="plot" transform="translate(80,60)" clip-path="url(#clip6d735exyplot)"><g class="boxlayer mlayer"><g class="trace boxes" style="opacity: 1;"><path class="box" d="M10.57,357.74H11.77M10.57,376.91H11.77V333.5H10.57ZM11.17,376.91V394.4M11.17,333.5V318.05M10.87,394.4H11.47M10.87,318.05H11.47" style="vector-effect: non-scaling-stroke; stroke-width: 2px; stroke: rgb(99, 110, 250); stroke-opacity: 1; fill: rgb(99, 110, 250); fill-opacity: 0.5;"/><g class="points"/></g><g class="trace boxes" style="opacity: 1;"><path class="box" d="M61.05,205.48H62.24M61.05,208.15H62.24V187.78H61.05ZM61.65,208.15V209.56M61.65,187.78V171.34M61.35,209.56H61.94M61.35,171.34H61.94" style="vector-effect: non-scaling-stroke; stroke-width: 2px; stroke: rgb(239, 85, 59); stroke-opacity: 1; fill: rgb(239, 85, 59); fill-opacity: 0.5;"/><g class="points"/></g><g class="trace boxes" style="opacity: 1;"><path class="box" d="M62.75,222.65H63.95M62.75,247.47H63.95V193.07H62.75ZM63.35,247.47V264.96M63.35,193.07V170.81M63.05,264.96H63.65M63.05,170.81H63.65" style="vector-effect: non-scaling-stroke; stroke-width: 2px; stroke: rgb(0, 204, 150); stroke-opacity: 1; fill: rgb(0, 204, 150); fill-opacity: 0.5;"/><g class="points"/></g><g class="trace boxes" style="opacity: 1;"><path class="box" d="M64.46,454.72H65.66M64.46,487.1H65.66V310.57H64.46ZM65.06,487.1V497.65M65.06,310.57V286.11M64.76,497.65H65.36M64.76,286.11H65.36" style="vector-effect: non-scaling-stroke; stroke-width: 2px; stroke: rgb(171, 99, 250); stroke-opacity: 1; fill: rgb(171, 99, 250); fill-opacity: 0.5;"/><g class="points"/></g><g class="trace boxes" style="opacity: 1;"><path class="box" d="M66.17,381.15H67.36M66.17,428.9H67.36V325.86H66.17ZM66.77,428.9V439.11M66.77,325.86V308.1M66.47,439.11H67.06M66.47,308.1H67.06" style="vector-effect: non-scaling-stroke; stroke-width: 2px; stroke: rgb(255, 161, 90); stroke-opacity: 1; fill: rgb(255, 161, 90); fill-opacity: 0.5;"/><g class="points"/></g><g class="trace boxes" style="opacity: 1;"><path class="box" d="M116.64,256.79H117.84M116.64,259.23H117.84V235.43H116.64ZM117.24,259.23V260.04M117.24,235.43V228.31M116.94,260.04H117.54M116.94,228.31H117.54" style="vector-effect: non-scaling-stroke; stroke-width: 2px; stroke: rgb(25, 211, 243); stroke-opacity: 1; fill: rgb(25, 211, 243); fill-opacity: 0.5;"/><g class="points"/></g><g class="trace boxes" style="opacity: 1;"><path class="box" d="M167.12,233.07H168.32M167.12,276.22H168.32V148.93H167.12ZM167.72,276.22V370.31M167.72,148.93V30.8M167.42,370.31H168.02M167.42,30.8H168.02" style="vector-effect: non-scaling-stroke; stroke-width: 2px; stroke: rgb(255, 102, 146); stroke-opacity: 1; fill: rgb(255, 102, 146); fill-opacity: 0.5;"/><g class="points"/></g><g class="trace boxes" style="opacity: 1;"><path class="box" d="M217.6,277.42H218.79M217.6,284.02H218.79V253.99H217.6ZM218.19,284.02V285.48M218.19,253.99V247.26M217.9,285.48H218.49M217.9,247.26H218.49" style="vector-effect: non-scaling-stroke; stroke-width: 2px; stroke: rgb(182, 232, 128); stroke-opacity: 1; fill: rgb(182, 232, 128); fill-opacity: 0.5;"/><g class="points"><path class="point" transform="translate(218.19,362.98)" d="M3,0A3,3 0 1,1 0,-3A3,3 0 0,1 3,0Z" style="opacity: 1; stroke-width: 0px; fill: rgb(182, 232, 128); fill-opacity: 1;"/><path class="point" transform="translate(218.19,182.86)" d="M3,0A3,3 0 1,1 0,-3A3,3 0 0,1 3,0Z" style="opacity: 1; stroke-width: 0px; fill: rgb(182, 232, 128); fill-opacity: 1;"/></g></g><g class="trace boxes" style="opacity: 1;"><path class="box" d="M268.07,463.62H269.27M268.07,531.37H269.27V413.25H268.07ZM268.67,531.37V585.2M268.67,413.25V359.42M268.37,585.2H268.97M268.37,359.42H268.97" style="vector-effect: non-scaling-stroke; stroke-width: 2px; stroke: rgb(255, 151, 255); stroke-opacity: 1; fill: rgb(255, 151, 255); fill-opacity: 0.5;"/><g class="points"/></g><g class="trace boxes" style="opacity: 1;"><path class="box" d="M318.55,497.76H319.74M318.55,507.29H319.74V476.39H318.55ZM319.15,507.29V535.88M319.15,476.39V460.27M318.85,535.88H319.45M318.85,460.27H319.45" style="vector-effect: non-scaling-stroke; stroke-width: 2px; stroke: rgb(254, 203, 82); stroke-opacity: 1; fill: rgb(254, 203, 82); fill-opacity: 0.5;"/><path class="box" d="M367.32,420.05H368.51M367.32,446.18H368.51V365.28H367.32ZM367.92,446.18V499.96M367.92,365.28V311.04M367.62,499.96H368.21M367.62,311.04H368.21" style="vector-effect: non-scaling-stroke; stroke-width: 2px; stroke: rgb(254, 203, 82); stroke-opacity: 1; fill: rgb(254, 203, 82); fill-opacity: 0.5;"/><g class="points"/><g class="points"/></g><g class="trace boxes" style="opacity: 1;"><path class="box" d="M417.79,348.42H418.99M417.79,357.74H418.99V339.1H417.79ZM418.39,357.74V357.74M418.39,339.1V339.1M418.09,357.74H418.69M418.09,339.1H418.69" style="vector-effect: non-scaling-stroke; stroke-width: 2px; stroke: rgb(99, 110, 250); stroke-opacity: 1; fill: rgb(99, 110, 250); fill-opacity: 0.5;"/><path class="box" d="M466.56,219.61H467.76M466.56,219.61H467.76V219.61H466.56ZM467.16,219.61V219.61M467.16,219.61V219.61M466.86,219.61H467.46M466.86,219.61H467.46" style="vector-effect: non-scaling-stroke; stroke-width: 2px; stroke: rgb(99, 110, 250); stroke-opacity: 1; fill: rgb(99, 110, 250); fill-opacity: 0.5;"/><path class="box" d="M515.33,181.34H516.53M515.33,199.4H516.53V163.27H515.33ZM515.93,199.4V199.4M515.93,163.27V163.27M515.63,199.4H516.23M515.63,163.27H516.23" style="vector-effect: non-scaling-stroke; stroke-width: 2px; stroke: rgb(99, 110, 250); stroke-opacity: 1; fill: rgb(99, 110, 250); fill-opacity: 0.5;"/><g class="points"/><g class="points"/><g class="points"/></g><g class="trace boxes" style="opacity: 1;"><path class="box" d="M419.5,436.28H420.7M419.5,436.28H420.7V436.28H419.5ZM420.1,436.28V436.28M420.1,436.28V436.28M419.8,436.28H420.4M419.8,436.28H420.4" style="vector-effect: non-scaling-stroke; stroke-width: 2px; stroke: rgb(239, 85, 59); stroke-opacity: 1; fill: rgb(239, 85, 59); fill-opacity: 0.5;"/><path class="box" d="M468.27,338.79H469.47M468.27,338.79H469.47V338.79H468.27ZM468.87,338.79V338.79M468.87,338.79V338.79M468.57,338.79H469.17M468.57,338.79H469.17" style="vector-effect: non-scaling-stroke; stroke-width: 2px; stroke: rgb(239, 85, 59); stroke-opacity: 1; fill: rgb(239, 85, 59); fill-opacity: 0.5;"/><g class="points"/><g class="points"/></g><g class="trace boxes" style="opacity: 1;"><path class="box" d="M421.21,431.15H422.4M421.21,442.78H422.4V419.53H421.21ZM421.81,442.78V442.78M421.81,419.53V419.53M421.51,442.78H422.1M421.51,419.53H422.1" style="vector-effect: non-scaling-stroke; stroke-width: 2px; stroke: rgb(0, 204, 150); stroke-opacity: 1; fill: rgb(0, 204, 150); fill-opacity: 0.5;"/><path class="box" d="M469.98,214.38H471.17M469.98,306.85H471.17V182.94H469.98ZM470.58,306.85V400.47M470.58,182.94V147.98M470.28,400.47H470.87M470.28,147.98H470.87" style="vector-effect: non-scaling-stroke; stroke-width: 2px; stroke: rgb(0, 204, 150); stroke-opacity: 1; fill: rgb(0, 204, 150); fill-opacity: 0.5;"/><path class="box" d="M518.75,123.22H519.94M518.75,151.02H519.94V95.41H518.75ZM519.34,151.02V151.02M519.34,95.41V95.41M519.05,151.02H519.64M519.05,95.41H519.64" style="vector-effect: non-scaling-stroke; stroke-width: 2px; stroke: rgb(0, 204, 150); stroke-opacity: 1; fill: rgb(0, 204, 150); fill-opacity: 0.5;"/><g class="points"/><g class="points"/><g class="points"/></g><g class="trace boxes" style="opacity: 1;"><path class="box" d="M422.92,357.11H424.11M422.92,357.11H424.11V357.11H422.92ZM423.51,357.11V357.11M423.51,357.11V357.11M423.21,357.11H423.81M423.21,357.11H423.81" style="vector-effect: non-scaling-stroke; stroke-width: 2px; stroke: rgb(171, 99, 250); stroke-opacity: 1; fill: rgb(171, 99, 250); fill-opacity: 0.5;"/><path class="box" d="M471.68,211.34H472.88M471.68,231.03H472.88V191.65H471.68ZM472.28,231.03V231.03M472.28,191.65V191.65M471.98,231.03H472.58M471.98,191.65H472.58" style="vector-effect: non-scaling-stroke; stroke-width: 2px; stroke: rgb(171, 99, 250); stroke-opacity: 1; fill: rgb(171, 99, 250); fill-opacity: 0.5;"/><path class="box" d="M520.45,127.93H521.65M520.45,150.18H521.65V105.68H520.45ZM521.05,150.18V150.18M521.05,105.68V105.68M520.75,150.18H521.35M520.75,105.68H521.35" style="vector-effect: non-scaling-stroke; stroke-width: 2px; stroke: rgb(171, 99, 250); stroke-opacity: 1; fill: rgb(171, 99, 250); fill-opacity: 0.5;"/><g class="points"/><g class="points"/><g class="points"/></g><g class="trace boxes" style="opacity: 1;"><path class="box" d="M424.62,277.42H425.82M424.62,277.42H425.82V277.42H424.62ZM425.22,277.42V277.42M425.22,277.42V277.42M424.92,277.42H425.52M424.92,277.42H425.52" style="vector-effect: non-scaling-stroke; stroke-width: 2px; stroke: rgb(255, 161, 90); stroke-opacity: 1; fill: rgb(255, 161, 90); fill-opacity: 0.5;"/><path class="box" d="M473.39,170.39H474.59M473.39,170.39H474.59V170.39H473.39ZM473.99,170.39V170.39M473.99,170.39V170.39M473.69,170.39H474.29M473.69,170.39H474.29" style="vector-effect: non-scaling-stroke; stroke-width: 2px; stroke: rgb(255, 161, 90); stroke-opacity: 1; fill: rgb(255, 161, 90); fill-opacity: 0.5;"/><path class="box" d="M522.16,144.42H523.36M522.16,144.42H523.36V144.42H522.16ZM522.76,144.42V144.42M522.76,144.42V144.42M522.46,144.42H523.06M522.46,144.42H523.06" style="vector-effect: non-scaling-stroke; stroke-width: 2px; stroke: rgb(255, 161, 90); stroke-opacity: 1; fill: rgb(255, 161, 90); fill-opacity: 0.5;"/><g class="points"/><g class="points"/><g class="points"/></g><g class="trace boxes" style="opacity: 1;"><path class="box" d="M426.33,400.1H427.52M426.33,406.65H427.52V393.56H426.33ZM426.93,406.65V406.65M426.93,393.56V393.56M426.63,406.65H427.23M426.63,393.56H427.23" style="vector-effect: non-scaling-stroke; stroke-width: 2px; stroke: rgb(25, 211, 243); stroke-opacity: 1; fill: rgb(25, 211, 243); fill-opacity: 0.5;"/><path class="box" d="M475.1,174.79H476.29M475.1,235.03H476.29V171.42H475.1ZM475.7,235.03V255.12M475.7,171.42V170.29M475.4,255.12H475.99M475.4,170.29H475.99" style="vector-effect: non-scaling-stroke; stroke-width: 2px; stroke: rgb(25, 211, 243); stroke-opacity: 1; fill: rgb(25, 211, 243); fill-opacity: 0.5;"/><path class="box" d="M523.87,98.03H525.06M523.87,98.03H525.06V98.03H523.87ZM524.47,98.03V98.03M524.47,98.03V98.03M524.17,98.03H524.76M524.17,98.03H524.76" style="vector-effect: non-scaling-stroke; stroke-width: 2px; stroke: rgb(25, 211, 243); stroke-opacity: 1; fill: rgb(25, 211, 243); fill-opacity: 0.5;"/><g class="points"/><g class="points"/><g class="points"/></g><g class="trace boxes" style="opacity: 1;"><path class="box" d="M428.04,327.16H429.23M428.04,343.19H429.23V311.14H428.04ZM428.63,343.19V343.19M428.63,311.14V311.14M428.33,343.19H428.93M428.33,311.14H428.93" style="vector-effect: non-scaling-stroke; stroke-width: 2px; stroke: rgb(255, 102, 146); stroke-opacity: 1; fill: rgb(255, 102, 146); fill-opacity: 0.5;"/><path class="box" d="M476.81,212.7H478M476.81,239.2H478V186.21H476.81ZM477.4,239.2V239.2M477.4,186.21V186.21M477.1,239.2H477.7M477.1,186.21H477.7" style="vector-effect: non-scaling-stroke; stroke-width: 2px; stroke: rgb(255, 102, 146); stroke-opacity: 1; fill: rgb(255, 102, 146); fill-opacity: 0.5;"/><path class="box" d="M525.57,213.33H526.77M525.57,245.69H526.77V180.97H525.57ZM526.17,245.69V245.69M526.17,180.97V180.97M525.87,245.69H526.47M525.87,180.97H526.47" style="vector-effect: non-scaling-stroke; stroke-width: 2px; stroke: rgb(255, 102, 146); stroke-opacity: 1; fill: rgb(255, 102, 146); fill-opacity: 0.5;"/><g class="points"/><g class="points"/><g class="points"/></g><g class="trace boxes" style="opacity: 1;"><path class="box" d="M429.74,353.97H430.94M429.74,370.7H430.94V343.06H429.74ZM430.34,370.7V376.28M430.34,343.06V339.42M430.04,376.28H430.64M430.04,339.42H430.64" style="vector-effect: non-scaling-stroke; stroke-width: 2px; stroke: rgb(182, 232, 128); stroke-opacity: 1; fill: rgb(182, 232, 128); fill-opacity: 0.5;"/><path class="box" d="M478.51,207.47H479.71M478.51,280.62H479.71V197.1H478.51ZM479.11,280.62V308.42M479.11,197.1V160.97M478.81,308.42H479.41M478.81,160.97H479.41" style="vector-effect: non-scaling-stroke; stroke-width: 2px; stroke: rgb(182, 232, 128); stroke-opacity: 1; fill: rgb(182, 232, 128); fill-opacity: 0.5;"/><path class="box" d="M527.28,215.27H528.48M527.28,246.42H528.48V194.17H527.28ZM527.88,246.42V256.37M527.88,194.17V178.67M527.58,256.37H528.18M527.58,178.67H528.18" style="vector-effect: non-scaling-stroke; stroke-width: 2px; stroke: rgb(182, 232, 128); stroke-opacity: 1; fill: rgb(182, 232, 128); fill-opacity: 0.5;"/><g class="points"/><g class="points"/><g class="points"/></g><g class="trace boxes" style="opacity: 1;"><path class="box" d="M480.22,195.42H481.41M480.22,211.03H481.41V179.82H480.22ZM480.82,211.03V211.03M480.82,179.82V179.82M480.52,211.03H481.12M480.52,179.82H481.12" style="vector-effect: non-scaling-stroke; stroke-width: 2px; stroke: rgb(255, 151, 255); stroke-opacity: 1; fill: rgb(255, 151, 255); fill-opacity: 0.5;"/><path class="box" d="M528.99,183.07H530.18M528.99,183.07H530.18V183.07H528.99ZM529.59,183.07V183.07M529.59,183.07V183.07M529.29,183.07H529.88M529.29,183.07H529.88" style="vector-effect: non-scaling-stroke; stroke-width: 2px; stroke: rgb(255, 151, 255); stroke-opacity: 1; fill: rgb(255, 151, 255); fill-opacity: 0.5;"/><g class="points"/><g class="points"/></g><g class="trace boxes" style="opacity: 1;"><path class="box" d="M579.46,244.54H580.66M579.46,253.91H580.66V236.61H579.46ZM580.06,253.91V257.1M580.06,236.61V219.72M579.76,257.1H580.36M579.76,219.72H580.36" style="vector-effect: non-scaling-stroke; stroke-width: 2px; stroke: rgb(254, 203, 82); stroke-opacity: 1; fill: rgb(254, 203, 82); fill-opacity: 0.5;"/><path class="box" d="M628.23,301.14H629.43M628.23,302.97H629.43V295.54H628.23ZM628.83,302.97V302.97M628.83,295.54V286.95M628.53,302.97H629.13M628.53,286.95H629.13" style="vector-effect: non-scaling-stroke; stroke-width: 2px; stroke: rgb(254, 203, 82); stroke-opacity: 1; fill: rgb(254, 203, 82); fill-opacity: 0.5;"/><g class="points"/><g class="points"><path class="point" transform="translate(628.83,315.23)" d="M3,0A3,3 0 1,1 0,-3A3,3 0 0,1 3,0Z" style="opacity: 1; stroke-width: 0px; fill: rgb(254, 203, 82); fill-opacity: 1;"/></g></g></g></g><g class="overplot"/><path class="xlines-above crisp" d="M0,0" style="fill: none;"/><path class="ylines-above crisp" d="M0,0" style="fill: none;"/><g class="overlines-above"/><g class="xaxislayer-above"><g class="xtick"><text text-anchor="start" x="0" y="689" transform="translate(107.38,0) rotate(30,0,683)" style="font-family: 'Open Sans', verdana, arial, sans-serif; font-size: 12px; fill: rgb(42, 63, 95); fill-opacity: 1; white-space: pre; opacity: 1;">upper_continental_crust</text></g><g class="xtick"><text text-anchor="start" x="0" y="689" transform="translate(156.15,0) rotate(30,0,683)" style="font-family: 'Open Sans', verdana, arial, sans-serif; font-size: 12px; fill: rgb(42, 63, 95); fill-opacity: 1; white-space: pre; opacity: 1;">igneous_composite</text></g><g class="xtick"><text text-anchor="start" x="0" y="689" transform="translate(204.92000000000002,0) rotate(30,0,683)" style="font-family: 'Open Sans', verdana, arial, sans-serif; font-size: 12px; fill: rgb(42, 63, 95); fill-opacity: 1; white-space: pre; opacity: 1;">shale_composite</text></g><g class="xtick"><text text-anchor="start" x="0" y="689" transform="translate(253.69,0) rotate(30,0,683)" style="font-family: 'Open Sans', verdana, arial, sans-serif; font-size: 12px; fill: rgb(42, 63, 95); fill-opacity: 1; white-space: pre; opacity: 1;">river_sediment</text></g><g class="xtick"><text text-anchor="start" x="0" y="689" transform="translate(302.46000000000004,0) rotate(30,0,683)" style="font-family: 'Open Sans', verdana, arial, sans-serif; font-size: 12px; fill: rgb(42, 63, 95); fill-opacity: 1; white-space: pre; opacity: 1;">region</text></g><g class="xtick"><text text-anchor="start" x="0" y="689" transform="translate(351.23,0) rotate(30,0,683)" style="font-family: 'Open Sans', verdana, arial, sans-serif; font-size: 12px; fill: rgb(42, 63, 95); fill-opacity: 1; white-space: pre; opacity: 1;">Manasbal_Lake</text></g><g class="xtick"><text text-anchor="start" x="0" y="689" transform="translate(400,0) rotate(30,0,683)" style="font-family: 'Open Sans', verdana, arial, sans-serif; font-size: 12px; fill: rgb(42, 63, 95); fill-opacity: 1; white-space: pre; opacity: 1;">Surma_Group</text></g><g class="xtick"><text text-anchor="start" x="0" y="689" transform="translate(448.77,0) rotate(30,0,683)" style="font-family: 'Open Sans', verdana, arial, sans-serif; font-size: 12px; fill: rgb(42, 63, 95); fill-opacity: 1; white-space: pre; opacity: 1;">Barail_Group</text></g><g class="xtick"><text text-anchor="start" x="0" y="689" transform="translate(497.54,0) rotate(30,0,683)" style="font-family: 'Open Sans', verdana, arial, sans-serif; font-size: 12px; fill: rgb(42, 63, 95); fill-opacity: 1; white-space: pre; opacity: 1;">channel_sediments</text></g><g class="xtick"><text text-anchor="start" x="0" y="689" transform="translate(546.31,0) rotate(30,0,683)" style="font-family: 'Open Sans', verdana, arial, sans-serif; font-size: 12px; fill: rgb(42, 63, 95); fill-opacity: 1; white-space: pre; opacity: 1;">overbank_sediments</text></g><g class="xtick"><text text-anchor="start" x="0" y="689" transform="translate(595.08,0) rotate(30,0,683)" style="font-family: 'Open Sans', verdana, arial, sans-serif; font-size: 12px; fill: rgb(42, 63, 95); fill-opacity: 1; white-space: pre; opacity: 1;">suspended_sediments</text></g><g class="xtick"><text text-anchor="start" x="0" y="689" transform="translate(643.85,0) rotate(30,0,683)" style="font-family: 'Open Sans', verdana, arial, sans-serif; font-size: 12px; fill: rgb(42, 63, 95); fill-opacity: 1; white-space: pre; opacity: 1;">Silty_clay</text></g><g class="xtick"><text text-anchor="start" x="0" y="689" transform="translate(692.62,0) rotate(30,0,683)" style="font-family: 'Open Sans', verdana, arial, sans-serif; font-size: 12px; fill: rgb(42, 63, 95); fill-opacity: 1; white-space: pre; opacity: 1;">Sand</text></g></g><g class="yaxislayer-above"><g class="ytick"><text text-anchor="end" x="79" y="4.199999999999999" transform="translate(0,664.99)" style="font-family: 'Open Sans', verdana, arial, sans-serif; font-size: 12px; fill: rgb(42, 63, 95); fill-opacity: 1; white-space: pre; opacity: 1;">40</text></g><g class="ytick"><text text-anchor="end" x="79" y="4.199999999999999" style="font-family: 'Open Sans', verdana, arial, sans-serif; font-size: 12px; fill: rgb(42, 63, 95); fill-opacity: 1; white-space: pre; opacity: 1;" transform="translate(0,560.27)">50</text></g><g class="ytick"><text text-anchor="end" x="79" y="4.199999999999999" style="font-family: 'Open Sans', verdana, arial, sans-serif; font-size: 12px; fill: rgb(42, 63, 95); fill-opacity: 1; white-space: pre; opacity: 1;" transform="translate(0,455.55)">60</text></g><g class="ytick"><text text-anchor="end" x="79" y="4.199999999999999" style="font-family: 'Open Sans', verdana, arial, sans-serif; font-size: 12px; fill: rgb(42, 63, 95); fill-opacity: 1; white-space: pre; opacity: 1;" transform="translate(0,350.83)">70</text></g><g class="ytick"><text text-anchor="end" x="79" y="4.199999999999999" style="font-family: 'Open Sans', verdana, arial, sans-serif; font-size: 12px; fill: rgb(42, 63, 95); fill-opacity: 1; white-space: pre; opacity: 1;" transform="translate(0,246.1)">80</text></g><g class="ytick"><text text-anchor="end" x="79" y="4.199999999999999" style="font-family: 'Open Sans', verdana, arial, sans-serif; font-size: 12px; fill: rgb(42, 63, 95); fill-opacity: 1; white-space: pre; opacity: 1;" transform="translate(0,141.38)">90</text></g></g><g class="overaxes-above"/></g></g><g class="polarlayer"/><g class="ternarylayer"/><g class="geolayer"/><g class="funnelarealayer"/><g class="pielayer"/><g class="iciclelayer"/><g class="treemaplayer"/><g class="sunburstlayer"/><g class="glimages"/><defs id="topdefs-6d735e"><g class="clips"/></defs><g class="layer-above"><g class="imagelayer"/><g class="shapelayer"/></g><g class="infolayer"><g class="g-gtitle"/><g class="g-xtitle"><text class="xtitle" x="400" y="788.4857452392578" text-anchor="middle" style="font-family: 'Open Sans', verdana, arial, sans-serif; font-size: 14px; fill: rgb(42, 63, 95); opacity: 1; font-weight: normal; white-space: pre;">sample subcategory</text></g><g class="g-ytitle"><text class="ytitle" transform="rotate(-90,38.934375,368)" x="38.934375" y="368" text-anchor="middle" style="font-family: 'Open Sans', verdana, arial, sans-serif; font-size: 14px; fill: rgb(42, 63, 95); opacity: 1; font-weight: normal; white-space: pre;">CIX</text></g></g></svg>