<svg class="main-svg" xmlns="http://www.w3.org/2000/svg" xmlns:xlink="http://www.w3.org/1999/xlink" width="800" height="800" style="" viewBox="0 0 800 800"><rect x="0" y="0" width="800" height="800" style="fill: rgb(255, 255, 255); fill-opacity: 1;"/><defs id="defs-c09b1c"><g class="clips"><clipPath id="clipc09b1cxyplot" class="plotclip"><rect width="640" height="616"/></clipPath><clipPath class="axesclip" id="clipc09b1cx"><rect x="80" y="0" width="640" height="800"/></clipPath><clipPath class="axesclip" id="clipc09b1cy"><rect x="0" y="60" width="800" height="616"/></clipPath><clipPath class="axesclip" id="clipc09b1cxy"><rect x="80" y="60" width="640" height="616"/></clipPath></g><g class="gradients"/><g class="patterns"/></defs><g class="bglayer"><rect class="bg" x="80" y="60" width="640" height="616" style="fill: rgb(229, 236, 246); fill-opacity: 1; stroke-width: 0;"/></g><g class="layer-below"><g class="imagelayer"/><g class="shapelayer"/></g><g class="cartesianlayer"><g class="subplot xy"><g class="layer-subplot"><g class="shapelayer"/><g class="imagelayer"/></g><g class="gridlayer"><g class="x"/><g class="y"><path class="ygrid crisp" transform="translate(0,625.45)" d="M80,0h640" style="stroke: rgb(255, 255, 255); stroke-opacity: 1; stroke-width: 1px;"/><path class="ygrid crisp" transform="translate(0,556.86)" d="M80,0h640" style="stroke: rgb(255, 255, 255); stroke-opacity: 1; stroke-width: 1px;"/><path class="ygrid crisp" transform="translate(0,488.27)" d="M80,0h640" style="stroke: rgb(255, 255, 255); stroke-opacity: 1; stroke-width: 1px;"/><path class="ygrid crisp" transform="translate(0,419.68)" d="M80,0h640" style="stroke: rgb(255, 255, 255); stroke-opacity: 1; stroke-width: 1px;"/><path class="ygrid crisp" transform="translate(0,351.09)" d="M80,0h640" style="stroke: rgb(255, 255, 255); stroke-opacity: 1; stroke-width: 1px;"/><path class="ygrid crisp" transform="translate(0,282.5)" d="M80,0h640" style="stroke: rgb(255, 255, 255); stroke-opacity: 1; stroke-width: 1px;"/><path class="ygrid crisp" transform="translate(0,213.92)" d="M80,0h640" style="stroke: rgb(255, 255, 255); stroke-opacity: 1; stroke-width: 1px;"/><path class="ygrid crisp" transform="translate(0,145.32999999999998)" d="M80,0h640" style="stroke: rgb(255, 255, 255); stroke-opacity: 1; stroke-width: 1px;"/><path class="ygrid crisp" transform="translate(0,76.74)" d="M80,0h640" style="stroke: rgb(255, 255, 255); stroke-opacity: 1; stroke-width: 1px;"/></g></g><g class="zerolinelayer"/><path class="xlines-below"/><path class="ylines-below"/><g class="overlines-below"/><g class="xaxislayer-below"/><g class="yaxislayer-below"/><g class="overaxes-below"/><g class="plot" transform="translate(80,60)" clip-path="url(#clipc09b1cxyplot)"><g class="boxlayer mlayer"><g class="trace boxes" style="opacity: 1;"><path class="box" d="M10.57,192.15H11.77M10.57,205.73H11.77V186.94H10.57ZM11.17,205.73V209.68M11.17,186.94V181.83M10.87,209.68H11.47M10.87,181.83H11.47" style="vector-effect: non-scaling-stroke; stroke-width: 2px; stroke: rgb(99, 110, 250); stroke-opacity: 1; fill: rgb(99, 110, 250); fill-opacity: 0.5;"/><g class="points"/></g><g class="trace boxes" style="opacity: 1;"><path class="box" d="M61.05,579.2H62.24M61.05,583.04H62.24V557.83H61.05ZM61.65,583.04V585.2M61.65,557.83V538.15M61.35,585.2H61.94M61.35,538.15H61.94" style="vector-effect: non-scaling-stroke; stroke-width: 2px; stroke: rgb(239, 85, 59); stroke-opacity: 1; fill: rgb(239, 85, 59); fill-opacity: 0.5;"/><g class="points"/></g><g class="trace boxes" style="opacity: 1;"><path class="box" d="M62.75,518.67H63.95M62.75,544.97H63.95V440.72H62.75ZM63.35,544.97V566.13M63.35,440.72V367.91M63.05,566.13H63.65M63.05,367.91H63.65" style="vector-effect: non-scaling-stroke; stroke-width: 2px; stroke: rgb(0, 204, 150); stroke-opacity: 1; fill: rgb(0, 204, 150); fill-opacity: 0.5;"/><g class="points"/></g><g class="trace boxes" style="opacity: 1;"><path class="box" d="M64.46,201.65H65.66M64.46,337.99H65.66V170.94H64.46ZM65.06,337.99V436.23M65.06,170.94V161.32M64.76,436.23H65.36M64.76,161.32H65.36" style="vector-effect: non-scaling-stroke; stroke-width: 2px; stroke: rgb(171, 99, 250); stroke-opacity: 1; fill: rgb(171, 99, 250); fill-opacity: 0.5;"/><g class="points"/></g><g class="trace boxes" style="opacity: 1;"><path class="box" d="M66.17,240.13H67.36M66.17,258.41H67.36V230.87H66.17ZM66.77,258.41V272.37M66.77,230.87V225.93M66.47,272.37H67.06M66.47,225.93H67.06" style="vector-effect: non-scaling-stroke; stroke-width: 2px; stroke: rgb(255, 161, 90); stroke-opacity: 1; fill: rgb(255, 161, 90); fill-opacity: 0.5;"/><g class="points"/></g><g class="trace boxes" style="opacity: 1;"><path class="box" d="M116.64,183.75H117.84M116.64,199.54H117.84V141.78H116.64ZM117.24,199.54V204.81M117.24,141.78V127.78M116.94,204.81H117.54M116.94,127.78H117.54" style="vector-effect: non-scaling-stroke; stroke-width: 2px; stroke: rgb(25, 211, 243); stroke-opacity: 1; fill: rgb(25, 211, 243); fill-opacity: 0.5;"/><g class="points"/></g><g class="trace boxes" style="opacity: 1;"><path class="box" d="M167.12,163.59H168.32M167.12,235.47H168.32V110.29H167.12ZM167.72,235.47V358.65M167.72,110.29V30.8M167.42,358.65H168.02M167.42,30.8H168.02" style="vector-effect: non-scaling-stroke; stroke-width: 2px; stroke: rgb(255, 102, 146); stroke-opacity: 1; fill: rgb(255, 102, 146); fill-opacity: 0.5;"/><g class="points"/></g><g class="trace boxes" style="opacity: 1;"><path class="box" d="M217.6,196.1H218.79M217.6,234.49H218.79V177.63H217.6ZM218.19,234.49V245.96M218.19,177.63V170.51M217.9,245.96H218.49M217.9,170.51H218.49" style="vector-effect: non-scaling-stroke; stroke-width: 2px; stroke: rgb(182, 232, 128); stroke-opacity: 1; fill: rgb(182, 232, 128); fill-opacity: 0.5;"/><g class="points"><path class="point" transform="translate(218.19,386.84)" d="M3,0A3,3 0 1,1 0,-3A3,3 0 0,1 3,0Z" style="opacity: 1; stroke-width: 0px; fill: rgb(182, 232, 128); fill-opacity: 1;"/></g></g><g class="trace boxes" style="opacity: 1;"><path class="box" d="M268.07,444.9H269.27M268.07,474.7H269.27V416.82H268.07ZM268.67,474.7V507.21M268.67,416.82V380.05M268.37,507.21H268.97M268.37,380.05H268.97" style="vector-effect: non-scaling-stroke; stroke-width: 2px; stroke: rgb(255, 151, 255); stroke-opacity: 1; fill: rgb(255, 151, 255); fill-opacity: 0.5;"/><g class="points"/></g><g class="trace boxes" style="opacity: 1;"><path class="box" d="M318.55,231.59H319.74M318.55,328.68H319.74V218.18H318.55ZM319.15,328.68V378.68M319.15,218.18V185.54M318.85,378.68H319.45M318.85,185.54H319.45" style="vector-effect: non-scaling-stroke; stroke-width: 2px; stroke: rgb(254, 203, 82); stroke-opacity: 1; fill: rgb(254, 203, 82); fill-opacity: 0.5;"/><path class="box" d="M367.32,188.35H368.51M367.32,252.61H368.51V168.77H367.32ZM367.92,252.61V292.12M367.92,168.77V158.24M367.62,292.12H368.21M367.62,158.24H368.21" style="vector-effect: non-scaling-stroke; stroke-width: 2px; stroke: rgb(254, 203, 82); stroke-opacity: 1; fill: rgb(254, 203, 82); fill-opacity: 0.5;"/><g class="points"/><g class="points"/></g><g class="trace boxes" style="opacity: 1;"><path class="box" d="M417.79,248.77H418.99M417.79,284.78H418.99V212.77H417.79ZM418.39,284.78V284.78M418.39,212.77V212.77M418.09,284.78H418.69M418.09,212.77H418.69" style="vector-effect: non-scaling-stroke; stroke-width: 2px; stroke: rgb(99, 110, 250); stroke-opacity: 1; fill: rgb(99, 110, 250); fill-opacity: 0.5;"/><path class="box" d="M466.56,310.02H467.76M466.56,310.02H467.76V310.02H466.56ZM467.16,310.02V310.02M467.16,310.02V310.02M466.86,310.02H467.46M466.86,310.02H467.46" style="vector-effect: non-scaling-stroke; stroke-width: 2px; stroke: rgb(99, 110, 250); stroke-opacity: 1; fill: rgb(99, 110, 250); fill-opacity: 0.5;"/><path class="box" d="M515.33,348.71H516.53M515.33,357.14H516.53V340.27H515.33ZM515.93,357.14V357.14M515.93,340.27V340.27M515.63,357.14H516.23M515.63,340.27H516.23" style="vector-effect: non-scaling-stroke; stroke-width: 2px; stroke: rgb(99, 110, 250); stroke-opacity: 1; fill: rgb(99, 110, 250); fill-opacity: 0.5;"/><g class="points"/><g class="points"/><g class="points"/></g><g class="trace boxes" style="opacity: 1;"><path class="box" d="M419.5,296.1H420.7M419.5,296.1H420.7V296.1H419.5ZM420.1,296.1V296.1M420.1,296.1V296.1M419.8,296.1H420.4M419.8,296.1H420.4" style="vector-effect: non-scaling-stroke; stroke-width: 2px; stroke: rgb(239, 85, 59); stroke-opacity: 1; fill: rgb(239, 85, 59); fill-opacity: 0.5;"/><path class="box" d="M468.27,168.11H469.47M468.27,168.11H469.47V168.11H468.27ZM468.87,168.11V168.11M468.87,168.11V168.11M468.57,168.11H469.17M468.57,168.11H469.17" style="vector-effect: non-scaling-stroke; stroke-width: 2px; stroke: rgb(239, 85, 59); stroke-opacity: 1; fill: rgb(239, 85, 59); fill-opacity: 0.5;"/><g class="points"/><g class="points"/></g><g class="trace boxes" style="opacity: 1;"><path class="box" d="M421.21,293.53H422.4M421.21,335.33H422.4V251.72H421.21ZM421.81,335.33V335.33M421.81,251.72V251.72M421.51,335.33H422.1M421.51,251.72H422.1" style="vector-effect: non-scaling-stroke; stroke-width: 2px; stroke: rgb(0, 204, 150); stroke-opacity: 1; fill: rgb(0, 204, 150); fill-opacity: 0.5;"/><path class="box" d="M469.98,229.98H471.17M469.98,276.95H471.17V193.77H469.98ZM470.58,276.95V276.95M470.58,193.77V175.04M470.28,276.95H470.87M470.28,175.04H470.87" style="vector-effect: non-scaling-stroke; stroke-width: 2px; stroke: rgb(0, 204, 150); stroke-opacity: 1; fill: rgb(0, 204, 150); fill-opacity: 0.5;"/><path class="box" d="M518.75,268.32H519.94M518.75,305.08H519.94V231.56H518.75ZM519.34,305.08V305.08M519.34,231.56V231.56M519.05,305.08H519.64M519.05,231.56H519.64" style="vector-effect: non-scaling-stroke; stroke-width: 2px; stroke: rgb(0, 204, 150); stroke-opacity: 1; fill: rgb(0, 204, 150); fill-opacity: 0.5;"/><g class="points"/><g class="points"><path class="point" transform="translate(470.58,414.55)" d="M3,0A3,3 0 1,1 0,-3A3,3 0 0,1 3,0Z" style="opacity: 1; stroke-width: 0px; fill: rgb(0, 204, 150); fill-opacity: 1;"/></g><g class="points"/></g><g class="trace boxes" style="opacity: 1;"><path class="box" d="M422.92,157.35H424.11M422.92,157.35H424.11V157.35H422.92ZM423.51,157.35V157.35M423.51,157.35V157.35M423.21,157.35H423.81M423.21,157.35H423.81" style="vector-effect: non-scaling-stroke; stroke-width: 2px; stroke: rgb(171, 99, 250); stroke-opacity: 1; fill: rgb(171, 99, 250); fill-opacity: 0.5;"/><path class="box" d="M471.68,255.22H472.88M471.68,269.97H472.88V240.47H471.68ZM472.28,269.97V269.97M472.28,240.47V240.47M471.98,269.97H472.58M471.98,240.47H472.58" style="vector-effect: non-scaling-stroke; stroke-width: 2px; stroke: rgb(171, 99, 250); stroke-opacity: 1; fill: rgb(171, 99, 250); fill-opacity: 0.5;"/><path class="box" d="M520.45,205.12H521.65M520.45,307.42H521.65V102.82H520.45ZM521.05,307.42V307.42M521.05,102.82V102.82M520.75,307.42H521.35M520.75,102.82H521.35" style="vector-effect: non-scaling-stroke; stroke-width: 2px; stroke: rgb(171, 99, 250); stroke-opacity: 1; fill: rgb(171, 99, 250); fill-opacity: 0.5;"/><g class="points"/><g class="points"/><g class="points"/></g><g class="trace boxes" style="opacity: 1;"><path class="box" d="M424.62,134.44H425.82M424.62,134.44H425.82V134.44H424.62ZM425.22,134.44V134.44M425.22,134.44V134.44M424.92,134.44H425.52M424.92,134.44H425.52" style="vector-effect: non-scaling-stroke; stroke-width: 2px; stroke: rgb(255, 161, 90); stroke-opacity: 1; fill: rgb(255, 161, 90); fill-opacity: 0.5;"/><path class="box" d="M473.39,139.03H474.59M473.39,139.03H474.59V139.03H473.39ZM473.99,139.03V139.03M473.99,139.03V139.03M473.69,139.03H474.29M473.69,139.03H474.29" style="vector-effect: non-scaling-stroke; stroke-width: 2px; stroke: rgb(255, 161, 90); stroke-opacity: 1; fill: rgb(255, 161, 90); fill-opacity: 0.5;"/><path class="box" d="M522.16,113.45H523.36M522.16,113.45H523.36V113.45H522.16ZM522.76,113.45V113.45M522.76,113.45V113.45M522.46,113.45H523.06M522.46,113.45H523.06" style="vector-effect: non-scaling-stroke; stroke-width: 2px; stroke: rgb(255, 161, 90); stroke-opacity: 1; fill: rgb(255, 161, 90); fill-opacity: 0.5;"/><g class="points"/><g class="points"/><g class="points"/></g><g class="trace boxes" style="opacity: 1;"><path class="box" d="M426.33,152.51H427.52M426.33,182.38H427.52V122.64H426.33ZM426.93,182.38V182.38M426.93,122.64V122.64M426.63,182.38H427.23M426.63,122.64H427.23" style="vector-effect: non-scaling-stroke; stroke-width: 2px; stroke: rgb(25, 211, 243); stroke-opacity: 1; fill: rgb(25, 211, 243); fill-opacity: 0.5;"/><path class="box" d="M475.1,120.79H476.29M475.1,125.83H476.29V109.11H475.1ZM475.7,125.83V127.51M475.7,109.11V105.22M475.4,127.51H475.99M475.4,105.22H475.99" style="vector-effect: non-scaling-stroke; stroke-width: 2px; stroke: rgb(25, 211, 243); stroke-opacity: 1; fill: rgb(25, 211, 243); fill-opacity: 0.5;"/><path class="box" d="M523.87,76.41H525.06M523.87,76.41H525.06V76.41H523.87ZM524.47,76.41V76.41M524.47,76.41V76.41M524.17,76.41H524.76M524.17,76.41H524.76" style="vector-effect: non-scaling-stroke; stroke-width: 2px; stroke: rgb(25, 211, 243); stroke-opacity: 1; fill: rgb(25, 211, 243); fill-opacity: 0.5;"/><g class="points"/><g class="points"/><g class="points"/></g><g class="trace boxes" style="opacity: 1;"><path class="box" d="M428.04,174.53H429.23M428.04,200.28H429.23V148.77H428.04ZM428.63,200.28V200.28M428.63,148.77V148.77M428.33,200.28H428.93M428.33,148.77H428.93" style="vector-effect: non-scaling-stroke; stroke-width: 2px; stroke: rgb(255, 102, 146); stroke-opacity: 1; fill: rgb(255, 102, 146); fill-opacity: 0.5;"/><path class="box" d="M476.81,249.91H478M476.81,310.43H478V189.38H476.81ZM477.4,310.43V310.43M477.4,189.38V189.38M477.1,310.43H477.7M477.1,189.38H477.7" style="vector-effect: non-scaling-stroke; stroke-width: 2px; stroke: rgb(255, 102, 146); stroke-opacity: 1; fill: rgb(255, 102, 146); fill-opacity: 0.5;"/><path class="box" d="M525.57,246.3H526.77M525.57,331.63H526.77V160.98H525.57ZM526.17,331.63V331.63M526.17,160.98V160.98M525.87,331.63H526.47M525.87,160.98H526.47" style="vector-effect: non-scaling-stroke; stroke-width: 2px; stroke: rgb(255, 102, 146); stroke-opacity: 1; fill: rgb(255, 102, 146); fill-opacity: 0.5;"/><g class="points"/><g class="points"/><g class="points"/></g><g class="trace boxes" style="opacity: 1;"><path class="box" d="M429.74,174.77H430.94M429.74,256.46H430.94V162.78H429.74ZM430.34,256.46V283.69M430.34,162.78V158.79M430.04,283.69H430.64M430.04,158.79H430.64" style="vector-effect: non-scaling-stroke; stroke-width: 2px; stroke: rgb(182, 232, 128); stroke-opacity: 1; fill: rgb(182, 232, 128); fill-opacity: 0.5;"/><path class="box" d="M478.51,223.67H479.71M478.51,251.48H479.71V173.94H478.51ZM479.11,251.48V275.8M479.11,173.94V150.28M478.81,275.8H479.41M478.81,150.28H479.41" style="vector-effect: non-scaling-stroke; stroke-width: 2px; stroke: rgb(182, 232, 128); stroke-opacity: 1; fill: rgb(182, 232, 128); fill-opacity: 0.5;"/><path class="box" d="M527.28,240.75H528.48M527.28,280.94H528.48V175.52H527.28ZM527.88,280.94V346.65M527.88,175.52V146.44M527.58,346.65H528.18M527.58,146.44H528.18" style="vector-effect: non-scaling-stroke; stroke-width: 2px; stroke: rgb(182, 232, 128); stroke-opacity: 1; fill: rgb(182, 232, 128); fill-opacity: 0.5;"/><g class="points"/><g class="points"/><g class="points"/></g><g class="trace boxes" style="opacity: 1;"><path class="box" d="M480.22,296.07H481.41M480.22,311.88H481.41V280.26H480.22ZM480.82,311.88V311.88M480.82,280.26V280.26M480.52,311.88H481.12M480.52,280.26H481.12" style="vector-effect: non-scaling-stroke; stroke-width: 2px; stroke: rgb(255, 151, 255); stroke-opacity: 1; fill: rgb(255, 151, 255); fill-opacity: 0.5;"/><path class="box" d="M528.99,326.07H530.18M528.99,326.07H530.18V326.07H528.99ZM529.59,326.07V326.07M529.59,326.07V326.07M529.29,326.07H529.88M529.29,326.07H529.88" style="vector-effect: non-scaling-stroke; stroke-width: 2px; stroke: rgb(255, 151, 255); stroke-opacity: 1; fill: rgb(255, 151, 255); fill-opacity: 0.5;"/><g class="points"/><g class="points"/></g><g class="trace boxes" style="opacity: 1;"><path class="box" d="M579.46,167.7H580.66M579.46,177.36H580.66V153.83H579.46ZM580.06,177.36V189.58M580.06,153.83V149.18M579.76,189.58H580.36M579.76,149.18H580.36" style="vector-effect: non-scaling-stroke; stroke-width: 2px; stroke: rgb(254, 203, 82); stroke-opacity: 1; fill: rgb(254, 203, 82); fill-opacity: 0.5;"/><path class="box" d="M628.23,158.41H629.43M628.23,174.49H629.43V155.56H628.23ZM628.83,174.49V188.83M628.83,155.56V155.36M628.53,188.83H629.13M628.53,155.36H629.13" style="vector-effect: non-scaling-stroke; stroke-width: 2px; stroke: rgb(254, 203, 82); stroke-opacity: 1; fill: rgb(254, 203, 82); fill-opacity: 0.5;"/><g class="points"/><g class="points"/></g></g></g><g class="overplot"/><path class="xlines-above crisp" d="M0,0" style="fill: none;"/><path class="ylines-above crisp" d="M0,0" style="fill: none;"/><g class="overlines-above"/><g class="xaxislayer-above"><g class="xtick"><text text-anchor="start" x="0" y="689" transform="translate(107.38,0) rotate(30,0,683)" style="font-family: 'Open Sans', verdana, arial, sans-serif; font-size: 12px; fill: rgb(42, 63, 95); fill-opacity: 1; white-space: pre; opacity: 1;">upper_continental_crust</text></g><g class="xtick"><text text-anchor="start" x="0" y="689" transform="translate(156.15,0) rotate(30,0,683)" style="font-family: 'Open Sans', verdana, arial, sans-serif; font-size: 12px; fill: rgb(42, 63, 95); fill-opacity: 1; white-space: pre; opacity: 1;">igneous_composite</text></g><g class="xtick"><text text-anchor="start" x="0" y="689" transform="translate(204.92000000000002,0) rotate(30,0,683)" style="font-family: 'Open Sans', verdana, arial, sans-serif; font-size: 12px; fill: rgb(42, 63, 95); fill-opacity: 1; white-space: pre; opacity: 1;">shale_composite</text></g><g class="xtick"><text text-anchor="start" x="0" y="689" transform="translate(253.69,0) rotate(30,0,683)" style="font-family: 'Open Sans', verdana, arial, sans-serif; font-size: 12px; fill: rgb(42, 63, 95); fill-opacity: 1; white-space: pre; opacity: 1;">river_sediment</text></g><g class="xtick"><text text-anchor="start" x="0" y="689" transform="translate(302.46000000000004,0) rotate(30,0,683)" style="font-family: 'Open Sans', verdana, arial, sans-serif; font-size: 12px; fill: rgb(42, 63, 95); fill-opacity: 1; white-space: pre; opacity: 1;">region</text></g><g class="xtick"><text text-anchor="start" x="0" y="689" transform="translate(351.23,0) rotate(30,0,683)" style="font-family: 'Open Sans', verdana, arial, sans-serif; font-size: 12px; fill: rgb(42, 63, 95); fill-opacity: 1; white-space: pre; opacity: 1;">Manasbal_Lake</text></g><g class="xtick"><text text-anchor="start" x="0" y="689" transform="translate(400,0) rotate(30,0,683)" style="font-family: 'Open Sans', verdana, arial, sans-serif; font-size: 12px; fill: rgb(42, 63, 95); fill-opacity: 1; white-space: pre; opacity: 1;">Surma_Group</text></g><g class="xtick"><text text-anchor="start" x="0" y="689" transform="translate(448.77,0) rotate(30,0,683)" style="font-family: 'Open Sans', verdana, arial, sans-serif; font-size: 12px; fill: rgb(42, 63, 95); fill-opacity: 1; white-space: pre; opacity: 1;">Barail_Group</text></g><g class="xtick"><text text-anchor="start" x="0" y="689" transform="translate(497.54,0) rotate(30,0,683)" style="font-family: 'Open Sans', verdana, arial, sans-serif; font-size: 12px; fill: rgb(42, 63, 95); fill-opacity: 1; white-space: pre; opacity: 1;">channel_sediments</text></g><g class="xtick"><text text-anchor="start" x="0" y="689" transform="translate(546.31,0) rotate(30,0,683)" style="font-family: 'Open Sans', verdana, arial, sans-serif; font-size: 12px; fill: rgb(42, 63, 95); fill-opacity: 1; white-space: pre; opacity: 1;">overbank_sediments</text></g><g class="xtick"><text text-anchor="start" x="0" y="689" transform="translate(595.08,0) rotate(30,0,683)" style="font-family: 'Open Sans', verdana, arial, sans-serif; font-size: 12px; fill: rgb(42, 63, 95); fill-opacity: 1; white-space: pre; opacity: 1;">suspended_sediments</text></g><g class="xtick"><text text-anchor="start" x="0" y="689" transform="translate(643.85,0) rotate(30,0,683)" style="font-family: 'Open Sans', verdana, arial, sans-serif; font-size: 12px; fill: rgb(42, 63, 95); fill-opacity: 1; white-space: pre; opacity: 1;">Silty_clay</text></g><g class="xtick"><text text-anchor="start" x="0" y="689" transform="translate(692.62,0) rotate(30,0,683)" style="font-family: 'Open Sans', verdana, arial, sans-serif; font-size: 12px; fill: rgb(42, 63, 95); fill-opacity: 1; white-space: pre; opacity: 1;">Sand</text></g></g><g class="yaxislayer-above"><g class="ytick"><text text-anchor="end" x="79" y="4.199999999999999" transform="translate(0,625.45)" style="font-family: 'Open Sans', verdana, arial, sans-serif; font-size: 12px; fill: rgb(42, 63, 95); fill-opacity: 1; white-space: pre; opacity: 1;">10</text></g><g class="ytick"><text text-anchor="end" x="79" y="4.199999999999999" style="font-family: 'Open Sans', verdana, arial, sans-serif; font-size: 12px; fill: rgb(42, 63, 95); fill-opacity: 1; white-space: pre; opacity: 1;" transform="translate(0,556.86)">20</text></g><g class="ytick"><text text-anchor="end" x="79" y="4.199999999999999" style="font-family: 'Open Sans', verdana, arial, sans-serif; font-size: 12px; fill: rgb(42, 63, 95); fill-opacity: 1; white-space: pre; opacity: 1;" transform="translate(0,488.27)">30</text></g><g class="ytick"><text text-anchor="end" x="79" y="4.199999999999999" style="font-family: 'Open Sans', verdana, arial, sans-serif; font-size: 12px; fill: rgb(42, 63, 95); fill-opacity: 1; white-space: pre; opacity: 1;" transform="translate(0,419.68)">40</text></g><g class="ytick"><text text-anchor="end" x="79" y="4.199999999999999" style="font-family: 'Open Sans', verdana, arial, sans-serif; font-size: 12px; fill: rgb(42, 63, 95); fill-opacity: 1; white-space: pre; opacity: 1;" transform="translate(0,351.09)">50</text></g><g class="ytick"><text text-anchor="end" x="79" y="4.199999999999999" style="font-family: 'Open Sans', verdana, arial, sans-serif; font-size: 12px; fill: rgb(42, 63, 95); fill-opacity: 1; white-space: pre; opacity: 1;" transform="translate(0,282.5)">60</text></g><g class="ytick"><text text-anchor="end" x="79" y="4.199999999999999" style="font-family: 'Open Sans', verdana, arial, sans-serif; font-size: 12px; fill: rgb(42, 63, 95); fill-opacity: 1; white-space: pre; opacity: 1;" transform="translate(0,213.92)">70</text></g><g class="ytick"><text text-anchor="end" x="79" y="4.199999999999999" style="font-family: 'Open Sans', verdana, arial, sans-serif; font-size: 12px; fill: rgb(42, 63, 95); fill-opacity: 1; white-space: pre; opacity: 1;" transform="translate(0,145.32999999999998)">80</text></g><g class="ytick"><text text-anchor="end" x="79" y="4.199999999999999" style="font-family: 'Open Sans', verdana, arial, sans-serif; font-size: 12px; fill: rgb(42, 63, 95); fill-opacity: 1; white-space: pre; opacity: 1;" transform="translate(0,76.74)">90</text></g></g><g class="overaxes-above"/></g></g><g class="polarlayer"/><g class="ternarylayer"/><g class="geolayer"/><g class="funnelarealayer"/><g class="pielayer"/><g class="iciclelayer"/><g class="treemaplayer"/><g class="sunburstlayer"/><g class="glimages"/><defs id="topdefs-c09b1c"><g class="clips"/></defs><g class="layer-above"><g class="imagelayer"/><g class="shapelayer"/></g><g class="infolayer"><g class="g-gtitle"/><g class="g-xtitle"><text class="xtitle" x="400" y="788.4857452392578" text-anchor="middle" style="font-family: 'Open Sans', verdana, arial, sans-serif; font-size: 14px; fill: rgb(42, 63, 95); opacity: 1; font-weight: normal; white-space: pre;">sample subcategory</text></g><g class="g-ytitle"><text class="ytitle" transform="rotate(-90,38.934375,368)" x="38.934375" y="368" text-anchor="middle" style="font-family: 'Open Sans', verdana, arial, sans-serif; font-size: 14px; fill: rgb(42, 63, 95); opacity: 1; font-weight: normal; white-space: pre;">W</text></g></g></svg>