<svg class="main-svg" xmlns="http://www.w3.org/2000/svg" xmlns:xlink="http://www.w3.org/1999/xlink" width="800" height="800" style="" viewBox="0 0 800 800"><rect x="0" y="0" width="800" height="800" style="fill: rgb(255, 255, 255); fill-opacity: 1;"/><defs id="defs-acc6cb"><g class="clips"><clipPath id="clipacc6cbxyplot" class="plotclip"><rect width="640" height="616"/></clipPath><clipPath class="axesclip" id="clipacc6cbx"><rect x="80" y="0" width="640" height="800"/></clipPath><clipPath class="axesclip" id="clipacc6cby"><rect x="0" y="60" width="800" height="616"/></clipPath><clipPath class="axesclip" id="clipacc6cbxy"><rect x="80" y="60" width="640" height="616"/></clipPath></g><g class="gradients"/><g class="patterns"/></defs><g class="bglayer"><rect class="bg" x="80" y="60" width="640" height="616" style="fill: rgb(229, 236, 246); fill-opacity: 1; stroke-width: 0;"/></g><g class="layer-below"><g class="imagelayer"/><g class="shapelayer"/></g><g class="cartesianlayer"><g class="subplot xy"><g class="layer-subplot"><g class="shapelayer"/><g class="imagelayer"/></g><g class="gridlayer"><g class="x"/><g class="y"><path class="ygrid crisp" transform="translate(0,532.5)" d="M80,0h640" style="stroke: rgb(255, 255, 255); stroke-opacity: 1; stroke-width: 1px;"/><path class="ygrid crisp" transform="translate(0,416.08)" d="M80,0h640" style="stroke: rgb(255, 255, 255); stroke-opacity: 1; stroke-width: 1px;"/><path class="ygrid crisp" transform="translate(0,299.65999999999997)" d="M80,0h640" style="stroke: rgb(255, 255, 255); stroke-opacity: 1; stroke-width: 1px;"/><path class="ygrid crisp" transform="translate(0,183.24)" d="M80,0h640" style="stroke: rgb(255, 255, 255); stroke-opacity: 1; stroke-width: 1px;"/><path class="ygrid crisp" transform="translate(0,66.82)" d="M80,0h640" style="stroke: rgb(255, 255, 255); stroke-opacity: 1; stroke-width: 1px;"/></g></g><g class="zerolinelayer"><path class="yzl zl crisp" transform="translate(0,648.93)" d="M80,0h640" style="stroke: rgb(255, 255, 255); stroke-opacity: 1; stroke-width: 2px;"/></g><path class="xlines-below"/><path class="ylines-below"/><g class="overlines-below"/><g class="xaxislayer-below"/><g class="yaxislayer-below"/><g class="overaxes-below"/><g class="plot" transform="translate(80,60)" clip-path="url(#clipacc6cbxyplot)"><g class="boxlayer mlayer"><g class="trace boxes" style="opacity: 1;"><path class="box" d="M10.57,566.87H11.77M10.57,567.85H11.77V565.87H10.57ZM11.17,567.85V568.67M11.17,565.87V565.41M10.87,568.67H11.47M10.87,565.41H11.47" style="vector-effect: non-scaling-stroke; stroke-width: 2px; stroke: rgb(99, 110, 250); stroke-opacity: 1; fill: rgb(99, 110, 250); fill-opacity: 0.5;"/><g class="points"/></g><g class="trace boxes" style="opacity: 1;"><path class="box" d="M61.05,263.88H62.24M61.05,360.97H62.24V99.72H61.05ZM61.65,360.97V362.83M61.65,99.72V30.8M61.35,362.83H61.94M61.35,30.8H61.94" style="vector-effect: non-scaling-stroke; stroke-width: 2px; stroke: rgb(239, 85, 59); stroke-opacity: 1; fill: rgb(239, 85, 59); fill-opacity: 0.5;"/><g class="points"/></g><g class="trace boxes" style="opacity: 1;"><path class="box" d="M62.75,551.09H63.95M62.75,561.22H63.95V549.23H62.75ZM63.35,561.22V570.76M63.35,549.23V547.95M63.05,570.76H63.65M63.05,547.95H63.65" style="vector-effect: non-scaling-stroke; stroke-width: 2px; stroke: rgb(0, 204, 150); stroke-opacity: 1; fill: rgb(0, 204, 150); fill-opacity: 0.5;"/><g class="points"/></g><g class="trace boxes" style="opacity: 1;"><path class="box" d="M64.46,564.01H65.66M64.46,565.41H65.66V561.97H64.46ZM65.06,565.41V569.6M65.06,561.97V561.45M64.76,569.6H65.36M64.76,561.45H65.36" style="vector-effect: non-scaling-stroke; stroke-width: 2px; stroke: rgb(171, 99, 250); stroke-opacity: 1; fill: rgb(171, 99, 250); fill-opacity: 0.5;"/><g class="points"/></g><g class="trace boxes" style="opacity: 1;"><path class="box" d="M66.17,568.74H67.36M66.17,569.48H67.36V567.74H66.17ZM66.77,569.48V569.6M66.77,567.74V566.81M66.47,569.6H67.06M66.47,566.81H67.06" style="vector-effect: non-scaling-stroke; stroke-width: 2px; stroke: rgb(255, 161, 90); stroke-opacity: 1; fill: rgb(255, 161, 90); fill-opacity: 0.5;"/><g class="points"/></g><g class="trace boxes" style="opacity: 1;"><path class="box" d="M116.64,571.18H117.84M116.64,574.72H117.84V570.18H116.64ZM117.24,574.72V576.12M117.24,570.18V570.07M116.94,576.12H117.54M116.94,570.07H117.54" style="vector-effect: non-scaling-stroke; stroke-width: 2px; stroke: rgb(25, 211, 243); stroke-opacity: 1; fill: rgb(25, 211, 243); fill-opacity: 0.5;"/><g class="points"/></g><g class="trace boxes" style="opacity: 1;"><path class="box" d="M167.12,570.3H168.32M167.12,579.84H168.32V563.08H167.12ZM167.72,579.84V585.2M167.72,563.08V553.77M167.42,585.2H168.02M167.42,553.77H168.02" style="vector-effect: non-scaling-stroke; stroke-width: 2px; stroke: rgb(255, 102, 146); stroke-opacity: 1; fill: rgb(255, 102, 146); fill-opacity: 0.5;"/><g class="points"/></g><g class="trace boxes" style="opacity: 1;"><path class="box" d="M217.6,571.51H218.79M217.6,572.51H218.79V568.14H217.6ZM218.19,572.51V572.86M218.19,568.14V567.5M217.9,572.86H218.49M217.9,567.5H218.49" style="vector-effect: non-scaling-stroke; stroke-width: 2px; stroke: rgb(182, 232, 128); stroke-opacity: 1; fill: rgb(182, 232, 128); fill-opacity: 0.5;"/><g class="points"><path class="point" transform="translate(218.19,528.62)" d="M3,0A3,3 0 1,1 0,-3A3,3 0 0,1 3,0Z" style="opacity: 1; stroke-width: 0px; fill: rgb(182, 232, 128); fill-opacity: 1;"/></g></g><g class="trace boxes" style="opacity: 1;"><path class="box" d="M268.07,398.34H269.27M268.07,409.87H269.27V312.77H268.07ZM268.67,409.87V483.91M268.67,312.77V205.9M268.37,483.91H268.97M268.37,205.9H268.97" style="vector-effect: non-scaling-stroke; stroke-width: 2px; stroke: rgb(255, 151, 255); stroke-opacity: 1; fill: rgb(255, 151, 255); fill-opacity: 0.5;"/><g class="points"/></g><g class="trace boxes" style="opacity: 1;"><path class="box" d="M318.55,474.72H319.74M318.55,489.04H319.74V462.72H318.55ZM319.15,489.04V496.02M319.15,462.72V449.92M318.85,496.02H319.45M318.85,449.92H319.45" style="vector-effect: non-scaling-stroke; stroke-width: 2px; stroke: rgb(254, 203, 82); stroke-opacity: 1; fill: rgb(254, 203, 82); fill-opacity: 0.5;"/><path class="box" d="M367.32,503.47H368.51M367.32,513.13H368.51V489.85H367.32ZM367.92,513.13V521.87M367.92,489.85V466.45M367.62,521.87H368.21M367.62,466.45H368.21" style="vector-effect: non-scaling-stroke; stroke-width: 2px; stroke: rgb(254, 203, 82); stroke-opacity: 1; fill: rgb(254, 203, 82); fill-opacity: 0.5;"/><g class="points"/><g class="points"/></g><g class="trace boxes" style="opacity: 1;"><path class="box" d="M417.79,552.14H418.99M417.79,552.83H418.99V551.44H417.79ZM418.39,552.83V552.83M418.39,551.44V551.44M418.09,552.83H418.69M418.09,551.44H418.69" style="vector-effect: non-scaling-stroke; stroke-width: 2px; stroke: rgb(99, 110, 250); stroke-opacity: 1; fill: rgb(99, 110, 250); fill-opacity: 0.5;"/><path class="box" d="M466.56,560.98H467.76M466.56,560.98H467.76V560.98H466.56ZM467.16,560.98V560.98M467.16,560.98V560.98M466.86,560.98H467.46M466.86,560.98H467.46" style="vector-effect: non-scaling-stroke; stroke-width: 2px; stroke: rgb(99, 110, 250); stroke-opacity: 1; fill: rgb(99, 110, 250); fill-opacity: 0.5;"/><path class="box" d="M515.33,561.68H516.53M515.33,563.55H516.53V559.82H515.33ZM515.93,563.55V563.55M515.93,559.82V559.82M515.63,563.55H516.23M515.63,559.82H516.23" style="vector-effect: non-scaling-stroke; stroke-width: 2px; stroke: rgb(99, 110, 250); stroke-opacity: 1; fill: rgb(99, 110, 250); fill-opacity: 0.5;"/><g class="points"/><g class="points"/><g class="points"/></g><g class="trace boxes" style="opacity: 1;"><path class="box" d="M419.5,563.78H420.7M419.5,563.78H420.7V563.78H419.5ZM420.1,563.78V563.78M420.1,563.78V563.78M419.8,563.78H420.4M419.8,563.78H420.4" style="vector-effect: non-scaling-stroke; stroke-width: 2px; stroke: rgb(239, 85, 59); stroke-opacity: 1; fill: rgb(239, 85, 59); fill-opacity: 0.5;"/><path class="box" d="M468.27,566.81H469.47M468.27,566.81H469.47V566.81H468.27ZM468.87,566.81V566.81M468.87,566.81V566.81M468.57,566.81H469.17M468.57,566.81H469.17" style="vector-effect: non-scaling-stroke; stroke-width: 2px; stroke: rgb(239, 85, 59); stroke-opacity: 1; fill: rgb(239, 85, 59); fill-opacity: 0.5;"/><g class="points"/><g class="points"/></g><g class="trace boxes" style="opacity: 1;"><path class="box" d="M421.21,532.34H422.4M421.21,564.94H422.4V499.75H421.21ZM421.81,564.94V564.94M421.81,499.75V499.75M421.51,564.94H422.1M421.51,499.75H422.1" style="vector-effect: non-scaling-stroke; stroke-width: 2px; stroke: rgb(0, 204, 150); stroke-opacity: 1; fill: rgb(0, 204, 150); fill-opacity: 0.5;"/><path class="box" d="M469.98,571H471.17M469.98,572.22H471.17V566.51H469.98ZM470.58,572.22V573.79M470.58,566.51V560.05M470.28,573.79H470.87M470.28,560.05H470.87" style="vector-effect: non-scaling-stroke; stroke-width: 2px; stroke: rgb(0, 204, 150); stroke-opacity: 1; fill: rgb(0, 204, 150); fill-opacity: 0.5;"/><path class="box" d="M518.75,572.39H519.94M518.75,575.89H519.94V568.9H518.75ZM519.34,575.89V575.89M519.34,568.9V568.9M519.05,575.89H519.64M519.05,568.9H519.64" style="vector-effect: non-scaling-stroke; stroke-width: 2px; stroke: rgb(0, 204, 150); stroke-opacity: 1; fill: rgb(0, 204, 150); fill-opacity: 0.5;"/><g class="points"/><g class="points"/><g class="points"/></g><g class="trace boxes" style="opacity: 1;"><path class="box" d="M422.92,566.81H424.11M422.92,566.81H424.11V566.81H422.92ZM423.51,566.81V566.81M423.51,566.81V566.81M423.21,566.81H423.81M423.21,566.81H423.81" style="vector-effect: non-scaling-stroke; stroke-width: 2px; stroke: rgb(171, 99, 250); stroke-opacity: 1; fill: rgb(171, 99, 250); fill-opacity: 0.5;"/><path class="box" d="M471.68,565.52H472.88M471.68,566.81H472.88V564.24H471.68ZM472.28,566.81V566.81M472.28,564.24V564.24M471.98,566.81H472.58M471.98,564.24H472.58" style="vector-effect: non-scaling-stroke; stroke-width: 2px; stroke: rgb(171, 99, 250); stroke-opacity: 1; fill: rgb(171, 99, 250); fill-opacity: 0.5;"/><path class="box" d="M520.45,574.37H521.65M520.45,579.84H521.65V568.9H520.45ZM521.05,579.84V579.84M521.05,568.9V568.9M520.75,579.84H521.35M520.75,568.9H521.35" style="vector-effect: non-scaling-stroke; stroke-width: 2px; stroke: rgb(171, 99, 250); stroke-opacity: 1; fill: rgb(171, 99, 250); fill-opacity: 0.5;"/><g class="points"/><g class="points"/><g class="points"/></g><g class="trace boxes" style="opacity: 1;"><path class="box" d="M424.62,564.71H425.82M424.62,564.71H425.82V564.71H424.62ZM425.22,564.71V564.71M425.22,564.71V564.71M424.92,564.71H425.52M424.92,564.71H425.52" style="vector-effect: non-scaling-stroke; stroke-width: 2px; stroke: rgb(255, 161, 90); stroke-opacity: 1; fill: rgb(255, 161, 90); fill-opacity: 0.5;"/><path class="box" d="M473.39,576.82H474.59M473.39,576.82H474.59V576.82H473.39ZM473.99,576.82V576.82M473.99,576.82V576.82M473.69,576.82H474.29M473.69,576.82H474.29" style="vector-effect: non-scaling-stroke; stroke-width: 2px; stroke: rgb(255, 161, 90); stroke-opacity: 1; fill: rgb(255, 161, 90); fill-opacity: 0.5;"/><path class="box" d="M522.16,578.21H523.36M522.16,578.21H523.36V578.21H522.16ZM522.76,578.21V578.21M522.76,578.21V578.21M522.46,578.21H523.06M522.46,578.21H523.06" style="vector-effect: non-scaling-stroke; stroke-width: 2px; stroke: rgb(255, 161, 90); stroke-opacity: 1; fill: rgb(255, 161, 90); fill-opacity: 0.5;"/><g class="points"/><g class="points"/><g class="points"/></g><g class="trace boxes" style="opacity: 1;"><path class="box" d="M426.33,566.81H427.52M426.33,568.2H427.52V565.41H426.33ZM426.93,568.2V568.2M426.93,565.41V565.41M426.63,568.2H427.23M426.63,565.41H427.23" style="vector-effect: non-scaling-stroke; stroke-width: 2px; stroke: rgb(25, 211, 243); stroke-opacity: 1; fill: rgb(25, 211, 243); fill-opacity: 0.5;"/><path class="box" d="M475.1,576.75H476.29M475.1,577.75H476.29V573.91H475.1ZM475.7,577.75V577.75M475.7,573.91V572.63M475.4,577.75H475.99M475.4,572.63H475.99" style="vector-effect: non-scaling-stroke; stroke-width: 2px; stroke: rgb(25, 211, 243); stroke-opacity: 1; fill: rgb(25, 211, 243); fill-opacity: 0.5;"/><path class="box" d="M523.87,582.41H525.06M523.87,582.41H525.06V582.41H523.87ZM524.47,582.41V582.41M524.47,582.41V582.41M524.17,582.41H524.76M524.17,582.41H524.76" style="vector-effect: non-scaling-stroke; stroke-width: 2px; stroke: rgb(25, 211, 243); stroke-opacity: 1; fill: rgb(25, 211, 243); fill-opacity: 0.5;"/><g class="points"/><g class="points"/><g class="points"/></g><g class="trace boxes" style="opacity: 1;"><path class="box" d="M428.04,566.57H429.23M428.04,570.76H429.23V562.38H428.04ZM428.63,570.76V570.76M428.63,562.38V562.38M428.33,570.76H428.93M428.33,562.38H428.93" style="vector-effect: non-scaling-stroke; stroke-width: 2px; stroke: rgb(255, 102, 146); stroke-opacity: 1; fill: rgb(255, 102, 146); fill-opacity: 0.5;"/><path class="box" d="M476.81,567.85H478M476.81,571.7H478V564.01H476.81ZM477.4,571.7V571.7M477.4,564.01V564.01M477.1,571.7H477.7M477.1,564.01H477.7" style="vector-effect: non-scaling-stroke; stroke-width: 2px; stroke: rgb(255, 102, 146); stroke-opacity: 1; fill: rgb(255, 102, 146); fill-opacity: 0.5;"/><path class="box" d="M525.57,568.67H526.77M525.57,573.09H526.77V564.24H525.57ZM526.17,573.09V573.09M526.17,564.24V564.24M525.87,573.09H526.47M525.87,564.24H526.47" style="vector-effect: non-scaling-stroke; stroke-width: 2px; stroke: rgb(255, 102, 146); stroke-opacity: 1; fill: rgb(255, 102, 146); fill-opacity: 0.5;"/><g class="points"/><g class="points"/><g class="points"/></g><g class="trace boxes" style="opacity: 1;"><path class="box" d="M429.74,570.17H430.94M429.74,571.17H430.94V566.63H429.74ZM430.34,571.17V571.23M430.34,566.63V565.18M430.04,571.23H430.64M430.04,565.18H430.64" style="vector-effect: non-scaling-stroke; stroke-width: 2px; stroke: rgb(182, 232, 128); stroke-opacity: 1; fill: rgb(182, 232, 128); fill-opacity: 0.5;"/><path class="box" d="M478.51,571.23H479.71M478.51,572.74H479.71V566.17H478.51ZM479.11,572.74V576.58M479.11,566.17V558.89M478.81,576.58H479.41M478.81,558.89H479.41" style="vector-effect: non-scaling-stroke; stroke-width: 2px; stroke: rgb(182, 232, 128); stroke-opacity: 1; fill: rgb(182, 232, 128); fill-opacity: 0.5;"/><path class="box" d="M527.28,569.25H528.48M527.28,571.93H528.48V566.11H527.28ZM527.88,571.93V572.86M527.88,566.11V562.61M527.58,572.86H528.18M527.58,562.61H528.18" style="vector-effect: non-scaling-stroke; stroke-width: 2px; stroke: rgb(182, 232, 128); stroke-opacity: 1; fill: rgb(182, 232, 128); fill-opacity: 0.5;"/><g class="points"/><g class="points"/><g class="points"/></g><g class="trace boxes" style="opacity: 1;"><path class="box" d="M480.22,563.43H481.41M480.22,563.55H481.41V563.31H480.22ZM480.82,563.55V563.55M480.82,563.31V563.31M480.52,563.55H481.12M480.52,563.31H481.12" style="vector-effect: non-scaling-stroke; stroke-width: 2px; stroke: rgb(255, 151, 255); stroke-opacity: 1; fill: rgb(255, 151, 255); fill-opacity: 0.5;"/><path class="box" d="M528.99,562.38H530.18M528.99,562.38H530.18V562.38H528.99ZM529.59,562.38V562.38M529.59,562.38V562.38M529.29,562.38H529.88M529.29,562.38H529.88" style="vector-effect: non-scaling-stroke; stroke-width: 2px; stroke: rgb(255, 151, 255); stroke-opacity: 1; fill: rgb(255, 151, 255); fill-opacity: 0.5;"/><g class="points"/><g class="points"/></g><g class="trace boxes" style="opacity: 1;"><path class="box" d="M579.46,573.34H580.66M579.46,573.91H580.66V572.34H579.46ZM580.06,573.91V575.42M580.06,572.34V571.46M579.76,575.42H580.36M579.76,571.46H580.36" style="vector-effect: non-scaling-stroke; stroke-width: 2px; stroke: rgb(254, 203, 82); stroke-opacity: 1; fill: rgb(254, 203, 82); fill-opacity: 0.5;"/><path class="box" d="M628.23,570.53H629.43M628.23,571.23H629.43V569.83H628.23ZM628.83,571.23V571.93M628.83,569.83V569.37M628.53,571.93H629.13M628.53,569.37H629.13" style="vector-effect: non-scaling-stroke; stroke-width: 2px; stroke: rgb(254, 203, 82); stroke-opacity: 1; fill: rgb(254, 203, 82); fill-opacity: 0.5;"/><g class="points"/><g class="points"/></g></g></g><g class="overplot"/><path class="xlines-above crisp" d="M0,0" style="fill: none;"/><path class="ylines-above crisp" d="M0,0" style="fill: none;"/><g class="overlines-above"/><g class="xaxislayer-above"><g class="xtick"><text text-anchor="start" x="0" y="689" transform="translate(107.38,0) rotate(30,0,683)" style="font-family: 'Open Sans', verdana, arial, sans-serif; font-size: 12px; fill: rgb(42, 63, 95); fill-opacity: 1; white-space: pre; opacity: 1;">upper_continental_crust</text></g><g class="xtick"><text text-anchor="start" x="0" y="689" transform="translate(156.15,0) rotate(30,0,683)" style="font-family: 'Open Sans', verdana, arial, sans-serif; font-size: 12px; fill: rgb(42, 63, 95); fill-opacity: 1; white-space: pre; opacity: 1;">igneous_composite</text></g><g class="xtick"><text text-anchor="start" x="0" y="689" transform="translate(204.92000000000002,0) rotate(30,0,683)" style="font-family: 'Open Sans', verdana, arial, sans-serif; font-size: 12px; fill: rgb(42, 63, 95); fill-opacity: 1; white-space: pre; opacity: 1;">shale_composite</text></g><g class="xtick"><text text-anchor="start" x="0" y="689" transform="translate(253.69,0) rotate(30,0,683)" style="font-family: 'Open Sans', verdana, arial, sans-serif; font-size: 12px; fill: rgb(42, 63, 95); fill-opacity: 1; white-space: pre; opacity: 1;">river_sediment</text></g><g class="xtick"><text text-anchor="start" x="0" y="689" transform="translate(302.46000000000004,0) rotate(30,0,683)" style="font-family: 'Open Sans', verdana, arial, sans-serif; font-size: 12px; fill: rgb(42, 63, 95); fill-opacity: 1; white-space: pre; opacity: 1;">region</text></g><g class="xtick"><text text-anchor="start" x="0" y="689" transform="translate(351.23,0) rotate(30,0,683)" style="font-family: 'Open Sans', verdana, arial, sans-serif; font-size: 12px; fill: rgb(42, 63, 95); fill-opacity: 1; white-space: pre; opacity: 1;">Manasbal_Lake</text></g><g class="xtick"><text text-anchor="start" x="0" y="689" transform="translate(400,0) rotate(30,0,683)" style="font-family: 'Open Sans', verdana, arial, sans-serif; font-size: 12px; fill: rgb(42, 63, 95); fill-opacity: 1; white-space: pre; opacity: 1;">Surma_Group</text></g><g class="xtick"><text text-anchor="start" x="0" y="689" transform="translate(448.77,0) rotate(30,0,683)" style="font-family: 'Open Sans', verdana, arial, sans-serif; font-size: 12px; fill: rgb(42, 63, 95); fill-opacity: 1; white-space: pre; opacity: 1;">Barail_Group</text></g><g class="xtick"><text text-anchor="start" x="0" y="689" transform="translate(497.54,0) rotate(30,0,683)" style="font-family: 'Open Sans', verdana, arial, sans-serif; font-size: 12px; fill: rgb(42, 63, 95); fill-opacity: 1; white-space: pre; opacity: 1;">channel_sediments</text></g><g class="xtick"><text text-anchor="start" x="0" y="689" transform="translate(546.31,0) rotate(30,0,683)" style="font-family: 'Open Sans', verdana, arial, sans-serif; font-size: 12px; fill: rgb(42, 63, 95); fill-opacity: 1; white-space: pre; opacity: 1;">overbank_sediments</text></g><g class="xtick"><text text-anchor="start" x="0" y="689" transform="translate(595.08,0) rotate(30,0,683)" style="font-family: 'Open Sans', verdana, arial, sans-serif; font-size: 12px; fill: rgb(42, 63, 95); fill-opacity: 1; white-space: pre; opacity: 1;">suspended_sediments</text></g><g class="xtick"><text text-anchor="start" x="0" y="689" transform="translate(643.85,0) rotate(30,0,683)" style="font-family: 'Open Sans', verdana, arial, sans-serif; font-size: 12px; fill: rgb(42, 63, 95); fill-opacity: 1; white-space: pre; opacity: 1;">Silty_clay</text></g><g class="xtick"><text text-anchor="start" x="0" y="689" transform="translate(692.62,0) rotate(30,0,683)" style="font-family: 'Open Sans', verdana, arial, sans-serif; font-size: 12px; fill: rgb(42, 63, 95); fill-opacity: 1; white-space: pre; opacity: 1;">Sand</text></g></g><g class="yaxislayer-above"><g class="ytick"><text text-anchor="end" x="79" y="4.199999999999999" transform="translate(0,648.93)" style="font-family: 'Open Sans', verdana, arial, sans-serif; font-size: 12px; fill: rgb(42, 63, 95); fill-opacity: 1; white-space: pre; opacity: 1;">0</text></g><g class="ytick"><text text-anchor="end" x="79" y="4.199999999999999" style="font-family: 'Open Sans', verdana, arial, sans-serif; font-size: 12px; fill: rgb(42, 63, 95); fill-opacity: 1; white-space: pre; opacity: 1;" transform="translate(0,532.5)">5</text></g><g class="ytick"><text text-anchor="end" x="79" y="4.199999999999999" style="font-family: 'Open Sans', verdana, arial, sans-serif; font-size: 12px; fill: rgb(42, 63, 95); fill-opacity: 1; white-space: pre; opacity: 1;" transform="translate(0,416.08)">10</text></g><g class="ytick"><text text-anchor="end" x="79" y="4.199999999999999" style="font-family: 'Open Sans', verdana, arial, sans-serif; font-size: 12px; fill: rgb(42, 63, 95); fill-opacity: 1; white-space: pre; opacity: 1;" transform="translate(0,299.65999999999997)">15</text></g><g class="ytick"><text text-anchor="end" x="79" y="4.199999999999999" style="font-family: 'Open Sans', verdana, arial, sans-serif; font-size: 12px; fill: rgb(42, 63, 95); fill-opacity: 1; white-space: pre; opacity: 1;" transform="translate(0,183.24)">20</text></g><g class="ytick"><text text-anchor="end" x="79" y="4.199999999999999" style="font-family: 'Open Sans', verdana, arial, sans-serif; font-size: 12px; fill: rgb(42, 63, 95); fill-opacity: 1; white-space: pre; opacity: 1;" transform="translate(0,66.82)">25</text></g></g><g class="overaxes-above"/></g></g><g class="polarlayer"/><g class="ternarylayer"/><g class="geolayer"/><g class="funnelarealayer"/><g class="pielayer"/><g class="iciclelayer"/><g class="treemaplayer"/><g class="sunburstlayer"/><g class="glimages"/><defs id="topdefs-acc6cb"><g class="clips"/></defs><g class="layer-above"><g class="imagelayer"/><g class="shapelayer"/></g><g class="infolayer"><g class="g-gtitle"/><g class="g-xtitle"><text class="xtitle" x="400" y="788.4857452392578" text-anchor="middle" style="font-family: 'Open Sans', verdana, arial, sans-serif; font-size: 14px; fill: rgb(42, 63, 95); opacity: 1; font-weight: normal; white-space: pre;">sample subcategory</text></g><g class="g-ytitle"><text class="ytitle" transform="rotate(-90,38.934375,368)" x="38.934375" y="368" text-anchor="middle" style="font-family: 'Open Sans', verdana, arial, sans-serif; font-size: 14px; fill: rgb(42, 63, 95); opacity: 1; font-weight: normal; white-space: pre;">ICV</text></g></g></svg>