<svg class="main-svg" xmlns="http://www.w3.org/2000/svg" xmlns:xlink="http://www.w3.org/1999/xlink" width="800" height="800" style="" viewBox="0 0 800 800"><rect x="0" y="0" width="800" height="800" style="fill: rgb(255, 255, 255); fill-opacity: 1;"/><defs id="defs-8ca1fb"><g class="clips"><clipPath id="clip8ca1fbxyplot" class="plotclip"><rect width="640" height="616"/></clipPath><clipPath class="axesclip" id="clip8ca1fbx"><rect x="80" y="0" width="640" height="800"/></clipPath><clipPath class="axesclip" id="clip8ca1fby"><rect x="0" y="60" width="800" height="616"/></clipPath><clipPath class="axesclip" id="clip8ca1fbxy"><rect x="80" y="60" width="640" height="616"/></clipPath></g><g class="gradients"/><g class="patterns"/></defs><g class="bglayer"><rect class="bg" x="80" y="60" width="640" height="616" style="fill: rgb(229, 236, 246); fill-opacity: 1; stroke-width: 0;"/></g><g class="layer-below"><g class="imagelayer"/><g class="shapelayer"/></g><g class="cartesianlayer"><g class="subplot xy"><g class="layer-subplot"><g class="shapelayer"/><g class="imagelayer"/></g><g class="gridlayer"><g class="x"/><g class="y"><path class="ygrid crisp" transform="translate(0,638.73)" d="M80,0h640" style="stroke: rgb(255, 255, 255); stroke-opacity: 1; stroke-width: 1px;"/><path class="ygrid crisp" transform="translate(0,558.89)" d="M80,0h640" style="stroke: rgb(255, 255, 255); stroke-opacity: 1; stroke-width: 1px;"/><path class="ygrid crisp" transform="translate(0,479.06)" d="M80,0h640" style="stroke: rgb(255, 255, 255); stroke-opacity: 1; stroke-width: 1px;"/><path class="ygrid crisp" transform="translate(0,399.22)" d="M80,0h640" style="stroke: rgb(255, 255, 255); stroke-opacity: 1; stroke-width: 1px;"/><path class="ygrid crisp" transform="translate(0,319.38)" d="M80,0h640" style="stroke: rgb(255, 255, 255); stroke-opacity: 1; stroke-width: 1px;"/><path class="ygrid crisp" transform="translate(0,239.54)" d="M80,0h640" style="stroke: rgb(255, 255, 255); stroke-opacity: 1; stroke-width: 1px;"/><path class="ygrid crisp" transform="translate(0,159.7)" d="M80,0h640" style="stroke: rgb(255, 255, 255); stroke-opacity: 1; stroke-width: 1px;"/><path class="ygrid crisp" transform="translate(0,79.86)" d="M80,0h640" style="stroke: rgb(255, 255, 255); stroke-opacity: 1; stroke-width: 1px;"/></g></g><g class="zerolinelayer"/><path class="xlines-below"/><path class="ylines-below"/><g class="overlines-below"/><g class="xaxislayer-below"/><g class="yaxislayer-below"/><g class="overaxes-below"/><g class="plot" transform="translate(80,60)" clip-path="url(#clip8ca1fbxyplot)"><g class="boxlayer mlayer"><g class="trace boxes" style="opacity: 1;"><path class="box" d="M10.57,358.78H11.77M10.57,372.83H11.77V330.43H10.57ZM11.17,372.83V385.2M11.17,330.43V314.15M10.87,385.2H11.47M10.87,314.15H11.47" style="vector-effect: non-scaling-stroke; stroke-width: 2px; stroke: rgb(99, 110, 250); stroke-opacity: 1; fill: rgb(99, 110, 250); fill-opacity: 0.5;"/><g class="points"/></g><g class="trace boxes" style="opacity: 1;"><path class="box" d="M61.05,250.88H62.24M61.05,262.73H62.24V236.03H61.05ZM61.65,262.73V263.93M61.65,236.03V231.83M61.35,263.93H61.94M61.35,231.83H61.94" style="vector-effect: non-scaling-stroke; stroke-width: 2px; stroke: rgb(239, 85, 59); stroke-opacity: 1; fill: rgb(239, 85, 59); fill-opacity: 0.5;"/><g class="points"/></g><g class="trace boxes" style="opacity: 1;"><path class="box" d="M62.75,292.15H63.95M62.75,308.64H63.95V268.56H62.75ZM63.35,308.64V321.81M63.35,268.56V248.28M63.05,321.81H63.65M63.05,248.28H63.65" style="vector-effect: non-scaling-stroke; stroke-width: 2px; stroke: rgb(0, 204, 150); stroke-opacity: 1; fill: rgb(0, 204, 150); fill-opacity: 0.5;"/><g class="points"/></g><g class="trace boxes" style="opacity: 1;"><path class="box" d="M64.46,364.69H65.66M64.46,384.53H65.66V352.33H64.46ZM65.06,384.53V387.2M65.06,352.33V340.97M64.76,387.2H65.36M64.76,340.97H65.36" style="vector-effect: non-scaling-stroke; stroke-width: 2px; stroke: rgb(171, 99, 250); stroke-opacity: 1; fill: rgb(171, 99, 250); fill-opacity: 0.5;"/><g class="points"/></g><g class="trace boxes" style="opacity: 1;"><path class="box" d="M66.17,340.06H67.36M66.17,359.34H67.36V322.29H66.17ZM66.77,359.34V370.67M66.77,322.29V312.47M66.47,370.67H67.06M66.47,312.47H67.06" style="vector-effect: non-scaling-stroke; stroke-width: 2px; stroke: rgb(255, 161, 90); stroke-opacity: 1; fill: rgb(255, 161, 90); fill-opacity: 0.5;"/><g class="points"/></g><g class="trace boxes" style="opacity: 1;"><path class="box" d="M116.64,164.85H117.84M116.64,188.26H117.84V159.58H116.64ZM117.24,188.26V196.07M117.24,159.58V157.82M116.94,196.07H117.54M116.94,157.82H117.54" style="vector-effect: non-scaling-stroke; stroke-width: 2px; stroke: rgb(25, 211, 243); stroke-opacity: 1; fill: rgb(25, 211, 243); fill-opacity: 0.5;"/><g class="points"/></g><g class="trace boxes" style="opacity: 1;"><path class="box" d="M167.12,169.28H168.32M167.12,229.56H168.32V110.6H167.12ZM167.72,229.56V362.77M167.72,110.6V30.8M167.42,362.77H168.02M167.42,30.8H168.02" style="vector-effect: non-scaling-stroke; stroke-width: 2px; stroke: rgb(255, 102, 146); stroke-opacity: 1; fill: rgb(255, 102, 146); fill-opacity: 0.5;"/><g class="points"/></g><g class="trace boxes" style="opacity: 1;"><path class="box" d="M217.6,258.18H218.79M217.6,279.02H218.79V202.01H217.6ZM218.19,279.02V376.34M218.19,202.01V122.85M217.9,376.34H218.49M217.9,122.85H218.49" style="vector-effect: non-scaling-stroke; stroke-width: 2px; stroke: rgb(182, 232, 128); stroke-opacity: 1; fill: rgb(182, 232, 128); fill-opacity: 0.5;"/><g class="points"/></g><g class="trace boxes" style="opacity: 1;"><path class="box" d="M268.07,476.34H269.27M268.07,546.56H269.27V440.77H268.07ZM268.67,546.56V585.2M268.67,440.77V379.22M268.37,585.2H268.97M268.37,379.22H268.97" style="vector-effect: non-scaling-stroke; stroke-width: 2px; stroke: rgb(255, 151, 255); stroke-opacity: 1; fill: rgb(255, 151, 255); fill-opacity: 0.5;"/><g class="points"/></g><g class="trace boxes" style="opacity: 1;"><path class="box" d="M318.55,520.69H319.74M318.55,533.94H319.74V503.13H318.55ZM319.15,533.94V551.35M319.15,503.13V477.74M318.85,551.35H319.45M318.85,477.74H319.45" style="vector-effect: non-scaling-stroke; stroke-width: 2px; stroke: rgb(254, 203, 82); stroke-opacity: 1; fill: rgb(254, 203, 82); fill-opacity: 0.5;"/><path class="box" d="M367.32,449.51H368.51M367.32,474.14H368.51V377.94H367.32ZM367.92,474.14V511.59M367.92,377.94V332.19M367.62,511.59H368.21M367.62,332.19H368.21" style="vector-effect: non-scaling-stroke; stroke-width: 2px; stroke: rgb(254, 203, 82); stroke-opacity: 1; fill: rgb(254, 203, 82); fill-opacity: 0.5;"/><g class="points"/><g class="points"/></g><g class="trace boxes" style="opacity: 1;"><path class="box" d="M417.79,332.23H418.99M417.79,333.55H418.99V330.91H417.79ZM418.39,333.55V333.55M418.39,330.91V330.91M418.09,333.55H418.69M418.09,330.91H418.69" style="vector-effect: non-scaling-stroke; stroke-width: 2px; stroke: rgb(99, 110, 250); stroke-opacity: 1; fill: rgb(99, 110, 250); fill-opacity: 0.5;"/><path class="box" d="M466.56,179.78H467.76M466.56,179.78H467.76V179.78H466.56ZM467.16,179.78V179.78M467.16,179.78V179.78M466.86,179.78H467.46M466.86,179.78H467.46" style="vector-effect: non-scaling-stroke; stroke-width: 2px; stroke: rgb(99, 110, 250); stroke-opacity: 1; fill: rgb(99, 110, 250); fill-opacity: 0.5;"/><path class="box" d="M515.33,128.92H516.53M515.33,154.95H516.53V102.89H515.33ZM515.93,154.95V154.95M515.93,102.89V102.89M515.63,154.95H516.23M515.63,102.89H516.23" style="vector-effect: non-scaling-stroke; stroke-width: 2px; stroke: rgb(99, 110, 250); stroke-opacity: 1; fill: rgb(99, 110, 250); fill-opacity: 0.5;"/><g class="points"/><g class="points"/><g class="points"/></g><g class="trace boxes" style="opacity: 1;"><path class="box" d="M419.5,373.71H420.7M419.5,373.71H420.7V373.71H419.5ZM420.1,373.71V373.71M420.1,373.71V373.71M419.8,373.71H420.4M419.8,373.71H420.4" style="vector-effect: non-scaling-stroke; stroke-width: 2px; stroke: rgb(239, 85, 59); stroke-opacity: 1; fill: rgb(239, 85, 59); fill-opacity: 0.5;"/><path class="box" d="M468.27,319.42H469.47M468.27,319.42H469.47V319.42H468.27ZM468.87,319.42V319.42M468.87,319.42V319.42M468.57,319.42H469.17M468.57,319.42H469.17" style="vector-effect: non-scaling-stroke; stroke-width: 2px; stroke: rgb(239, 85, 59); stroke-opacity: 1; fill: rgb(239, 85, 59); fill-opacity: 0.5;"/><g class="points"/><g class="points"/></g><g class="trace boxes" style="opacity: 1;"><path class="box" d="M421.21,302.17H422.4M421.21,329.24H422.4V275.11H421.21ZM421.81,329.24V329.24M421.81,275.11V275.11M421.51,329.24H422.1M421.51,275.11H422.1" style="vector-effect: non-scaling-stroke; stroke-width: 2px; stroke: rgb(0, 204, 150); stroke-opacity: 1; fill: rgb(0, 204, 150); fill-opacity: 0.5;"/><path class="box" d="M469.98,168.76H471.17M469.98,217.02H471.17V137.17H469.98ZM470.58,217.02V270.32M470.58,137.17V97.47M470.28,270.32H470.87M470.28,97.47H470.87" style="vector-effect: non-scaling-stroke; stroke-width: 2px; stroke: rgb(0, 204, 150); stroke-opacity: 1; fill: rgb(0, 204, 150); fill-opacity: 0.5;"/><path class="box" d="M518.75,90.48H519.94M518.75,113.75H519.94V67.21H518.75ZM519.34,113.75V113.75M519.34,67.21V67.21M519.05,113.75H519.64M519.05,67.21H519.64" style="vector-effect: non-scaling-stroke; stroke-width: 2px; stroke: rgb(0, 204, 150); stroke-opacity: 1; fill: rgb(0, 204, 150); fill-opacity: 0.5;"/><g class="points"/><g class="points"/><g class="points"/></g><g class="trace boxes" style="opacity: 1;"><path class="box" d="M422.92,277.9H424.11M422.92,277.9H424.11V277.9H422.92ZM423.51,277.9V277.9M423.51,277.9V277.9M423.21,277.9H423.81M423.21,277.9H423.81" style="vector-effect: non-scaling-stroke; stroke-width: 2px; stroke: rgb(171, 99, 250); stroke-opacity: 1; fill: rgb(171, 99, 250); fill-opacity: 0.5;"/><path class="box" d="M471.68,153.27H472.88M471.68,165.25H472.88V141.3H471.68ZM472.28,165.25V165.25M472.28,141.3V141.3M471.98,165.25H472.58M471.98,141.3H472.58" style="vector-effect: non-scaling-stroke; stroke-width: 2px; stroke: rgb(171, 99, 250); stroke-opacity: 1; fill: rgb(171, 99, 250); fill-opacity: 0.5;"/><path class="box" d="M520.45,88.64H521.65M520.45,116.71H521.65V60.58H520.45ZM521.05,116.71V116.71M521.05,60.58V60.58M520.75,116.71H521.35M520.75,60.58H521.35" style="vector-effect: non-scaling-stroke; stroke-width: 2px; stroke: rgb(171, 99, 250); stroke-opacity: 1; fill: rgb(171, 99, 250); fill-opacity: 0.5;"/><g class="points"/><g class="points"/><g class="points"/></g><g class="trace boxes" style="opacity: 1;"><path class="box" d="M424.62,259.62H425.82M424.62,259.62H425.82V259.62H424.62ZM425.22,259.62V259.62M425.22,259.62V259.62M424.92,259.62H425.52M424.92,259.62H425.52" style="vector-effect: non-scaling-stroke; stroke-width: 2px; stroke: rgb(255, 161, 90); stroke-opacity: 1; fill: rgb(255, 161, 90); fill-opacity: 0.5;"/><path class="box" d="M473.39,103.53H474.59M473.39,103.53H474.59V103.53H473.39ZM473.99,103.53V103.53M473.99,103.53V103.53M473.69,103.53H474.29M473.69,103.53H474.29" style="vector-effect: non-scaling-stroke; stroke-width: 2px; stroke: rgb(255, 161, 90); stroke-opacity: 1; fill: rgb(255, 161, 90); fill-opacity: 0.5;"/><path class="box" d="M522.16,65.53H523.36M522.16,65.53H523.36V65.53H522.16ZM522.76,65.53V65.53M522.76,65.53V65.53M522.46,65.53H523.06M522.46,65.53H523.06" style="vector-effect: non-scaling-stroke; stroke-width: 2px; stroke: rgb(255, 161, 90); stroke-opacity: 1; fill: rgb(255, 161, 90); fill-opacity: 0.5;"/><g class="points"/><g class="points"/><g class="points"/></g><g class="trace boxes" style="opacity: 1;"><path class="box" d="M426.33,299.14H427.52M426.33,305.45H427.52V292.83H426.33ZM426.93,305.45V305.45M426.93,292.83V292.83M426.63,305.45H427.23M426.63,292.83H427.23" style="vector-effect: non-scaling-stroke; stroke-width: 2px; stroke: rgb(25, 211, 243); stroke-opacity: 1; fill: rgb(25, 211, 243); fill-opacity: 0.5;"/><path class="box" d="M475.1,117.43H476.29M475.1,170.9H476.29V114.13H475.1ZM475.7,170.9V188.72M475.7,114.13V113.03M475.4,188.72H475.99M475.4,113.03H475.99" style="vector-effect: non-scaling-stroke; stroke-width: 2px; stroke: rgb(25, 211, 243); stroke-opacity: 1; fill: rgb(25, 211, 243); fill-opacity: 0.5;"/><path class="box" d="M523.87,58.74H525.06M523.87,58.74H525.06V58.74H523.87ZM524.47,58.74V58.74M524.47,58.74V58.74M524.17,58.74H524.76M524.17,58.74H524.76" style="vector-effect: non-scaling-stroke; stroke-width: 2px; stroke: rgb(25, 211, 243); stroke-opacity: 1; fill: rgb(25, 211, 243); fill-opacity: 0.5;"/><g class="points"/><g class="points"/><g class="points"/></g><g class="trace boxes" style="opacity: 1;"><path class="box" d="M428.04,311.39H429.23M428.04,324.45H429.23V298.34H428.04ZM428.63,324.45V324.45M428.63,298.34V298.34M428.33,324.45H428.93M428.33,298.34H428.93" style="vector-effect: non-scaling-stroke; stroke-width: 2px; stroke: rgb(255, 102, 146); stroke-opacity: 1; fill: rgb(255, 102, 146); fill-opacity: 0.5;"/><path class="box" d="M476.81,162.57H478M476.81,165.01H478V160.14H476.81ZM477.4,165.01V165.01M477.4,160.14V160.14M477.1,165.01H477.7M477.1,160.14H477.7" style="vector-effect: non-scaling-stroke; stroke-width: 2px; stroke: rgb(255, 102, 146); stroke-opacity: 1; fill: rgb(255, 102, 146); fill-opacity: 0.5;"/><path class="box" d="M525.57,145.77H526.77M525.57,166.85H526.77V124.69H525.57ZM526.17,166.85V166.85M526.17,124.69V124.69M525.87,166.85H526.47M525.87,124.69H526.47" style="vector-effect: non-scaling-stroke; stroke-width: 2px; stroke: rgb(255, 102, 146); stroke-opacity: 1; fill: rgb(255, 102, 146); fill-opacity: 0.5;"/><g class="points"/><g class="points"/><g class="points"/></g><g class="trace boxes" style="opacity: 1;"><path class="box" d="M429.74,336.74H430.94M429.74,344.11H430.94V335.13H429.74ZM430.34,344.11V346.56M430.34,335.13V334.59M430.04,346.56H430.64M430.04,334.59H430.64" style="vector-effect: non-scaling-stroke; stroke-width: 2px; stroke: rgb(182, 232, 128); stroke-opacity: 1; fill: rgb(182, 232, 128); fill-opacity: 0.5;"/><path class="box" d="M478.51,151.28H479.71M478.51,216.48H479.71V135.25H478.51ZM479.11,216.48V265.05M479.11,135.25V95.23M478.81,265.05H479.41M478.81,95.23H479.41" style="vector-effect: non-scaling-stroke; stroke-width: 2px; stroke: rgb(182, 232, 128); stroke-opacity: 1; fill: rgb(182, 232, 128); fill-opacity: 0.5;"/><path class="box" d="M527.28,124.05H528.48M527.28,156.23H528.48V115.03H527.28ZM527.88,156.23V166.37M527.88,115.03V113.03M527.58,166.37H528.18M527.58,113.03H528.18" style="vector-effect: non-scaling-stroke; stroke-width: 2px; stroke: rgb(182, 232, 128); stroke-opacity: 1; fill: rgb(182, 232, 128); fill-opacity: 0.5;"/><g class="points"/><g class="points"/><g class="points"/></g><g class="trace boxes" style="opacity: 1;"><path class="box" d="M480.22,144.49H481.41M480.22,152.63H481.41V136.35H480.22ZM480.82,152.63V152.63M480.82,136.35V136.35M480.52,152.63H481.12M480.52,136.35H481.12" style="vector-effect: non-scaling-stroke; stroke-width: 2px; stroke: rgb(255, 151, 255); stroke-opacity: 1; fill: rgb(255, 151, 255); fill-opacity: 0.5;"/><path class="box" d="M528.99,147.76H530.18M528.99,147.76H530.18V147.76H528.99ZM529.59,147.76V147.76M529.59,147.76V147.76M529.29,147.76H529.88M529.29,147.76H529.88" style="vector-effect: non-scaling-stroke; stroke-width: 2px; stroke: rgb(255, 151, 255); stroke-opacity: 1; fill: rgb(255, 151, 255); fill-opacity: 0.5;"/><g class="points"/><g class="points"/></g><g class="trace boxes" style="opacity: 1;"><path class="box" d="M579.46,210.28H580.66M579.46,218.68H580.66V198.26H579.46ZM580.06,218.68V223.21M580.06,198.26V177.94M579.76,223.21H580.36M579.76,177.94H580.36" style="vector-effect: non-scaling-stroke; stroke-width: 2px; stroke: rgb(254, 203, 82); stroke-opacity: 1; fill: rgb(254, 203, 82); fill-opacity: 0.5;"/><path class="box" d="M628.23,288.32H629.43M628.23,290.28H629.43V287.32H628.23ZM628.83,290.28V290.28M628.83,287.32V287.32M628.53,290.28H629.13M628.53,287.32H629.13" style="vector-effect: non-scaling-stroke; stroke-width: 2px; stroke: rgb(254, 203, 82); stroke-opacity: 1; fill: rgb(254, 203, 82); fill-opacity: 0.5;"/><g class="points"><path class="point" transform="translate(580.06,149.44)" d="M3,0A3,3 0 1,1 0,-3A3,3 0 0,1 3,0Z" style="opacity: 1; stroke-width: 0px; fill: rgb(254, 203, 82); fill-opacity: 1;"/></g><g class="points"><path class="point" transform="translate(628.83,302.65)" d="M3,0A3,3 0 1,1 0,-3A3,3 0 0,1 3,0Z" style="opacity: 1; stroke-width: 0px; fill: rgb(254, 203, 82); fill-opacity: 1;"/><path class="point" transform="translate(628.83,268.88)" d="M3,0A3,3 0 1,1 0,-3A3,3 0 0,1 3,0Z" style="opacity: 1; stroke-width: 0px; fill: rgb(254, 203, 82); fill-opacity: 1;"/></g></g></g></g><g class="overplot"/><path class="xlines-above crisp" d="M0,0" style="fill: none;"/><path class="ylines-above crisp" d="M0,0" style="fill: none;"/><g class="overlines-above"/><g class="xaxislayer-above"><g class="xtick"><text text-anchor="start" x="0" y="689" transform="translate(107.38,0) rotate(30,0,683)" style="font-family: 'Open Sans', verdana, arial, sans-serif; font-size: 12px; fill: rgb(42, 63, 95); fill-opacity: 1; white-space: pre; opacity: 1;">upper_continental_crust</text></g><g class="xtick"><text text-anchor="start" x="0" y="689" transform="translate(156.15,0) rotate(30,0,683)" style="font-family: 'Open Sans', verdana, arial, sans-serif; font-size: 12px; fill: rgb(42, 63, 95); fill-opacity: 1; white-space: pre; opacity: 1;">igneous_composite</text></g><g class="xtick"><text text-anchor="start" x="0" y="689" transform="translate(204.92000000000002,0) rotate(30,0,683)" style="font-family: 'Open Sans', verdana, arial, sans-serif; font-size: 12px; fill: rgb(42, 63, 95); fill-opacity: 1; white-space: pre; opacity: 1;">shale_composite</text></g><g class="xtick"><text text-anchor="start" x="0" y="689" transform="translate(253.69,0) rotate(30,0,683)" style="font-family: 'Open Sans', verdana, arial, sans-serif; font-size: 12px; fill: rgb(42, 63, 95); fill-opacity: 1; white-space: pre; opacity: 1;">river_sediment</text></g><g class="xtick"><text text-anchor="start" x="0" y="689" transform="translate(302.46000000000004,0) rotate(30,0,683)" style="font-family: 'Open Sans', verdana, arial, sans-serif; font-size: 12px; fill: rgb(42, 63, 95); fill-opacity: 1; white-space: pre; opacity: 1;">region</text></g><g class="xtick"><text text-anchor="start" x="0" y="689" transform="translate(351.23,0) rotate(30,0,683)" style="font-family: 'Open Sans', verdana, arial, sans-serif; font-size: 12px; fill: rgb(42, 63, 95); fill-opacity: 1; white-space: pre; opacity: 1;">Manasbal_Lake</text></g><g class="xtick"><text text-anchor="start" x="0" y="689" transform="translate(400,0) rotate(30,0,683)" style="font-family: 'Open Sans', verdana, arial, sans-serif; font-size: 12px; fill: rgb(42, 63, 95); fill-opacity: 1; white-space: pre; opacity: 1;">Surma_Group</text></g><g class="xtick"><text text-anchor="start" x="0" y="689" transform="translate(448.77,0) rotate(30,0,683)" style="font-family: 'Open Sans', verdana, arial, sans-serif; font-size: 12px; fill: rgb(42, 63, 95); fill-opacity: 1; white-space: pre; opacity: 1;">Barail_Group</text></g><g class="xtick"><text text-anchor="start" x="0" y="689" transform="translate(497.54,0) rotate(30,0,683)" style="font-family: 'Open Sans', verdana, arial, sans-serif; font-size: 12px; fill: rgb(42, 63, 95); fill-opacity: 1; white-space: pre; opacity: 1;">channel_sediments</text></g><g class="xtick"><text text-anchor="start" x="0" y="689" transform="translate(546.31,0) rotate(30,0,683)" style="font-family: 'Open Sans', verdana, arial, sans-serif; font-size: 12px; fill: rgb(42, 63, 95); fill-opacity: 1; white-space: pre; opacity: 1;">overbank_sediments</text></g><g class="xtick"><text text-anchor="start" x="0" y="689" transform="translate(595.08,0) rotate(30,0,683)" style="font-family: 'Open Sans', verdana, arial, sans-serif; font-size: 12px; fill: rgb(42, 63, 95); fill-opacity: 1; white-space: pre; opacity: 1;">suspended_sediments</text></g><g class="xtick"><text text-anchor="start" x="0" y="689" transform="translate(643.85,0) rotate(30,0,683)" style="font-family: 'Open Sans', verdana, arial, sans-serif; font-size: 12px; fill: rgb(42, 63, 95); fill-opacity: 1; white-space: pre; opacity: 1;">Silty_clay</text></g><g class="xtick"><text text-anchor="start" x="0" y="689" transform="translate(692.62,0) rotate(30,0,683)" style="font-family: 'Open Sans', verdana, arial, sans-serif; font-size: 12px; fill: rgb(42, 63, 95); fill-opacity: 1; white-space: pre; opacity: 1;">Sand</text></g></g><g class="yaxislayer-above"><g class="ytick"><text text-anchor="end" x="79" y="4.199999999999999" transform="translate(0,638.73)" style="font-family: 'Open Sans', verdana, arial, sans-serif; font-size: 12px; fill: rgb(42, 63, 95); fill-opacity: 1; white-space: pre; opacity: 1;">30</text></g><g class="ytick"><text text-anchor="end" x="79" y="4.199999999999999" style="font-family: 'Open Sans', verdana, arial, sans-serif; font-size: 12px; fill: rgb(42, 63, 95); fill-opacity: 1; white-space: pre; opacity: 1;" transform="translate(0,558.89)">40</text></g><g class="ytick"><text text-anchor="end" x="79" y="4.199999999999999" style="font-family: 'Open Sans', verdana, arial, sans-serif; font-size: 12px; fill: rgb(42, 63, 95); fill-opacity: 1; white-space: pre; opacity: 1;" transform="translate(0,479.06)">50</text></g><g class="ytick"><text text-anchor="end" x="79" y="4.199999999999999" style="font-family: 'Open Sans', verdana, arial, sans-serif; font-size: 12px; fill: rgb(42, 63, 95); fill-opacity: 1; white-space: pre; opacity: 1;" transform="translate(0,399.22)">60</text></g><g class="ytick"><text text-anchor="end" x="79" y="4.199999999999999" style="font-family: 'Open Sans', verdana, arial, sans-serif; font-size: 12px; fill: rgb(42, 63, 95); fill-opacity: 1; white-space: pre; opacity: 1;" transform="translate(0,319.38)">70</text></g><g class="ytick"><text text-anchor="end" x="79" y="4.199999999999999" style="font-family: 'Open Sans', verdana, arial, sans-serif; font-size: 12px; fill: rgb(42, 63, 95); fill-opacity: 1; white-space: pre; opacity: 1;" transform="translate(0,239.54)">80</text></g><g class="ytick"><text text-anchor="end" x="79" y="4.199999999999999" style="font-family: 'Open Sans', verdana, arial, sans-serif; font-size: 12px; fill: rgb(42, 63, 95); fill-opacity: 1; white-space: pre; opacity: 1;" transform="translate(0,159.7)">90</text></g><g class="ytick"><text text-anchor="end" x="79" y="4.199999999999999" style="font-family: 'Open Sans', verdana, arial, sans-serif; font-size: 12px; fill: rgb(42, 63, 95); fill-opacity: 1; white-space: pre; opacity: 1;" transform="translate(0,79.86)">100</text></g></g><g class="overaxes-above"/></g></g><g class="polarlayer"/><g class="ternarylayer"/><g class="geolayer"/><g class="funnelarealayer"/><g class="pielayer"/><g class="iciclelayer"/><g class="treemaplayer"/><g class="sunburstlayer"/><g class="glimages"/><defs id="topdefs-8ca1fb"><g class="clips"/></defs><g class="layer-above"><g class="imagelayer"/><g class="shapelayer"/></g><g class="infolayer"><g class="g-gtitle"/><g class="g-xtitle"><text class="xtitle" x="400" y="788.4857452392578" text-anchor="middle" style="font-family: 'Open Sans', verdana, arial, sans-serif; font-size: 14px; fill: rgb(42, 63, 95); opacity: 1; font-weight: normal; white-space: pre;">sample subcategory</text></g><g class="g-ytitle"><text class="ytitle" transform="rotate(-90,31.309375000000003,368)" x="31.309375000000003" y="368" text-anchor="middle" style="font-family: 'Open Sans', verdana, arial, sans-serif; font-size: 14px; fill: rgb(42, 63, 95); opacity: 1; font-weight: normal; white-space: pre;">CIW</text></g></g></svg>