<svg class="main-svg" xmlns="http://www.w3.org/2000/svg" xmlns:xlink="http://www.w3.org/1999/xlink" width="800" height="800" style="" viewBox="0 0 800 800"><rect x="0" y="0" width="800" height="800" style="fill: rgb(255, 255, 255); fill-opacity: 1;"/><defs id="defs-0e814e"><g class="clips"><clipPath id="clip0e814exyplot" class="plotclip"><rect width="640" height="616"/></clipPath><clipPath class="axesclip" id="clip0e814ex"><rect x="80" y="0" width="640" height="800"/></clipPath><clipPath class="axesclip" id="clip0e814ey"><rect x="0" y="60" width="800" height="616"/></clipPath><clipPath class="axesclip" id="clip0e814exy"><rect x="80" y="60" width="640" height="616"/></clipPath></g><g class="gradients"/><g class="patterns"/></defs><g class="bglayer"><rect class="bg" x="80" y="60" width="640" height="616" style="fill: rgb(229, 236, 246); fill-opacity: 1; stroke-width: 0;"/></g><g class="layer-below"><g class="imagelayer"/><g class="shapelayer"/></g><g class="cartesianlayer"><g class="subplot xy"><g class="layer-subplot"><g class="shapelayer"/><g class="imagelayer"/></g><g class="gridlayer"><g class="x"/><g class="y"><path class="ygrid crisp" transform="translate(0,610.28)" d="M80,0h640" style="stroke: rgb(255, 255, 255); stroke-opacity: 1; stroke-width: 1px;"/><path class="ygrid crisp" transform="translate(0,534.52)" d="M80,0h640" style="stroke: rgb(255, 255, 255); stroke-opacity: 1; stroke-width: 1px;"/><path class="ygrid crisp" transform="translate(0,458.76)" d="M80,0h640" style="stroke: rgb(255, 255, 255); stroke-opacity: 1; stroke-width: 1px;"/><path class="ygrid crisp" transform="translate(0,383)" d="M80,0h640" style="stroke: rgb(255, 255, 255); stroke-opacity: 1; stroke-width: 1px;"/><path class="ygrid crisp" transform="translate(0,307.24)" d="M80,0h640" style="stroke: rgb(255, 255, 255); stroke-opacity: 1; stroke-width: 1px;"/><path class="ygrid crisp" transform="translate(0,231.48)" d="M80,0h640" style="stroke: rgb(255, 255, 255); stroke-opacity: 1; stroke-width: 1px;"/><path class="ygrid crisp" transform="translate(0,155.72)" d="M80,0h640" style="stroke: rgb(255, 255, 255); stroke-opacity: 1; stroke-width: 1px;"/><path class="ygrid crisp" transform="translate(0,79.97)" d="M80,0h640" style="stroke: rgb(255, 255, 255); stroke-opacity: 1; stroke-width: 1px;"/></g></g><g class="zerolinelayer"/><path class="xlines-below"/><path class="ylines-below"/><g class="overlines-below"/><g class="xaxislayer-below"/><g class="yaxislayer-below"/><g class="overaxes-below"/><g class="plot" transform="translate(80,60)" clip-path="url(#clip0e814exyplot)"><g class="boxlayer mlayer"><g class="trace boxes" style="opacity: 1;"><path class="box" d="M10.57,385.84H11.77M10.57,400.65H11.77V353.8H10.57ZM11.17,400.65V418.99M11.17,353.8V340.88M10.87,418.99H11.47M10.87,340.88H11.47" style="vector-effect: non-scaling-stroke; stroke-width: 2px; stroke: rgb(99, 110, 250); stroke-opacity: 1; fill: rgb(99, 110, 250); fill-opacity: 0.5;"/><g class="points"/></g><g class="trace boxes" style="opacity: 1;"><path class="box" d="M61.05,251.56H62.24M61.05,261.33H62.24V235.76H61.05ZM61.65,261.33V262.62M61.65,235.76V228.45M61.35,262.62H61.94M61.35,228.45H61.94" style="vector-effect: non-scaling-stroke; stroke-width: 2px; stroke: rgb(239, 85, 59); stroke-opacity: 1; fill: rgb(239, 85, 59); fill-opacity: 0.5;"/><g class="points"/></g><g class="trace boxes" style="opacity: 1;"><path class="box" d="M62.75,286.83H63.95M62.75,303.83H63.95V263.83H62.75ZM63.35,303.83V320.65M63.35,263.83V241.03M63.05,320.65H63.65M63.05,241.03H63.65" style="vector-effect: non-scaling-stroke; stroke-width: 2px; stroke: rgb(0, 204, 150); stroke-opacity: 1; fill: rgb(0, 204, 150); fill-opacity: 0.5;"/><g class="points"/></g><g class="trace boxes" style="opacity: 1;"><path class="box" d="M64.46,419.29H65.66M64.46,433.38H65.66V355.05H64.46ZM65.06,433.38V441.87M65.06,355.05V344.67M64.76,441.87H65.36M64.76,344.67H65.36" style="vector-effect: non-scaling-stroke; stroke-width: 2px; stroke: rgb(171, 99, 250); stroke-opacity: 1; fill: rgb(171, 99, 250); fill-opacity: 0.5;"/><g class="points"/></g><g class="trace boxes" style="opacity: 1;"><path class="box" d="M66.17,379.89H67.36M66.17,383.68H67.36V365.39H66.17ZM66.77,383.68V384.52M66.77,365.39V353.83M66.47,384.52H67.06M66.47,353.83H67.06" style="vector-effect: non-scaling-stroke; stroke-width: 2px; stroke: rgb(255, 161, 90); stroke-opacity: 1; fill: rgb(255, 161, 90); fill-opacity: 0.5;"/><g class="points"/></g><g class="trace boxes" style="opacity: 1;"><path class="box" d="M116.64,193.76H117.84M116.64,216.14H117.84V182.45H116.64ZM117.24,216.14V223.61M117.24,182.45V178.68M116.94,223.61H117.54M116.94,178.68H117.54" style="vector-effect: non-scaling-stroke; stroke-width: 2px; stroke: rgb(25, 211, 243); stroke-opacity: 1; fill: rgb(25, 211, 243); fill-opacity: 0.5;"/><g class="points"/></g><g class="trace boxes" style="opacity: 1;"><path class="box" d="M167.12,193.11H168.32M167.12,255.99H168.32V117.35H167.12ZM167.72,255.99V393.46M167.72,117.35V30.8M167.42,393.46H168.02M167.42,30.8H168.02" style="vector-effect: non-scaling-stroke; stroke-width: 2px; stroke: rgb(255, 102, 146); stroke-opacity: 1; fill: rgb(255, 102, 146); fill-opacity: 0.5;"/><g class="points"/></g><g class="trace boxes" style="opacity: 1;"><path class="box" d="M217.6,281.79H218.79M217.6,296.96H218.79V226.77H217.6ZM218.19,296.96V395.88M218.19,226.77V134.82M217.9,395.88H218.49M217.9,134.82H218.49" style="vector-effect: non-scaling-stroke; stroke-width: 2px; stroke: rgb(182, 232, 128); stroke-opacity: 1; fill: rgb(182, 232, 128); fill-opacity: 0.5;"/><g class="points"/></g><g class="trace boxes" style="opacity: 1;"><path class="box" d="M268.07,494.1H269.27M268.07,547.93H269.27V452.7H268.07ZM268.67,547.93V585.2M268.67,452.7V395.43M268.37,585.2H268.97M268.37,395.43H268.97" style="vector-effect: non-scaling-stroke; stroke-width: 2px; stroke: rgb(255, 151, 255); stroke-opacity: 1; fill: rgb(255, 151, 255); fill-opacity: 0.5;"/><g class="points"/></g><g class="trace boxes" style="opacity: 1;"><path class="box" d="M318.55,523.23H319.74M318.55,530.12H319.74V506.03H318.55ZM319.15,530.12V550.96M319.15,506.03V491.87M318.85,550.96H319.45M318.85,491.87H319.45" style="vector-effect: non-scaling-stroke; stroke-width: 2px; stroke: rgb(254, 203, 82); stroke-opacity: 1; fill: rgb(254, 203, 82); fill-opacity: 0.5;"/><path class="box" d="M367.32,458.68H368.51M367.32,481.18H368.51V398.46H367.32ZM367.92,481.18V524.82M367.92,398.46V345.65M367.62,524.82H368.21M367.62,345.65H368.21" style="vector-effect: non-scaling-stroke; stroke-width: 2px; stroke: rgb(254, 203, 82); stroke-opacity: 1; fill: rgb(254, 203, 82); fill-opacity: 0.5;"/><g class="points"/><g class="points"/></g><g class="trace boxes" style="opacity: 1;"><path class="box" d="M417.79,364.52H418.99M417.79,370.5H418.99V358.53H417.79ZM418.39,370.5V370.5M418.39,358.53V358.53M418.09,370.5H418.69M418.09,358.53H418.69" style="vector-effect: non-scaling-stroke; stroke-width: 2px; stroke: rgb(99, 110, 250); stroke-opacity: 1; fill: rgb(99, 110, 250); fill-opacity: 0.5;"/><path class="box" d="M466.56,196.71H467.76M466.56,196.71H467.76V196.71H466.56ZM467.16,196.71V196.71M467.16,196.71V196.71M466.86,196.71H467.46M466.86,196.71H467.46" style="vector-effect: non-scaling-stroke; stroke-width: 2px; stroke: rgb(99, 110, 250); stroke-opacity: 1; fill: rgb(99, 110, 250); fill-opacity: 0.5;"/><path class="box" d="M515.33,140.38H516.53M515.33,168.98H516.53V111.79H515.33ZM515.93,168.98V168.98M515.93,111.79V111.79M515.63,168.98H516.23M515.63,111.79H516.23" style="vector-effect: non-scaling-stroke; stroke-width: 2px; stroke: rgb(99, 110, 250); stroke-opacity: 1; fill: rgb(99, 110, 250); fill-opacity: 0.5;"/><g class="points"/><g class="points"/><g class="points"/></g><g class="trace boxes" style="opacity: 1;"><path class="box" d="M419.5,447.09H420.7M419.5,447.09H420.7V447.09H419.5ZM420.1,447.09V447.09M420.1,447.09V447.09M419.8,447.09H420.4M419.8,447.09H420.4" style="vector-effect: non-scaling-stroke; stroke-width: 2px; stroke: rgb(239, 85, 59); stroke-opacity: 1; fill: rgb(239, 85, 59); fill-opacity: 0.5;"/><path class="box" d="M468.27,351.49H469.47M468.27,351.49H469.47V351.49H468.27ZM468.87,351.49V351.49M468.87,351.49V351.49M468.57,351.49H469.17M468.57,351.49H469.17" style="vector-effect: non-scaling-stroke; stroke-width: 2px; stroke: rgb(239, 85, 59); stroke-opacity: 1; fill: rgb(239, 85, 59); fill-opacity: 0.5;"/><g class="points"/><g class="points"/></g><g class="trace boxes" style="opacity: 1;"><path class="box" d="M421.21,414.18H422.4M421.21,414.29H422.4V414.06H421.21ZM421.81,414.29V414.29M421.81,414.06V414.06M421.51,414.29H422.1M421.51,414.06H422.1" style="vector-effect: non-scaling-stroke; stroke-width: 2px; stroke: rgb(0, 204, 150); stroke-opacity: 1; fill: rgb(0, 204, 150); fill-opacity: 0.5;"/><path class="box" d="M469.98,185.35H471.17M469.98,265.14H471.17V148.81H469.98ZM470.58,265.14V364.29M470.58,148.81V104.44M470.28,364.29H470.87M470.28,104.44H470.87" style="vector-effect: non-scaling-stroke; stroke-width: 2px; stroke: rgb(0, 204, 150); stroke-opacity: 1; fill: rgb(0, 204, 150); fill-opacity: 0.5;"/><path class="box" d="M518.75,95.16H519.94M518.75,120.95H519.94V69.36H518.75ZM519.34,120.95V120.95M519.34,69.36V69.36M519.05,120.95H519.64M519.05,69.36H519.64" style="vector-effect: non-scaling-stroke; stroke-width: 2px; stroke: rgb(0, 204, 150); stroke-opacity: 1; fill: rgb(0, 204, 150); fill-opacity: 0.5;"/><g class="points"/><g class="points"/><g class="points"/></g><g class="trace boxes" style="opacity: 1;"><path class="box" d="M422.92,335.73H424.11M422.92,335.73H424.11V335.73H422.92ZM423.51,335.73V335.73M423.51,335.73V335.73M423.21,335.73H423.81M423.21,335.73H423.81" style="vector-effect: non-scaling-stroke; stroke-width: 2px; stroke: rgb(171, 99, 250); stroke-opacity: 1; fill: rgb(171, 99, 250); fill-opacity: 0.5;"/><path class="box" d="M471.68,170.46H472.88M471.68,186.48H472.88V154.44H471.68ZM472.28,186.48V186.48M472.28,154.44V154.44M471.98,186.48H472.58M471.98,154.44H472.58" style="vector-effect: non-scaling-stroke; stroke-width: 2px; stroke: rgb(171, 99, 250); stroke-opacity: 1; fill: rgb(171, 99, 250); fill-opacity: 0.5;"/><path class="box" d="M520.45,93.45H521.65M520.45,123.68H521.65V63.22H520.45ZM521.05,123.68V123.68M521.05,63.22V63.22M520.75,123.68H521.35M520.75,63.22H521.35" style="vector-effect: non-scaling-stroke; stroke-width: 2px; stroke: rgb(171, 99, 250); stroke-opacity: 1; fill: rgb(171, 99, 250); fill-opacity: 0.5;"/><g class="points"/><g class="points"/><g class="points"/></g><g class="trace boxes" style="opacity: 1;"><path class="box" d="M424.62,281.94H425.82M424.62,281.94H425.82V281.94H424.62ZM425.22,281.94V281.94M425.22,281.94V281.94M424.92,281.94H425.52M424.92,281.94H425.52" style="vector-effect: non-scaling-stroke; stroke-width: 2px; stroke: rgb(255, 161, 90); stroke-opacity: 1; fill: rgb(255, 161, 90); fill-opacity: 0.5;"/><path class="box" d="M473.39,113.45H474.59M473.39,113.45H474.59V113.45H473.39ZM473.99,113.45V113.45M473.99,113.45V113.45M473.69,113.45H474.29M473.69,113.45H474.29" style="vector-effect: non-scaling-stroke; stroke-width: 2px; stroke: rgb(255, 161, 90); stroke-opacity: 1; fill: rgb(255, 161, 90); fill-opacity: 0.5;"/><path class="box" d="M522.16,71.03H523.36M522.16,71.03H523.36V71.03H522.16ZM522.76,71.03V71.03M522.76,71.03V71.03M522.46,71.03H523.06M522.46,71.03H523.06" style="vector-effect: non-scaling-stroke; stroke-width: 2px; stroke: rgb(255, 161, 90); stroke-opacity: 1; fill: rgb(255, 161, 90); fill-opacity: 0.5;"/><g class="points"/><g class="points"/><g class="points"/></g><g class="trace boxes" style="opacity: 1;"><path class="box" d="M426.33,381.41H427.52M426.33,383.46H427.52V379.36H426.33ZM426.93,383.46V383.46M426.93,379.36V379.36M426.63,383.46H427.23M426.63,379.36H427.23" style="vector-effect: non-scaling-stroke; stroke-width: 2px; stroke: rgb(25, 211, 243); stroke-opacity: 1; fill: rgb(25, 211, 243); fill-opacity: 0.5;"/><path class="box" d="M475.1,128.07H476.29M475.1,193.53H476.29V124.27H475.1ZM475.7,193.53V215.35M475.7,124.27V123M475.4,215.35H475.99M475.4,123H475.99" style="vector-effect: non-scaling-stroke; stroke-width: 2px; stroke: rgb(25, 211, 243); stroke-opacity: 1; fill: rgb(25, 211, 243); fill-opacity: 0.5;"/><path class="box" d="M523.87,60.95H525.06M523.87,60.95H525.06V60.95H523.87ZM524.47,60.95V60.95M524.47,60.95V60.95M524.17,60.95H524.76M524.17,60.95H524.76" style="vector-effect: non-scaling-stroke; stroke-width: 2px; stroke: rgb(25, 211, 243); stroke-opacity: 1; fill: rgb(25, 211, 243); fill-opacity: 0.5;"/><g class="points"/><g class="points"/><g class="points"/></g><g class="trace boxes" style="opacity: 1;"><path class="box" d="M428.04,340.5H429.23M428.04,356.94H429.23V324.06H428.04ZM428.63,356.94V356.94M428.63,324.06V324.06M428.33,356.94H428.93M428.33,324.06H428.93" style="vector-effect: non-scaling-stroke; stroke-width: 2px; stroke: rgb(255, 102, 146); stroke-opacity: 1; fill: rgb(255, 102, 146); fill-opacity: 0.5;"/><path class="box" d="M476.81,179.67H478M476.81,183.91H478V175.42H476.81ZM477.4,183.91V183.91M477.4,175.42V175.42M477.1,183.91H477.7M477.1,175.42H477.7" style="vector-effect: non-scaling-stroke; stroke-width: 2px; stroke: rgb(255, 102, 146); stroke-opacity: 1; fill: rgb(255, 102, 146); fill-opacity: 0.5;"/><path class="box" d="M525.57,164.21H526.77M525.57,192.17H526.77V136.26H525.57ZM526.17,192.17V192.17M526.17,136.26V136.26M525.87,192.17H526.47M525.87,136.26H526.47" style="vector-effect: non-scaling-stroke; stroke-width: 2px; stroke: rgb(255, 102, 146); stroke-opacity: 1; fill: rgb(255, 102, 146); fill-opacity: 0.5;"/><g class="points"/><g class="points"/><g class="points"/></g><g class="trace boxes" style="opacity: 1;"><path class="box" d="M429.74,368.91H430.94M429.74,383.97H430.94V363.8H429.74ZM430.34,383.97V388.99M430.34,363.8V362.09M430.04,388.99H430.64M430.04,362.09H430.64" style="vector-effect: non-scaling-stroke; stroke-width: 2px; stroke: rgb(182, 232, 128); stroke-opacity: 1; fill: rgb(182, 232, 128); fill-opacity: 0.5;"/><path class="box" d="M478.51,167.39H479.71M478.51,248.59H479.71V149.68H478.51ZM479.11,248.59V299.52M479.11,149.68V103.76M478.81,299.52H479.41M478.81,103.76H479.41" style="vector-effect: non-scaling-stroke; stroke-width: 2px; stroke: rgb(182, 232, 128); stroke-opacity: 1; fill: rgb(182, 232, 128); fill-opacity: 0.5;"/><path class="box" d="M527.28,142.2H528.48M527.28,182.17H528.48V126.94H527.28ZM527.88,182.17V195.04M527.88,126.94V126.33M527.58,195.04H528.18M527.58,126.33H528.18" style="vector-effect: non-scaling-stroke; stroke-width: 2px; stroke: rgb(182, 232, 128); stroke-opacity: 1; fill: rgb(182, 232, 128); fill-opacity: 0.5;"/><g class="points"/><g class="points"/><g class="points"/></g><g class="trace boxes" style="opacity: 1;"><path class="box" d="M480.22,158.42H481.41M480.22,169.44H481.41V147.39H480.22ZM480.82,169.44V169.44M480.82,147.39V147.39M480.52,169.44H481.12M480.52,147.39H481.12" style="vector-effect: non-scaling-stroke; stroke-width: 2px; stroke: rgb(255, 151, 255); stroke-opacity: 1; fill: rgb(255, 151, 255); fill-opacity: 0.5;"/><path class="box" d="M528.99,158.83H530.18M528.99,158.83H530.18V158.83H528.99ZM529.59,158.83V158.83M529.59,158.83V158.83M529.29,158.83H529.88M529.29,158.83H529.88" style="vector-effect: non-scaling-stroke; stroke-width: 2px; stroke: rgb(255, 151, 255); stroke-opacity: 1; fill: rgb(255, 151, 255); fill-opacity: 0.5;"/><g class="points"/><g class="points"/></g><g class="trace boxes" style="opacity: 1;"><path class="box" d="M579.46,229.36H580.66M579.46,240.82H580.66V217.71H579.46ZM580.06,240.82V245.73M580.06,217.71V195.12M579.76,245.73H580.36M579.76,195.12H580.36" style="vector-effect: non-scaling-stroke; stroke-width: 2px; stroke: rgb(254, 203, 82); stroke-opacity: 1; fill: rgb(254, 203, 82); fill-opacity: 0.5;"/><path class="box" d="M628.23,312.76H629.43M628.23,313.76H629.43V309.59H628.23ZM628.83,313.76V313.76M628.83,309.59V309.59M628.53,313.76H629.13M628.53,309.59H629.13" style="vector-effect: non-scaling-stroke; stroke-width: 2px; stroke: rgb(254, 203, 82); stroke-opacity: 1; fill: rgb(254, 203, 82); fill-opacity: 0.5;"/><g class="points"><path class="point" transform="translate(580.06,172.92)" d="M3,0A3,3 0 1,1 0,-3A3,3 0 0,1 3,0Z" style="opacity: 1; stroke-width: 0px; fill: rgb(254, 203, 82); fill-opacity: 1;"/></g><g class="points"><path class="point" transform="translate(628.83,328.83)" d="M3,0A3,3 0 1,1 0,-3A3,3 0 0,1 3,0Z" style="opacity: 1; stroke-width: 0px; fill: rgb(254, 203, 82); fill-opacity: 1;"/><path class="point" transform="translate(628.83,292.77)" d="M3,0A3,3 0 1,1 0,-3A3,3 0 0,1 3,0Z" style="opacity: 1; stroke-width: 0px; fill: rgb(254, 203, 82); fill-opacity: 1;"/></g></g></g></g><g class="overplot"/><path class="xlines-above crisp" d="M0,0" style="fill: none;"/><path class="ylines-above crisp" d="M0,0" style="fill: none;"/><g class="overlines-above"/><g class="xaxislayer-above"><g class="xtick"><text text-anchor="start" x="0" y="689" transform="translate(107.38,0) rotate(30,0,683)" style="font-family: 'Open Sans', verdana, arial, sans-serif; font-size: 12px; fill: rgb(42, 63, 95); fill-opacity: 1; white-space: pre; opacity: 1;">upper_continental_crust</text></g><g class="xtick"><text text-anchor="start" x="0" y="689" transform="translate(156.15,0) rotate(30,0,683)" style="font-family: 'Open Sans', verdana, arial, sans-serif; font-size: 12px; fill: rgb(42, 63, 95); fill-opacity: 1; white-space: pre; opacity: 1;">igneous_composite</text></g><g class="xtick"><text text-anchor="start" x="0" y="689" transform="translate(204.92000000000002,0) rotate(30,0,683)" style="font-family: 'Open Sans', verdana, arial, sans-serif; font-size: 12px; fill: rgb(42, 63, 95); fill-opacity: 1; white-space: pre; opacity: 1;">shale_composite</text></g><g class="xtick"><text text-anchor="start" x="0" y="689" transform="translate(253.69,0) rotate(30,0,683)" style="font-family: 'Open Sans', verdana, arial, sans-serif; font-size: 12px; fill: rgb(42, 63, 95); fill-opacity: 1; white-space: pre; opacity: 1;">river_sediment</text></g><g class="xtick"><text text-anchor="start" x="0" y="689" transform="translate(302.46000000000004,0) rotate(30,0,683)" style="font-family: 'Open Sans', verdana, arial, sans-serif; font-size: 12px; fill: rgb(42, 63, 95); fill-opacity: 1; white-space: pre; opacity: 1;">region</text></g><g class="xtick"><text text-anchor="start" x="0" y="689" transform="translate(351.23,0) rotate(30,0,683)" style="font-family: 'Open Sans', verdana, arial, sans-serif; font-size: 12px; fill: rgb(42, 63, 95); fill-opacity: 1; white-space: pre; opacity: 1;">Manasbal_Lake</text></g><g class="xtick"><text text-anchor="start" x="0" y="689" transform="translate(400,0) rotate(30,0,683)" style="font-family: 'Open Sans', verdana, arial, sans-serif; font-size: 12px; fill: rgb(42, 63, 95); fill-opacity: 1; white-space: pre; opacity: 1;">Surma_Group</text></g><g class="xtick"><text text-anchor="start" x="0" y="689" transform="translate(448.77,0) rotate(30,0,683)" style="font-family: 'Open Sans', verdana, arial, sans-serif; font-size: 12px; fill: rgb(42, 63, 95); fill-opacity: 1; white-space: pre; opacity: 1;">Barail_Group</text></g><g class="xtick"><text text-anchor="start" x="0" y="689" transform="translate(497.54,0) rotate(30,0,683)" style="font-family: 'Open Sans', verdana, arial, sans-serif; font-size: 12px; fill: rgb(42, 63, 95); fill-opacity: 1; white-space: pre; opacity: 1;">channel_sediments</text></g><g class="xtick"><text text-anchor="start" x="0" y="689" transform="translate(546.31,0) rotate(30,0,683)" style="font-family: 'Open Sans', verdana, arial, sans-serif; font-size: 12px; fill: rgb(42, 63, 95); fill-opacity: 1; white-space: pre; opacity: 1;">overbank_sediments</text></g><g class="xtick"><text text-anchor="start" x="0" y="689" transform="translate(595.08,0) rotate(30,0,683)" style="font-family: 'Open Sans', verdana, arial, sans-serif; font-size: 12px; fill: rgb(42, 63, 95); fill-opacity: 1; white-space: pre; opacity: 1;">suspended_sediments</text></g><g class="xtick"><text text-anchor="start" x="0" y="689" transform="translate(643.85,0) rotate(30,0,683)" style="font-family: 'Open Sans', verdana, arial, sans-serif; font-size: 12px; fill: rgb(42, 63, 95); fill-opacity: 1; white-space: pre; opacity: 1;">Silty_clay</text></g><g class="xtick"><text text-anchor="start" x="0" y="689" transform="translate(692.62,0) rotate(30,0,683)" style="font-family: 'Open Sans', verdana, arial, sans-serif; font-size: 12px; fill: rgb(42, 63, 95); fill-opacity: 1; white-space: pre; opacity: 1;">Sand</text></g></g><g class="yaxislayer-above"><g class="ytick"><text text-anchor="end" x="79" y="4.199999999999999" transform="translate(0,610.28)" style="font-family: 'Open Sans', verdana, arial, sans-serif; font-size: 12px; fill: rgb(42, 63, 95); fill-opacity: 1; white-space: pre; opacity: 1;">30</text></g><g class="ytick"><text text-anchor="end" x="79" y="4.199999999999999" style="font-family: 'Open Sans', verdana, arial, sans-serif; font-size: 12px; fill: rgb(42, 63, 95); fill-opacity: 1; white-space: pre; opacity: 1;" transform="translate(0,534.52)">40</text></g><g class="ytick"><text text-anchor="end" x="79" y="4.199999999999999" style="font-family: 'Open Sans', verdana, arial, sans-serif; font-size: 12px; fill: rgb(42, 63, 95); fill-opacity: 1; white-space: pre; opacity: 1;" transform="translate(0,458.76)">50</text></g><g class="ytick"><text text-anchor="end" x="79" y="4.199999999999999" style="font-family: 'Open Sans', verdana, arial, sans-serif; font-size: 12px; fill: rgb(42, 63, 95); fill-opacity: 1; white-space: pre; opacity: 1;" transform="translate(0,383)">60</text></g><g class="ytick"><text text-anchor="end" x="79" y="4.199999999999999" style="font-family: 'Open Sans', verdana, arial, sans-serif; font-size: 12px; fill: rgb(42, 63, 95); fill-opacity: 1; white-space: pre; opacity: 1;" transform="translate(0,307.24)">70</text></g><g class="ytick"><text text-anchor="end" x="79" y="4.199999999999999" style="font-family: 'Open Sans', verdana, arial, sans-serif; font-size: 12px; fill: rgb(42, 63, 95); fill-opacity: 1; white-space: pre; opacity: 1;" transform="translate(0,231.48)">80</text></g><g class="ytick"><text text-anchor="end" x="79" y="4.199999999999999" style="font-family: 'Open Sans', verdana, arial, sans-serif; font-size: 12px; fill: rgb(42, 63, 95); fill-opacity: 1; white-space: pre; opacity: 1;" transform="translate(0,155.72)">90</text></g><g class="ytick"><text text-anchor="end" x="79" y="4.199999999999999" style="font-family: 'Open Sans', verdana, arial, sans-serif; font-size: 12px; fill: rgb(42, 63, 95); fill-opacity: 1; white-space: pre; opacity: 1;" transform="translate(0,79.97)">100</text></g></g><g class="overaxes-above"/></g></g><g class="polarlayer"/><g class="ternarylayer"/><g class="geolayer"/><g class="funnelarealayer"/><g class="pielayer"/><g class="iciclelayer"/><g class="treemaplayer"/><g class="sunburstlayer"/><g class="glimages"/><defs id="topdefs-0e814e"><g class="clips"/></defs><g class="layer-above"><g class="imagelayer"/><g class="shapelayer"/></g><g class="infolayer"><g class="g-gtitle"/><g class="g-xtitle"><text class="xtitle" x="400" y="788.4857452392578" text-anchor="middle" style="font-family: 'Open Sans', verdana, arial, sans-serif; font-size: 14px; fill: rgb(42, 63, 95); opacity: 1; font-weight: normal; white-space: pre;">sample subcategory</text></g><g class="g-ytitle"><text class="ytitle" transform="rotate(-90,31.309375000000003,368)" x="31.309375000000003" y="368" text-anchor="middle" style="font-family: 'Open Sans', verdana, arial, sans-serif; font-size: 14px; fill: rgb(42, 63, 95); opacity: 1; font-weight: normal; white-space: pre;">PIA</text></g></g></svg>