<svg class="main-svg" xmlns="http://www.w3.org/2000/svg" xmlns:xlink="http://www.w3.org/1999/xlink" width="800" height="800" style="" viewBox="0 0 800 800"><rect x="0" y="0" width="800" height="800" style="fill: rgb(255, 255, 255); fill-opacity: 1;"/><defs id="defs-90c690"><g class="clips"><clipPath id="clip90c690ternary"><path d="M80,602.6092366290798h491l-245.5,-425.2184732581594Z"/></clipPath><clipPath id="clip-relative90c690ternary"><path d="M0,425.2184732581594h491l-245.5,-425.2184732581594Z"/></clipPath></g><g class="gradients"/><g class="patterns"/></defs><g class="bglayer"/><g class="layer-below"><g class="imagelayer"/><g class="shapelayer"/></g><g class="cartesianlayer"/><g class="polarlayer"/><g class="ternarylayer"><g class="ternary"><g class="toplevel draglayer"/><g class="toplevel plotbg"><path d="M80,602.6092366290798h491l-245.5,-425.2184732581594Z" style="fill: rgb(255, 255, 0); fill-opacity: 1;"/></g><g class="toplevel backplot" clip-path="url(#clip90c690ternary)"><g class="maplayer" transform="translate(80,177.3907633709203)"/></g><g class="toplevel grids" clip-path="url(#clip90c690ternary)"><g class="grid agrid" transform="translate(325.5,177.3907633709203)rotate(30)translate(0,-111.6092366290797)"><path class="ygrid" transform="translate(0,504.4092366290797)" d="M0,0l425.2184732581594,-245.5" style="stroke: rgb(255, 255, 255); stroke-opacity: 1; stroke-width: 1px;"/><path class="ygrid" transform="translate(0,406.2092366290797)" d="M0,0l425.2184732581594,-245.5" style="stroke: rgb(255, 255, 255); stroke-opacity: 1; stroke-width: 1px;"/><path class="ygrid" transform="translate(0,308.00923662907974)" d="M0,0l425.2184732581594,-245.5" style="stroke: rgb(255, 255, 255); stroke-opacity: 1; stroke-width: 1px;"/><path class="ygrid" transform="translate(0,209.8092366290797)" d="M0,0l425.2184732581594,-245.5" style="stroke: rgb(255, 255, 255); stroke-opacity: 1; stroke-width: 1px;"/></g><g class="grid bgrid" transform="translate(0,602.6092366290798)"><path class="xgrid" transform="translate(178.2,0)" d="M0,0l-245.5,-425.2184732581594" style="stroke: rgb(255, 255, 255); stroke-opacity: 1; stroke-width: 1px;"/><path class="xgrid" transform="translate(276.4,0)" d="M0,0l-245.5,-425.2184732581594" style="stroke: rgb(255, 255, 255); stroke-opacity: 1; stroke-width: 1px;"/><path class="xgrid" transform="translate(374.6,0)" d="M0,0l-245.5,-425.2184732581594" style="stroke: rgb(255, 255, 255); stroke-opacity: 1; stroke-width: 1px;"/><path class="xgrid" transform="translate(472.8,0)" d="M0,0l-245.5,-425.2184732581594" style="stroke: rgb(255, 255, 255); stroke-opacity: 1; stroke-width: 1px;"/></g><g class="grid cgrid" transform="translate(325.5,177.3907633709203)rotate(-30)translate(0,-111.6092366290797)"><path class="ygrid" transform="translate(0,504.4092366290797)" d="M0,0l-425.2184732581594,245.5" style="stroke: rgb(255, 255, 255); stroke-opacity: 1; stroke-width: 1px;"/><path class="ygrid" transform="translate(0,406.2092366290797)" d="M0,0l-425.2184732581594,245.5" style="stroke: rgb(255, 255, 255); stroke-opacity: 1; stroke-width: 1px;"/><path class="ygrid" transform="translate(0,308.00923662907974)" d="M0,0l-425.2184732581594,245.5" style="stroke: rgb(255, 255, 255); stroke-opacity: 1; stroke-width: 1px;"/><path class="ygrid" transform="translate(0,209.8092366290797)" d="M0,0l-425.2184732581594,245.5" style="stroke: rgb(255, 255, 255); stroke-opacity: 1; stroke-width: 1px;"/></g></g><g class="toplevel frontplot" clip-path="url(#clip90c690ternary)"><g class="scatterlayer" transform="translate(80,177.3907633709203)"><g class="trace scatter trace6e3ff3" style="stroke-miterlimit: 2; opacity: 1;"><g class="fills"/><g class="errorbars"/><g class="lines"/><g class="points"><path class="point" transform="translate(186.88,250.53)" d="M6,0A6,6 0 1,1 0,-6A6,6 0 0,1 6,0Z" style="opacity: 1; stroke-width: 2px; fill: rgb(133, 92, 117); fill-opacity: 1; stroke: rgb(47, 79, 79); stroke-opacity: 1;"/></g><g class="text"/></g><g class="trace scatter trace19011a" style="stroke-miterlimit: 2; opacity: 1;"><g class="fills"/><g class="errorbars"/><g class="lines"/><g class="points"><path class="point" transform="translate(182.18,247.19)" d="M7.8,0L0,7.8L-7.8,0L0,-7.8Z" style="opacity: 1; stroke-width: 2px; fill: rgb(133, 92, 117); fill-opacity: 1; stroke: rgb(47, 79, 79); stroke-opacity: 1;"/></g><g class="text"/></g><g class="trace scatter trace746d3e" style="stroke-miterlimit: 2; opacity: 1;"><g class="fills"/><g class="errorbars"/><g class="lines"/><g class="points"><path class="point" transform="translate(217.7,241.65)" d="M6,6H-6V-6H6Z" style="opacity: 1; stroke-width: 2px; fill: rgb(133, 92, 117); fill-opacity: 1; stroke: rgb(47, 79, 79); stroke-opacity: 1;"/></g><g class="text"/></g><g class="trace scatter traceb563ff" style="stroke-miterlimit: 2; opacity: 1;"><g class="fills"/><g class="errorbars"/><g class="lines"/><g class="points"><path class="point" transform="translate(209.87,247.35)" d="M0,3.39l3.39,3.39l3.39,-3.39l-3.39,-3.39l3.39,-3.39l-3.39,-3.39l-3.39,3.39l-3.39,-3.39l-3.39,3.39l3.39,3.39l-3.39,3.39l3.39,3.39Z" style="opacity: 1; stroke-width: 2px; fill: rgb(133, 92, 117); fill-opacity: 1; stroke: rgb(47, 79, 79); stroke-opacity: 1;"/></g><g class="text"/></g><g class="trace scatter trace0a0f26" style="stroke-miterlimit: 2; opacity: 1;"><g class="fills"/><g class="errorbars"/><g class="lines"/><g class="points"><path class="point" transform="translate(179.28,254.96)" d="M7.2,2.4H2.4V7.2H-2.4V2.4H-7.2V-2.4H-2.4V-7.2H2.4V-2.4H7.2Z" style="opacity: 1; stroke-width: 2px; fill: rgb(133, 92, 117); fill-opacity: 1; stroke: rgb(47, 79, 79); stroke-opacity: 1;"/></g><g class="text"/></g><g class="trace scatter traced06e2d" style="stroke-miterlimit: 2; opacity: 1;"><g class="fills"/><g class="errorbars"/><g class="lines"/><g class="points"><path class="point" transform="translate(186.88,250.53)" d="M6,0A6,6 0 1,1 0,-6A6,6 0 0,1 6,0Z" style="opacity: 1; stroke-width: 2px; fill: rgb(133, 92, 117); fill-opacity: 1; stroke: rgb(47, 79, 79); stroke-opacity: 1;"/></g><g class="text"/></g><g class="trace scatter tracea4a260" style="stroke-miterlimit: 2; opacity: 1;"><g class="fills"/><g class="errorbars"/><g class="lines"/><g class="points"><path class="point" transform="translate(198.99,243.99)" d="M7.8,0L0,7.8L-7.8,0L0,-7.8Z" style="opacity: 1; stroke-width: 2px; fill: rgb(133, 92, 117); fill-opacity: 1; stroke: rgb(47, 79, 79); stroke-opacity: 1;"/></g><g class="text"/></g><g class="trace scatter tracedb428b" style="stroke-miterlimit: 2; opacity: 1;"><g class="fills"/><g class="errorbars"/><g class="lines"/><g class="points"><path class="point" transform="translate(212.19,237.84)" d="M6,6H-6V-6H6Z" style="opacity: 1; stroke-width: 2px; fill: rgb(133, 92, 117); fill-opacity: 1; stroke: rgb(47, 79, 79); stroke-opacity: 1;"/></g><g class="text"/></g><g class="trace scatter tracee079a5" style="stroke-miterlimit: 2; opacity: 1;"><g class="fills"/><g class="errorbars"/><g class="lines"/><g class="points"><path class="point" transform="translate(206.34,331.34)" d="M0,3.39l3.39,3.39l3.39,-3.39l-3.39,-3.39l3.39,-3.39l-3.39,-3.39l-3.39,3.39l-3.39,-3.39l-3.39,3.39l3.39,3.39l-3.39,3.39l3.39,3.39Z" style="opacity: 1; stroke-width: 2px; fill: rgb(217, 175, 107); fill-opacity: 1; stroke: rgb(47, 79, 79); stroke-opacity: 1;"/></g><g class="text"/></g><g class="trace scatter traceaa289e" style="stroke-miterlimit: 2; opacity: 1;"><g class="fills"/><g class="errorbars"/><g class="lines"/><g class="points"><path class="point" transform="translate(238.3,330.09)" d="M7.2,2.4H2.4V7.2H-2.4V2.4H-7.2V-2.4H-2.4V-7.2H2.4V-2.4H7.2Z" style="opacity: 1; stroke-width: 2px; fill: rgb(217, 175, 107); fill-opacity: 1; stroke: rgb(47, 79, 79); stroke-opacity: 1;"/></g><g class="text"/></g><g class="trace scatter trace4d8d71" style="stroke-miterlimit: 2; opacity: 1;"><g class="fills"/><g class="errorbars"/><g class="lines"/><g class="points"><path class="point" transform="translate(145.81,286.5)" d="M6,0A6,6 0 1,1 0,-6A6,6 0 0,1 6,0Z" style="opacity: 1; stroke-width: 2px; fill: rgb(217, 175, 107); fill-opacity: 1; stroke: rgb(47, 79, 79); stroke-opacity: 1;"/></g><g class="text"/></g><g class="trace scatter trace5e902b" style="stroke-miterlimit: 2; opacity: 1;"><g class="fills"/><g class="errorbars"/><g class="lines"/><g class="points"><path class="point" transform="translate(113.91,285.47)" d="M7.8,0L0,7.8L-7.8,0L0,-7.8Z" style="opacity: 1; stroke-width: 2px; fill: rgb(217, 175, 107); fill-opacity: 1; stroke: rgb(47, 79, 79); stroke-opacity: 1;"/></g><g class="text"/></g><g class="trace scatter trace614957" style="stroke-miterlimit: 2; opacity: 1;"><g class="fills"/><g class="errorbars"/><g class="lines"/><g class="points"><path class="point" transform="translate(131.98,272.1)" d="M6,6H-6V-6H6Z" style="opacity: 1; stroke-width: 2px; fill: rgb(217, 175, 107); fill-opacity: 1; stroke: rgb(47, 79, 79); stroke-opacity: 1;"/></g><g class="text"/></g><g class="trace scatter trace35cde1" style="stroke-miterlimit: 2; opacity: 1;"><g class="fills"/><g class="errorbars"/><g class="lines"/><g class="points"><path class="point" transform="translate(166.45,294.94)" d="M0,3.39l3.39,3.39l3.39,-3.39l-3.39,-3.39l3.39,-3.39l-3.39,-3.39l-3.39,3.39l-3.39,-3.39l-3.39,3.39l3.39,3.39l-3.39,3.39l3.39,3.39Z" style="opacity: 1; stroke-width: 2px; fill: rgb(217, 175, 107); fill-opacity: 1; stroke: rgb(47, 79, 79); stroke-opacity: 1;"/></g><g class="text"/></g><g class="trace scatter traced37f32" style="stroke-miterlimit: 2; opacity: 1;"><g class="fills"/><g class="errorbars"/><g class="lines"/><g class="points"><path class="point" transform="translate(219.13,336.09)" d="M7.2,2.4H2.4V7.2H-2.4V2.4H-7.2V-2.4H-2.4V-7.2H2.4V-2.4H7.2Z" style="opacity: 1; stroke-width: 2px; fill: rgb(217, 175, 107); fill-opacity: 1; stroke: rgb(47, 79, 79); stroke-opacity: 1;"/></g><g class="text"/></g><g class="trace scatter tracec45d59" style="stroke-miterlimit: 2; opacity: 1;"><g class="fills"/><g class="errorbars"/><g class="lines"/><g class="points"><path class="point" transform="translate(145.9,298.33)" d="M6,0A6,6 0 1,1 0,-6A6,6 0 0,1 6,0Z" style="opacity: 1; stroke-width: 2px; fill: rgb(217, 175, 107); fill-opacity: 1; stroke: rgb(47, 79, 79); stroke-opacity: 1;"/></g><g class="text"/></g><g class="trace scatter trace2eca65" style="stroke-miterlimit: 2; opacity: 1;"><g class="fills"/><g class="errorbars"/><g class="lines"/><g class="points"><path class="point" transform="translate(117.47,292.16)" d="M7.8,0L0,7.8L-7.8,0L0,-7.8Z" style="opacity: 1; stroke-width: 2px; fill: rgb(217, 175, 107); fill-opacity: 1; stroke: rgb(47, 79, 79); stroke-opacity: 1;"/></g><g class="text"/></g><g class="trace scatter trace58b926" style="stroke-miterlimit: 2; opacity: 1;"><g class="fills"/><g class="errorbars"/><g class="lines"/><g class="points"><path class="point" transform="translate(117.57,287.59)" d="M6,6H-6V-6H6Z" style="opacity: 1; stroke-width: 2px; fill: rgb(217, 175, 107); fill-opacity: 1; stroke: rgb(47, 79, 79); stroke-opacity: 1;"/></g><g class="text"/></g><g class="trace scatter traceb3fb5b" style="stroke-miterlimit: 2; opacity: 1;"><g class="fills"/><g class="errorbars"/><g class="lines"/><g class="points"><path class="point" transform="translate(143.18,232.27)" d="M0,3.39l3.39,3.39l3.39,-3.39l-3.39,-3.39l3.39,-3.39l-3.39,-3.39l-3.39,3.39l-3.39,-3.39l-3.39,3.39l3.39,3.39l-3.39,3.39l3.39,3.39Z" style="opacity: 1; stroke-width: 2px; fill: rgb(175, 100, 88); fill-opacity: 1; stroke: rgb(47, 79, 79); stroke-opacity: 1;"/></g><g class="text"/></g><g class="trace scatter traceb93276" style="stroke-miterlimit: 2; opacity: 1;"><g class="fills"/><g class="errorbars"/><g class="lines"/><g class="points"><path class="point" transform="translate(148.78,218.77)" d="M7.2,2.4H2.4V7.2H-2.4V2.4H-7.2V-2.4H-2.4V-7.2H2.4V-2.4H7.2Z" style="opacity: 1; stroke-width: 2px; fill: rgb(175, 100, 88); fill-opacity: 1; stroke: rgb(47, 79, 79); stroke-opacity: 1;"/></g><g class="text"/></g><g class="trace scatter trace4988db" style="stroke-miterlimit: 2; opacity: 1;"><g class="fills"/><g class="errorbars"/><g class="lines"/><g class="points"><path class="point" transform="translate(180.7,308.42)" d="M6,0A6,6 0 1,1 0,-6A6,6 0 0,1 6,0Z" style="opacity: 1; stroke-width: 2px; fill: rgb(175, 100, 88); fill-opacity: 1; stroke: rgb(47, 79, 79); stroke-opacity: 1;"/></g><g class="text"/></g><g class="trace scatter traceb81a2d" style="stroke-miterlimit: 2; opacity: 1;"><g class="fills"/><g class="errorbars"/><g class="lines"/><g class="points"><path class="point" transform="translate(133.19,255.49)" d="M7.8,0L0,7.8L-7.8,0L0,-7.8Z" style="opacity: 1; stroke-width: 2px; fill: rgb(175, 100, 88); fill-opacity: 1; stroke: rgb(47, 79, 79); stroke-opacity: 1;"/></g><g class="text"/></g><g class="trace scatter trace1ae01c" style="stroke-miterlimit: 2; opacity: 1;"><g class="fills"/><g class="errorbars"/><g class="lines"/><g class="points"><path class="point" transform="translate(175.61,274.29)" d="M6,6H-6V-6H6Z" style="opacity: 1; stroke-width: 2px; fill: rgb(175, 100, 88); fill-opacity: 1; stroke: rgb(47, 79, 79); stroke-opacity: 1;"/></g><g class="text"/></g><g class="trace scatter trace6f4b24" style="stroke-miterlimit: 2; opacity: 1;"><g class="fills"/><g class="errorbars"/><g class="lines"/><g class="points"><path class="point" transform="translate(137.61,275.36)" d="M0,3.39l3.39,3.39l3.39,-3.39l-3.39,-3.39l3.39,-3.39l-3.39,-3.39l-3.39,3.39l-3.39,-3.39l-3.39,3.39l3.39,3.39l-3.39,3.39l3.39,3.39Z" style="opacity: 1; stroke-width: 2px; fill: rgb(175, 100, 88); fill-opacity: 1; stroke: rgb(47, 79, 79); stroke-opacity: 1;"/></g><g class="text"/></g><g class="trace scatter trace3fbcd2" style="stroke-miterlimit: 2; opacity: 1;"><g class="fills"/><g class="errorbars"/><g class="lines"/><g class="points"><path class="point" transform="translate(162.02,204.41)" d="M7.2,2.4H2.4V7.2H-2.4V2.4H-7.2V-2.4H-2.4V-7.2H2.4V-2.4H7.2Z" style="opacity: 1; stroke-width: 2px; fill: rgb(175, 100, 88); fill-opacity: 1; stroke: rgb(47, 79, 79); stroke-opacity: 1;"/></g><g class="text"/></g><g class="trace scatter trace8743af" style="stroke-miterlimit: 2; opacity: 1;"><g class="fills"/><g class="errorbars"/><g class="lines"/><g class="points"><path class="point" transform="translate(152.1,271.33)" d="M6,0A6,6 0 1,1 0,-6A6,6 0 0,1 6,0Z" style="opacity: 1; stroke-width: 2px; fill: rgb(175, 100, 88); fill-opacity: 1; stroke: rgb(47, 79, 79); stroke-opacity: 1;"/></g><g class="text"/></g></g></g><g class="toplevel aaxis" transform="translate(325.5,177.3907633709203)rotate(30)translate(0,-111.6092366290797)"><g class="ytick"><text text-anchor="end" x="-2.9000000000000004" y="4.199999999999999" transform="translate(0,602.6092366290798) rotate(-30,-2.9000000000000004,-1.8000000000000007)" style="font-family: 'Open Sans', verdana, arial, sans-serif; font-size: 12px; fill: rgb(42, 63, 95); fill-opacity: 1; white-space: pre; opacity: 1;">0</text></g><g class="ytick"><text text-anchor="end" x="-2.9000000000000004" y="4.199999999999999" transform="translate(0,504.4092366290797) rotate(-30,-2.9000000000000004,-1.8000000000000007)" style="font-family: 'Open Sans', verdana, arial, sans-serif; font-size: 12px; fill: rgb(42, 63, 95); fill-opacity: 1; white-space: pre; opacity: 1;">20</text></g><g class="ytick"><text text-anchor="end" x="-2.9000000000000004" y="4.199999999999999" transform="translate(0,406.2092366290797) rotate(-30,-2.9000000000000004,-1.8000000000000007)" style="font-family: 'Open Sans', verdana, arial, sans-serif; font-size: 12px; fill: rgb(42, 63, 95); fill-opacity: 1; white-space: pre; opacity: 1;">40</text></g><g class="ytick"><text text-anchor="end" x="-2.9000000000000004" y="4.199999999999999" transform="translate(0,308.00923662907974) rotate(-30,-2.9000000000000004,-1.8000000000000007)" style="font-family: 'Open Sans', verdana, arial, sans-serif; font-size: 12px; fill: rgb(42, 63, 95); fill-opacity: 1; white-space: pre; opacity: 1;">60</text></g><g class="ytick"><text text-anchor="end" x="-2.9000000000000004" y="4.199999999999999" transform="translate(0,209.8092366290797) rotate(-30,-2.9000000000000004,-1.8000000000000007)" style="font-family: 'Open Sans', verdana, arial, sans-serif; font-size: 12px; fill: rgb(42, 63, 95); fill-opacity: 1; white-space: pre; opacity: 1;">80</text></g><g class="ytick"><text text-anchor="end" x="-2.9000000000000004" y="4.199999999999999" transform="translate(0,111.6092366290797) rotate(-30,-2.9000000000000004,-1.8000000000000007)" style="font-family: 'Open Sans', verdana, arial, sans-serif; font-size: 12px; fill: rgb(42, 63, 95); fill-opacity: 1; white-space: pre; opacity: 1;">100</text></g></g><g class="toplevel aline"><path d="M80,602.6092366290798l245.5,-425.2184732581594" style="stroke: rgb(255, 255, 255); stroke-opacity: 1; stroke-width: 1px;"/></g><g class="toplevel baxis" transform="translate(0,602.6092366290798)"><g class="xtick"><text text-anchor="middle" x="0" y="14.9" transform="translate(80,0)" style="font-family: 'Open Sans', verdana, arial, sans-serif; font-size: 12px; fill: rgb(42, 63, 95); fill-opacity: 1; white-space: pre; opacity: 1;">100</text></g><g class="xtick"><text text-anchor="middle" x="0" y="14.9" transform="translate(178.2,0)" style="font-family: 'Open Sans', verdana, arial, sans-serif; font-size: 12px; fill: rgb(42, 63, 95); fill-opacity: 1; white-space: pre; opacity: 1;">80</text></g><g class="xtick"><text text-anchor="middle" x="0" y="14.9" transform="translate(276.4,0)" style="font-family: 'Open Sans', verdana, arial, sans-serif; font-size: 12px; fill: rgb(42, 63, 95); fill-opacity: 1; white-space: pre; opacity: 1;">60</text></g><g class="xtick"><text text-anchor="middle" x="0" y="14.9" transform="translate(374.6,0)" style="font-family: 'Open Sans', verdana, arial, sans-serif; font-size: 12px; fill: rgb(42, 63, 95); fill-opacity: 1; white-space: pre; opacity: 1;">40</text></g><g class="xtick"><text text-anchor="middle" x="0" y="14.9" transform="translate(472.8,0)" style="font-family: 'Open Sans', verdana, arial, sans-serif; font-size: 12px; fill: rgb(42, 63, 95); fill-opacity: 1; white-space: pre; opacity: 1;">20</text></g><g class="xtick"><text text-anchor="middle" x="0" y="14.9" transform="translate(571,0)" style="font-family: 'Open Sans', verdana, arial, sans-serif; font-size: 12px; fill: rgb(42, 63, 95); fill-opacity: 1; white-space: pre; opacity: 1;">0</text></g></g><g class="toplevel bline"><path d="M80,602.6092366290798h491" style="stroke: rgb(255, 255, 255); stroke-opacity: 1; stroke-width: 1px;"/></g><g class="toplevel caxis" transform="translate(325.5,177.3907633709203)rotate(-30)translate(0,-111.6092366290797)"><g class="ytick"><text text-anchor="start" x="2.9000000000000004" y="4.199999999999999" transform="translate(0,602.6092366290798) rotate(30,2.9000000000000004,-1.8000000000000007)" style="font-family: 'Open Sans', verdana, arial, sans-serif; font-size: 12px; fill: rgb(42, 63, 95); fill-opacity: 1; white-space: pre; opacity: 1;">100</text></g><g class="ytick"><text text-anchor="start" x="2.9000000000000004" y="4.199999999999999" transform="translate(0,504.4092366290797) rotate(30,2.9000000000000004,-1.8000000000000007)" style="font-family: 'Open Sans', verdana, arial, sans-serif; font-size: 12px; fill: rgb(42, 63, 95); fill-opacity: 1; white-space: pre; opacity: 1;">80</text></g><g class="ytick"><text text-anchor="start" x="2.9000000000000004" y="4.199999999999999" transform="translate(0,406.2092366290797) rotate(30,2.9000000000000004,-1.8000000000000007)" style="font-family: 'Open Sans', verdana, arial, sans-serif; font-size: 12px; fill: rgb(42, 63, 95); fill-opacity: 1; white-space: pre; opacity: 1;">60</text></g><g class="ytick"><text text-anchor="start" x="2.9000000000000004" y="4.199999999999999" transform="translate(0,308.00923662907974) rotate(30,2.9000000000000004,-1.8000000000000007)" style="font-family: 'Open Sans', verdana, arial, sans-serif; font-size: 12px; fill: rgb(42, 63, 95); fill-opacity: 1; white-space: pre; opacity: 1;">40</text></g><g class="ytick"><text text-anchor="start" x="2.9000000000000004" y="4.199999999999999" transform="translate(0,209.8092366290797) rotate(30,2.9000000000000004,-1.8000000000000007)" style="font-family: 'Open Sans', verdana, arial, sans-serif; font-size: 12px; fill: rgb(42, 63, 95); fill-opacity: 1; white-space: pre; opacity: 1;">20</text></g><g class="ytick"><text text-anchor="start" x="2.9000000000000004" y="4.199999999999999" transform="translate(0,111.6092366290797) rotate(30,2.9000000000000004,-1.8000000000000007)" style="font-family: 'Open Sans', verdana, arial, sans-serif; font-size: 12px; fill: rgb(42, 63, 95); fill-opacity: 1; white-space: pre; opacity: 1;">0</text></g></g><g class="toplevel cline"><path d="M325.5,177.3907633709203l245.5,425.2184732581594" style="stroke: rgb(255, 255, 255); stroke-opacity: 1; stroke-width: 1px;"/></g></g></g><g class="geolayer"/><g class="funnelarealayer"/><g class="pielayer"/><g class="iciclelayer"/><g class="treemaplayer"/><g class="sunburstlayer"/><g class="glimages"/><defs id="topdefs-90c690"><g class="clips"/><clipPath id="legend90c690"><rect width="207" height="523" x="0" y="0"/></clipPath></defs><g class="layer-above"><g class="imagelayer"/><g class="shapelayer"/></g><g class="infolayer"><g class="legend" pointer-events="all" transform="translate(580.8199999999999,60)"><rect class="bg" shape-rendering="crispEdges" width="207" height="523" x="0" y="0" style="stroke: rgb(68, 68, 68); stroke-opacity: 1; fill: rgb(255, 255, 255); fill-opacity: 1; stroke-width: 0px;"/><g class="scrollbox" transform="" clip-path="url(#legend90c690)"><text class="legendtitletext" text-anchor="start" x="2" y="18.2" style="font-family: 'Open Sans', verdana, arial, sans-serif; font-size: 14px; fill: rgb(42, 63, 95); fill-opacity: 1; white-space: pre;">subcategory, sample</text><g class="groups" transform=""><g class="traces" transform="translate(0,32.7)" style="opacity: 1;"><text class="legendtext" text-anchor="start" x="40" y="4.680000000000001" style="font-family: 'Open Sans', verdana, arial, sans-serif; font-size: 12px; fill: rgb(42, 63, 95); fill-opacity: 1; white-space: pre;">UCC, UCC-1</text><g class="layers" style="opacity: 1;"><g class="legendfill"/><g class="legendlines"/><g class="legendsymbols"><g class="legendpoints"><path class="scatterpts" transform="translate(20,0)" d="M6,0A6,6 0 1,1 0,-6A6,6 0 0,1 6,0Z" style="opacity: 1; stroke-width: 2px; fill: rgb(133, 92, 117); fill-opacity: 1; stroke: rgb(47, 79, 79); stroke-opacity: 1;"/></g></g></g><rect class="legendtoggle" x="0" y="-9.5" width="201.359375" height="19" style="fill: rgb(0, 0, 0); fill-opacity: 0;"/></g></g><g class="groups" transform=""><g class="traces" transform="translate(0,51.7)" style="opacity: 1;"><text class="legendtext" text-anchor="start" x="40" y="4.680000000000001" style="font-family: 'Open Sans', verdana, arial, sans-serif; font-size: 12px; fill: rgb(42, 63, 95); fill-opacity: 1; white-space: pre;">UCC, UCC-2</text><g class="layers" style="opacity: 1;"><g class="legendfill"/><g class="legendlines"/><g class="legendsymbols"><g class="legendpoints"><path class="scatterpts" transform="translate(20,0)" d="M7.8,0L0,7.8L-7.8,0L0,-7.8Z" style="opacity: 1; stroke-width: 2px; fill: rgb(133, 92, 117); fill-opacity: 1; stroke: rgb(47, 79, 79); stroke-opacity: 1;"/></g></g></g><rect class="legendtoggle" x="0" y="-9.5" width="201.359375" height="19" style="fill: rgb(0, 0, 0); fill-opacity: 0;"/></g></g><g class="groups" transform=""><g class="traces" transform="translate(0,70.7)" style="opacity: 1;"><text class="legendtext" text-anchor="start" x="40" y="4.680000000000001" style="font-family: 'Open Sans', verdana, arial, sans-serif; font-size: 12px; fill: rgb(42, 63, 95); fill-opacity: 1; white-space: pre;">UCC, UCC-3</text><g class="layers" style="opacity: 1;"><g class="legendfill"/><g class="legendlines"/><g class="legendsymbols"><g class="legendpoints"><path class="scatterpts" transform="translate(20,0)" d="M6,6H-6V-6H6Z" style="opacity: 1; stroke-width: 2px; fill: rgb(133, 92, 117); fill-opacity: 1; stroke: rgb(47, 79, 79); stroke-opacity: 1;"/></g></g></g><rect class="legendtoggle" x="0" y="-9.5" width="201.359375" height="19" style="fill: rgb(0, 0, 0); fill-opacity: 0;"/></g></g><g class="groups" transform=""><g class="traces" transform="translate(0,89.7)" style="opacity: 1;"><text class="legendtext" text-anchor="start" x="40" y="4.680000000000001" style="font-family: 'Open Sans', verdana, arial, sans-serif; font-size: 12px; fill: rgb(42, 63, 95); fill-opacity: 1; white-space: pre;">UCC, UCC-4</text><g class="layers" style="opacity: 1;"><g class="legendfill"/><g class="legendlines"/><g class="legendsymbols"><g class="legendpoints"><path class="scatterpts" transform="translate(20,0)" d="M0,3.39l3.39,3.39l3.39,-3.39l-3.39,-3.39l3.39,-3.39l-3.39,-3.39l-3.39,3.39l-3.39,-3.39l-3.39,3.39l3.39,3.39l-3.39,3.39l3.39,3.39Z" style="opacity: 1; stroke-width: 2px; fill: rgb(133, 92, 117); fill-opacity: 1; stroke: rgb(47, 79, 79); stroke-opacity: 1;"/></g></g></g><rect class="legendtoggle" x="0" y="-9.5" width="201.359375" height="19" style="fill: rgb(0, 0, 0); fill-opacity: 0;"/></g></g><g class="groups" transform=""><g class="traces" transform="translate(0,108.7)" style="opacity: 1;"><text class="legendtext" text-anchor="start" x="40" y="4.680000000000001" style="font-family: 'Open Sans', verdana, arial, sans-serif; font-size: 12px; fill: rgb(42, 63, 95); fill-opacity: 1; white-space: pre;">UCC, UCC-5</text><g class="layers" style="opacity: 1;"><g class="legendfill"/><g class="legendlines"/><g class="legendsymbols"><g class="legendpoints"><path class="scatterpts" transform="translate(20,0)" d="M7.2,2.4H2.4V7.2H-2.4V2.4H-7.2V-2.4H-2.4V-7.2H2.4V-2.4H7.2Z" style="opacity: 1; stroke-width: 2px; fill: rgb(133, 92, 117); fill-opacity: 1; stroke: rgb(47, 79, 79); stroke-opacity: 1;"/></g></g></g><rect class="legendtoggle" x="0" y="-9.5" width="201.359375" height="19" style="fill: rgb(0, 0, 0); fill-opacity: 0;"/></g></g><g class="groups" transform=""><g class="traces" transform="translate(0,127.7)" style="opacity: 1;"><text class="legendtext" text-anchor="start" x="40" y="4.680000000000001" style="font-family: 'Open Sans', verdana, arial, sans-serif; font-size: 12px; fill: rgb(42, 63, 95); fill-opacity: 1; white-space: pre;">UCC, UCC-6</text><g class="layers" style="opacity: 1;"><g class="legendfill"/><g class="legendlines"/><g class="legendsymbols"><g class="legendpoints"><path class="scatterpts" transform="translate(20,0)" d="M6,0A6,6 0 1,1 0,-6A6,6 0 0,1 6,0Z" style="opacity: 1; stroke-width: 2px; fill: rgb(133, 92, 117); fill-opacity: 1; stroke: rgb(47, 79, 79); stroke-opacity: 1;"/></g></g></g><rect class="legendtoggle" x="0" y="-9.5" width="201.359375" height="19" style="fill: rgb(0, 0, 0); fill-opacity: 0;"/></g></g><g class="groups" transform=""><g class="traces" transform="translate(0,146.7)" style="opacity: 1;"><text class="legendtext" text-anchor="start" x="40" y="4.680000000000001" style="font-family: 'Open Sans', verdana, arial, sans-serif; font-size: 12px; fill: rgb(42, 63, 95); fill-opacity: 1; white-space: pre;">UCC, UCC-7</text><g class="layers" style="opacity: 1;"><g class="legendfill"/><g class="legendlines"/><g class="legendsymbols"><g class="legendpoints"><path class="scatterpts" transform="translate(20,0)" d="M7.8,0L0,7.8L-7.8,0L0,-7.8Z" style="opacity: 1; stroke-width: 2px; fill: rgb(133, 92, 117); fill-opacity: 1; stroke: rgb(47, 79, 79); stroke-opacity: 1;"/></g></g></g><rect class="legendtoggle" x="0" y="-9.5" width="201.359375" height="19" style="fill: rgb(0, 0, 0); fill-opacity: 0;"/></g></g><g class="groups" transform=""><g class="traces" transform="translate(0,165.7)" style="opacity: 1;"><text class="legendtext" text-anchor="start" x="40" y="4.680000000000001" style="font-family: 'Open Sans', verdana, arial, sans-serif; font-size: 12px; fill: rgb(42, 63, 95); fill-opacity: 1; white-space: pre;">UCC, UCC-8</text><g class="layers" style="opacity: 1;"><g class="legendfill"/><g class="legendlines"/><g class="legendsymbols"><g class="legendpoints"><path class="scatterpts" transform="translate(20,0)" d="M6,6H-6V-6H6Z" style="opacity: 1; stroke-width: 2px; fill: rgb(133, 92, 117); fill-opacity: 1; stroke: rgb(47, 79, 79); stroke-opacity: 1;"/></g></g></g><rect class="legendtoggle" x="0" y="-9.5" width="201.359375" height="19" style="fill: rgb(0, 0, 0); fill-opacity: 0;"/></g></g><g class="groups" transform=""><g class="traces" transform="translate(0,184.7)" style="opacity: 1;"><text class="legendtext" text-anchor="start" x="40" y="4.680000000000001" style="font-family: 'Open Sans', verdana, arial, sans-serif; font-size: 12px; fill: rgb(42, 63, 95); fill-opacity: 1; white-space: pre;">Surma_sandstone, SAR-5</text><g class="layers" style="opacity: 1;"><g class="legendfill"/><g class="legendlines"/><g class="legendsymbols"><g class="legendpoints"><path class="scatterpts" transform="translate(20,0)" d="M0,3.39l3.39,3.39l3.39,-3.39l-3.39,-3.39l3.39,-3.39l-3.39,-3.39l-3.39,3.39l-3.39,-3.39l-3.39,3.39l3.39,3.39l-3.39,3.39l3.39,3.39Z" style="opacity: 1; stroke-width: 2px; fill: rgb(217, 175, 107); fill-opacity: 1; stroke: rgb(47, 79, 79); stroke-opacity: 1;"/></g></g></g><rect class="legendtoggle" x="0" y="-9.5" width="201.359375" height="19" style="fill: rgb(0, 0, 0); fill-opacity: 0;"/></g></g><g class="groups" transform=""><g class="traces" transform="translate(0,203.7)" style="opacity: 1;"><text class="legendtext" text-anchor="start" x="40" y="4.680000000000001" style="font-family: 'Open Sans', verdana, arial, sans-serif; font-size: 12px; fill: rgb(42, 63, 95); fill-opacity: 1; white-space: pre;">Surma_sandstone, SAS-5</text><g class="layers" style="opacity: 1;"><g class="legendfill"/><g class="legendlines"/><g class="legendsymbols"><g class="legendpoints"><path class="scatterpts" transform="translate(20,0)" d="M7.2,2.4H2.4V7.2H-2.4V2.4H-7.2V-2.4H-2.4V-7.2H2.4V-2.4H7.2Z" style="opacity: 1; stroke-width: 2px; fill: rgb(217, 175, 107); fill-opacity: 1; stroke: rgb(47, 79, 79); stroke-opacity: 1;"/></g></g></g><rect class="legendtoggle" x="0" y="-9.5" width="201.359375" height="19" style="fill: rgb(0, 0, 0); fill-opacity: 0;"/></g></g><g class="groups" transform=""><g class="traces" transform="translate(0,222.7)" style="opacity: 1;"><text class="legendtext" text-anchor="start" x="40" y="4.680000000000001" style="font-family: 'Open Sans', verdana, arial, sans-serif; font-size: 12px; fill: rgb(42, 63, 95); fill-opacity: 1; white-space: pre;">Surma_sandstone, SAT-2</text><g class="layers" style="opacity: 1;"><g class="legendfill"/><g class="legendlines"/><g class="legendsymbols"><g class="legendpoints"><path class="scatterpts" transform="translate(20,0)" d="M6,0A6,6 0 1,1 0,-6A6,6 0 0,1 6,0Z" style="opacity: 1; stroke-width: 2px; fill: rgb(217, 175, 107); fill-opacity: 1; stroke: rgb(47, 79, 79); stroke-opacity: 1;"/></g></g></g><rect class="legendtoggle" x="0" y="-9.5" width="201.359375" height="19" style="fill: rgb(0, 0, 0); fill-opacity: 0;"/></g></g><g class="groups" transform=""><g class="traces" transform="translate(0,241.7)" style="opacity: 1;"><text class="legendtext" text-anchor="start" x="40" y="4.680000000000001" style="font-family: 'Open Sans', verdana, arial, sans-serif; font-size: 12px; fill: rgb(42, 63, 95); fill-opacity: 1; white-space: pre;">Surma_sandstone, SAZ-3</text><g class="layers" style="opacity: 1;"><g class="legendfill"/><g class="legendlines"/><g class="legendsymbols"><g class="legendpoints"><path class="scatterpts" transform="translate(20,0)" d="M7.8,0L0,7.8L-7.8,0L0,-7.8Z" style="opacity: 1; stroke-width: 2px; fill: rgb(217, 175, 107); fill-opacity: 1; stroke: rgb(47, 79, 79); stroke-opacity: 1;"/></g></g></g><rect class="legendtoggle" x="0" y="-9.5" width="201.359375" height="19" style="fill: rgb(0, 0, 0); fill-opacity: 0;"/></g></g><g class="groups" transform=""><g class="traces" transform="translate(0,260.7)" style="opacity: 1;"><text class="legendtext" text-anchor="start" x="40" y="4.680000000000001" style="font-family: 'Open Sans', verdana, arial, sans-serif; font-size: 12px; fill: rgb(42, 63, 95); fill-opacity: 1; white-space: pre;">Surma_sandstone, SBD-7</text><g class="layers" style="opacity: 1;"><g class="legendfill"/><g class="legendlines"/><g class="legendsymbols"><g class="legendpoints"><path class="scatterpts" transform="translate(20,0)" d="M6,6H-6V-6H6Z" style="opacity: 1; stroke-width: 2px; fill: rgb(217, 175, 107); fill-opacity: 1; stroke: rgb(47, 79, 79); stroke-opacity: 1;"/></g></g></g><rect class="legendtoggle" x="0" y="-9.5" width="201.359375" height="19" style="fill: rgb(0, 0, 0); fill-opacity: 0;"/></g></g><g class="groups" transform=""><g class="traces" transform="translate(0,279.7)" style="opacity: 1;"><text class="legendtext" text-anchor="start" x="40" y="4.680000000000001" style="font-family: 'Open Sans', verdana, arial, sans-serif; font-size: 12px; fill: rgb(42, 63, 95); fill-opacity: 1; white-space: pre;">Surma_sandstone, SCT-23</text><g class="layers" style="opacity: 1;"><g class="legendfill"/><g class="legendlines"/><g class="legendsymbols"><g class="legendpoints"><path class="scatterpts" transform="translate(20,0)" d="M0,3.39l3.39,3.39l3.39,-3.39l-3.39,-3.39l3.39,-3.39l-3.39,-3.39l-3.39,3.39l-3.39,-3.39l-3.39,3.39l3.39,3.39l-3.39,3.39l3.39,3.39Z" style="opacity: 1; stroke-width: 2px; fill: rgb(217, 175, 107); fill-opacity: 1; stroke: rgb(47, 79, 79); stroke-opacity: 1;"/></g></g></g><rect class="legendtoggle" x="0" y="-9.5" width="201.359375" height="19" style="fill: rgb(0, 0, 0); fill-opacity: 0;"/></g></g><g class="groups" transform=""><g class="traces" transform="translate(0,298.7)" style="opacity: 1;"><text class="legendtext" text-anchor="start" x="40" y="4.680000000000001" style="font-family: 'Open Sans', verdana, arial, sans-serif; font-size: 12px; fill: rgb(42, 63, 95); fill-opacity: 1; white-space: pre;">Surma_sandstone, SCT-57</text><g class="layers" style="opacity: 1;"><g class="legendfill"/><g class="legendlines"/><g class="legendsymbols"><g class="legendpoints"><path class="scatterpts" transform="translate(20,0)" d="M7.2,2.4H2.4V7.2H-2.4V2.4H-7.2V-2.4H-2.4V-7.2H2.4V-2.4H7.2Z" style="opacity: 1; stroke-width: 2px; fill: rgb(217, 175, 107); fill-opacity: 1; stroke: rgb(47, 79, 79); stroke-opacity: 1;"/></g></g></g><rect class="legendtoggle" x="0" y="-9.5" width="201.359375" height="19" style="fill: rgb(0, 0, 0); fill-opacity: 0;"/></g></g><g class="groups" transform=""><g class="traces" transform="translate(0,317.7)" style="opacity: 1;"><text class="legendtext" text-anchor="start" x="40" y="4.680000000000001" style="font-family: 'Open Sans', verdana, arial, sans-serif; font-size: 12px; fill: rgb(42, 63, 95); fill-opacity: 1; white-space: pre;">Surma_sandstone, SCT-60</text><g class="layers" style="opacity: 1;"><g class="legendfill"/><g class="legendlines"/><g class="legendsymbols"><g class="legendpoints"><path class="scatterpts" transform="translate(20,0)" d="M6,0A6,6 0 1,1 0,-6A6,6 0 0,1 6,0Z" style="opacity: 1; stroke-width: 2px; fill: rgb(217, 175, 107); fill-opacity: 1; stroke: rgb(47, 79, 79); stroke-opacity: 1;"/></g></g></g><rect class="legendtoggle" x="0" y="-9.5" width="201.359375" height="19" style="fill: rgb(0, 0, 0); fill-opacity: 0;"/></g></g><g class="groups" transform=""><g class="traces" transform="translate(0,336.7)" style="opacity: 1;"><text class="legendtext" text-anchor="start" x="40" y="4.680000000000001" style="font-family: 'Open Sans', verdana, arial, sans-serif; font-size: 12px; fill: rgb(42, 63, 95); fill-opacity: 1; white-space: pre;">Surma_sandstone, SCT-62</text><g class="layers" style="opacity: 1;"><g class="legendfill"/><g class="legendlines"/><g class="legendsymbols"><g class="legendpoints"><path class="scatterpts" transform="translate(20,0)" d="M7.8,0L0,7.8L-7.8,0L0,-7.8Z" style="opacity: 1; stroke-width: 2px; fill: rgb(217, 175, 107); fill-opacity: 1; stroke: rgb(47, 79, 79); stroke-opacity: 1;"/></g></g></g><rect class="legendtoggle" x="0" y="-9.5" width="201.359375" height="19" style="fill: rgb(0, 0, 0); fill-opacity: 0;"/></g></g><g class="groups" transform=""><g class="traces" transform="translate(0,355.7)" style="opacity: 1;"><text class="legendtext" text-anchor="start" x="40" y="4.680000000000001" style="font-family: 'Open Sans', verdana, arial, sans-serif; font-size: 12px; fill: rgb(42, 63, 95); fill-opacity: 1; white-space: pre;">Surma_sandstone, SVC-7</text><g class="layers" style="opacity: 1;"><g class="legendfill"/><g class="legendlines"/><g class="legendsymbols"><g class="legendpoints"><path class="scatterpts" transform="translate(20,0)" d="M6,6H-6V-6H6Z" style="opacity: 1; stroke-width: 2px; fill: rgb(217, 175, 107); fill-opacity: 1; stroke: rgb(47, 79, 79); stroke-opacity: 1;"/></g></g></g><rect class="legendtoggle" x="0" y="-9.5" width="201.359375" height="19" style="fill: rgb(0, 0, 0); fill-opacity: 0;"/></g></g><g class="groups" transform=""><g class="traces" transform="translate(0,374.7)" style="opacity: 1;"><text class="legendtext" text-anchor="start" x="40" y="4.680000000000001" style="font-family: 'Open Sans', verdana, arial, sans-serif; font-size: 12px; fill: rgb(42, 63, 95); fill-opacity: 1; white-space: pre;">Barail_sandstone, SCZ-3</text><g class="layers" style="opacity: 1;"><g class="legendfill"/><g class="legendlines"/><g class="legendsymbols"><g class="legendpoints"><path class="scatterpts" transform="translate(20,0)" d="M0,3.39l3.39,3.39l3.39,-3.39l-3.39,-3.39l3.39,-3.39l-3.39,-3.39l-3.39,3.39l-3.39,-3.39l-3.39,3.39l3.39,3.39l-3.39,3.39l3.39,3.39Z" style="opacity: 1; stroke-width: 2px; fill: rgb(175, 100, 88); fill-opacity: 1; stroke: rgb(47, 79, 79); stroke-opacity: 1;"/></g></g></g><rect class="legendtoggle" x="0" y="-9.5" width="201.359375" height="19" style="fill: rgb(0, 0, 0); fill-opacity: 0;"/></g></g><g class="groups" transform=""><g class="traces" transform="translate(0,393.7)" style="opacity: 1;"><text class="legendtext" text-anchor="start" x="40" y="4.680000000000001" style="font-family: 'Open Sans', verdana, arial, sans-serif; font-size: 12px; fill: rgb(42, 63, 95); fill-opacity: 1; white-space: pre;">Barail_sandstone, SCZ-4</text><g class="layers" style="opacity: 1;"><g class="legendfill"/><g class="legendlines"/><g class="legendsymbols"><g class="legendpoints"><path class="scatterpts" transform="translate(20,0)" d="M7.2,2.4H2.4V7.2H-2.4V2.4H-7.2V-2.4H-2.4V-7.2H2.4V-2.4H7.2Z" style="opacity: 1; stroke-width: 2px; fill: rgb(175, 100, 88); fill-opacity: 1; stroke: rgb(47, 79, 79); stroke-opacity: 1;"/></g></g></g><rect class="legendtoggle" x="0" y="-9.5" width="201.359375" height="19" style="fill: rgb(0, 0, 0); fill-opacity: 0;"/></g></g><g class="groups" transform=""><g class="traces" transform="translate(0,412.7)" style="opacity: 1;"><text class="legendtext" text-anchor="start" x="40" y="4.680000000000001" style="font-family: 'Open Sans', verdana, arial, sans-serif; font-size: 12px; fill: rgb(42, 63, 95); fill-opacity: 1; white-space: pre;">Barail_sandstone, SCZ-12</text><g class="layers" style="opacity: 1;"><g class="legendfill"/><g class="legendlines"/><g class="legendsymbols"><g class="legendpoints"><path class="scatterpts" transform="translate(20,0)" d="M6,0A6,6 0 1,1 0,-6A6,6 0 0,1 6,0Z" style="opacity: 1; stroke-width: 2px; fill: rgb(175, 100, 88); fill-opacity: 1; stroke: rgb(47, 79, 79); stroke-opacity: 1;"/></g></g></g><rect class="legendtoggle" x="0" y="-9.5" width="201.359375" height="19" style="fill: rgb(0, 0, 0); fill-opacity: 0;"/></g></g><g class="groups" transform=""><g class="traces" transform="translate(0,431.7)" style="opacity: 1;"><text class="legendtext" text-anchor="start" x="40" y="4.680000000000001" style="font-family: 'Open Sans', verdana, arial, sans-serif; font-size: 12px; fill: rgb(42, 63, 95); fill-opacity: 1; white-space: pre;">Barail_sandstone, SCZ-14</text><g class="layers" style="opacity: 1;"><g class="legendfill"/><g class="legendlines"/><g class="legendsymbols"><g class="legendpoints"><path class="scatterpts" transform="translate(20,0)" d="M7.8,0L0,7.8L-7.8,0L0,-7.8Z" style="opacity: 1; stroke-width: 2px; fill: rgb(175, 100, 88); fill-opacity: 1; stroke: rgb(47, 79, 79); stroke-opacity: 1;"/></g></g></g><rect class="legendtoggle" x="0" y="-9.5" width="201.359375" height="19" style="fill: rgb(0, 0, 0); fill-opacity: 0;"/></g></g><g class="groups" transform=""><g class="traces" transform="translate(0,450.7)" style="opacity: 1;"><text class="legendtext" text-anchor="start" x="40" y="4.680000000000001" style="font-family: 'Open Sans', verdana, arial, sans-serif; font-size: 12px; fill: rgb(42, 63, 95); fill-opacity: 1; white-space: pre;">Barail_sandstone, SCT-7</text><g class="layers" style="opacity: 1;"><g class="legendfill"/><g class="legendlines"/><g class="legendsymbols"><g class="legendpoints"><path class="scatterpts" transform="translate(20,0)" d="M6,6H-6V-6H6Z" style="opacity: 1; stroke-width: 2px; fill: rgb(175, 100, 88); fill-opacity: 1; stroke: rgb(47, 79, 79); stroke-opacity: 1;"/></g></g></g><rect class="legendtoggle" x="0" y="-9.5" width="201.359375" height="19" style="fill: rgb(0, 0, 0); fill-opacity: 0;"/></g></g><g class="groups" transform=""><g class="traces" transform="translate(0,469.7)" style="opacity: 1;"><text class="legendtext" text-anchor="start" x="40" y="4.680000000000001" style="font-family: 'Open Sans', verdana, arial, sans-serif; font-size: 12px; fill: rgb(42, 63, 95); fill-opacity: 1; white-space: pre;">Barail_sandstone, SCT-8</text><g class="layers" style="opacity: 1;"><g class="legendfill"/><g class="legendlines"/><g class="legendsymbols"><g class="legendpoints"><path class="scatterpts" transform="translate(20,0)" d="M0,3.39l3.39,3.39l3.39,-3.39l-3.39,-3.39l3.39,-3.39l-3.39,-3.39l-3.39,3.39l-3.39,-3.39l-3.39,3.39l3.39,3.39l-3.39,3.39l3.39,3.39Z" style="opacity: 1; stroke-width: 2px; fill: rgb(175, 100, 88); fill-opacity: 1; stroke: rgb(47, 79, 79); stroke-opacity: 1;"/></g></g></g><rect class="legendtoggle" x="0" y="-9.5" width="201.359375" height="19" style="fill: rgb(0, 0, 0); fill-opacity: 0;"/></g></g><g class="groups" transform=""><g class="traces" transform="translate(0,488.7)" style="opacity: 1;"><text class="legendtext" text-anchor="start" x="40" y="4.680000000000001" style="font-family: 'Open Sans', verdana, arial, sans-serif; font-size: 12px; fill: rgb(42, 63, 95); fill-opacity: 1; white-space: pre;">Barail_sandstone, SCT-11</text><g class="layers" style="opacity: 1;"><g class="legendfill"/><g class="legendlines"/><g class="legendsymbols"><g class="legendpoints"><path class="scatterpts" transform="translate(20,0)" d="M7.2,2.4H2.4V7.2H-2.4V2.4H-7.2V-2.4H-2.4V-7.2H2.4V-2.4H7.2Z" style="opacity: 1; stroke-width: 2px; fill: rgb(175, 100, 88); fill-opacity: 1; stroke: rgb(47, 79, 79); stroke-opacity: 1;"/></g></g></g><rect class="legendtoggle" x="0" y="-9.5" width="201.359375" height="19" style="fill: rgb(0, 0, 0); fill-opacity: 0;"/></g></g><g class="groups" transform=""><g class="traces" transform="translate(0,507.7)" style="opacity: 1;"><text class="legendtext" text-anchor="start" x="40" y="4.680000000000001" style="font-family: 'Open Sans', verdana, arial, sans-serif; font-size: 12px; fill: rgb(42, 63, 95); fill-opacity: 1; white-space: pre;">Barail_sandstone, SCT-12</text><g class="layers" style="opacity: 1;"><g class="legendfill"/><g class="legendlines"/><g class="legendsymbols"><g class="legendpoints"><path class="scatterpts" transform="translate(20,0)" d="M6,0A6,6 0 1,1 0,-6A6,6 0 0,1 6,0Z" style="opacity: 1; stroke-width: 2px; fill: rgb(175, 100, 88); fill-opacity: 1; stroke: rgb(47, 79, 79); stroke-opacity: 1;"/></g></g></g><rect class="legendtoggle" x="0" y="-9.5" width="201.359375" height="19" style="fill: rgb(0, 0, 0); fill-opacity: 0;"/></g></g></g><rect class="scrollbar" rx="20" ry="3" width="0" height="0" x="0" y="0" style="fill: rgb(128, 139, 164); fill-opacity: 1;"/></g><g class="g-gtitle"/><g class="g-atitle"><text class="atitle" x="325.5" y="163.72409670425364" text-anchor="middle" style="font-family: 'Open Sans', verdana, arial, sans-serif; font-size: 14px; fill: rgb(42, 63, 95); opacity: 1; font-weight: normal; white-space: pre;">Al​<tspan style="font-size:70%" dy="0.3em">2</tspan><tspan dy="-0.21em">​</tspan>O​<tspan style="font-size:70%" dy="0.3em">3</tspan><tspan dy="-0.21em">​</tspan></text></g><g class="g-btitle"><text class="btitle" x="65" y="629.2292366290798" text-anchor="middle" style="font-family: 'Open Sans', verdana, arial, sans-serif; font-size: 14px; fill: rgb(42, 63, 95); opacity: 1; font-weight: normal; white-space: pre;">CaO*+Na​<tspan style="font-size:70%" dy="0.3em">2</tspan><tspan dy="-0.21em">​</tspan>O+K​<tspan style="font-size:70%" dy="0.3em">2</tspan><tspan dy="-0.21em">​</tspan>O</text></g><g class="g-ctitle"><text class="ctitle" x="586" y="629.2292366290798" text-anchor="middle" style="font-family: 'Open Sans', verdana, arial, sans-serif; font-size: 14px; fill: rgb(42, 63, 95); opacity: 1; font-weight: normal; white-space: pre;">Fe​<tspan style="font-size:70%" dy="0.3em">2</tspan><tspan dy="-0.21em">​</tspan>O​<tspan style="font-size:70%" dy="0.3em">3</tspan><tspan dy="-0.21em">​</tspan>+MgO</text></g></g></svg>