<svg class="main-svg" xmlns="http://www.w3.org/2000/svg" xmlns:xlink="http://www.w3.org/1999/xlink" width="800" height="800" style="" viewBox="0 0 800 800"><rect x="0" y="0" width="800" height="800" style="fill: rgb(255, 255, 255); fill-opacity: 1;"/><defs id="defs-5e6ce0"><g class="clips"><clipPath id="clip5e6ce0xyplot" class="plotclip"><rect width="640" height="660"/></clipPath><clipPath class="axesclip" id="clip5e6ce0x"><rect x="80" y="0" width="640" height="800"/></clipPath><clipPath class="axesclip" id="clip5e6ce0y"><rect x="0" y="60" width="800" height="660"/></clipPath><clipPath class="axesclip" id="clip5e6ce0xy"><rect x="80" y="60" width="640" height="660"/></clipPath></g><g class="gradients"/><g class="patterns"/></defs><g class="bglayer"><rect class="bg" x="80" y="60" width="640" height="660" style="fill: rgb(229, 236, 246); fill-opacity: 1; stroke-width: 0;"/></g><g class="layer-below"><g class="imagelayer"/><g class="shapelayer"/></g><g class="cartesianlayer"><g class="subplot xy"><g class="layer-subplot"><g class="shapelayer"/><g class="imagelayer"/></g><g class="gridlayer"><g class="x"/><g class="y"><path class="ygrid crisp" transform="translate(0,664.2)" d="M80,0h640" style="stroke: rgb(255, 255, 255); stroke-opacity: 1; stroke-width: 1px;"/><path class="ygrid crisp" transform="translate(0,585.02)" d="M80,0h640" style="stroke: rgb(255, 255, 255); stroke-opacity: 1; stroke-width: 1px;"/><path class="ygrid crisp" transform="translate(0,505.84)" d="M80,0h640" style="stroke: rgb(255, 255, 255); stroke-opacity: 1; stroke-width: 1px;"/><path class="ygrid crisp" transform="translate(0,426.66)" d="M80,0h640" style="stroke: rgb(255, 255, 255); stroke-opacity: 1; stroke-width: 1px;"/><path class="ygrid crisp" transform="translate(0,347.48)" d="M80,0h640" style="stroke: rgb(255, 255, 255); stroke-opacity: 1; stroke-width: 1px;"/><path class="ygrid crisp" transform="translate(0,268.3)" d="M80,0h640" style="stroke: rgb(255, 255, 255); stroke-opacity: 1; stroke-width: 1px;"/><path class="ygrid crisp" transform="translate(0,189.12)" d="M80,0h640" style="stroke: rgb(255, 255, 255); stroke-opacity: 1; stroke-width: 1px;"/><path class="ygrid crisp" transform="translate(0,109.94)" d="M80,0h640" style="stroke: rgb(255, 255, 255); stroke-opacity: 1; stroke-width: 1px;"/></g></g><g class="zerolinelayer"/><path class="xlines-below"/><path class="ylines-below"/><g class="overlines-below"/><g class="xaxislayer-below"/><g class="yaxislayer-below"/><g class="overaxes-below"/><g class="plot" transform="translate(80,60)" clip-path="url(#clip5e6ce0xyplot)"><g class="boxlayer mlayer"><g class="trace boxes" style="opacity: 1;"><path class="box" d="M25.4,166.18H31.93M25.4,166.18H31.93V166.18H25.4ZM28.67,166.18V166.18M28.67,166.18V166.18M27.03,166.18H30.3M27.03,166.18H30.3" style="vector-effect: non-scaling-stroke; stroke-width: 2px; stroke: rgb(99, 110, 250); stroke-opacity: 1; fill: rgb(99, 110, 250); fill-opacity: 0.5;"/><g class="points"/></g><g class="trace boxes" style="opacity: 1;"><path class="box" d="M194.73,620.07H201.27M194.73,624.51H201.27V595.41H194.73ZM198,624.51V627M198,595.41V572.68M196.37,627H199.63M196.37,572.68H199.63" style="vector-effect: non-scaling-stroke; stroke-width: 2px; stroke: rgb(239, 85, 59); stroke-opacity: 1; fill: rgb(239, 85, 59); fill-opacity: 0.5;"/><g class="points"/></g><g class="trace boxes" style="opacity: 1;"><path class="box" d="M204.07,550.2H210.6M204.07,580.56H210.6V460.21H204.07ZM207.33,580.56V604.99M207.33,460.21V376.16M205.7,604.99H208.97M205.7,376.16H208.97" style="vector-effect: non-scaling-stroke; stroke-width: 2px; stroke: rgb(0, 204, 150); stroke-opacity: 1; fill: rgb(0, 204, 150); fill-opacity: 0.5;"/><g class="points"/></g><g class="trace boxes" style="opacity: 1;"><path class="box" d="M213.4,184.23H219.93M213.4,341.62H219.93V148.78H213.4ZM216.67,341.62V455.02M216.67,148.78V137.67M215.03,455.02H218.3M215.03,137.67H218.3" style="vector-effect: non-scaling-stroke; stroke-width: 2px; stroke: rgb(171, 99, 250); stroke-opacity: 1; fill: rgb(171, 99, 250); fill-opacity: 0.5;"/><g class="points"/></g><g class="trace boxes" style="opacity: 1;"><path class="box" d="M222.73,228.65H229.27M222.73,249.75H229.27V217.96H222.73ZM226,249.75V265.87M226,217.96V212.26M224.37,265.87H227.63M224.37,212.26H227.63" style="vector-effect: non-scaling-stroke; stroke-width: 2px; stroke: rgb(255, 161, 90); stroke-opacity: 1; fill: rgb(255, 161, 90); fill-opacity: 0.5;"/><g class="points"/></g><g class="trace boxes" style="opacity: 1;"><path class="box" d="M392.07,163.57H398.6M392.07,163.57H398.6V163.57H392.07ZM395.33,163.57V163.57M395.33,163.57V163.57M393.7,163.57H396.97M393.7,163.57H396.97" style="vector-effect: non-scaling-stroke; stroke-width: 2px; stroke: rgb(25, 211, 243); stroke-opacity: 1; fill: rgb(25, 211, 243); fill-opacity: 0.5;"/><g class="points"/></g><g class="trace boxes" style="opacity: 1;"><path class="box" d="M401.4,98.96H407.93M401.4,98.96H407.93V98.96H401.4ZM404.67,98.96V98.96M404.67,98.96V98.96M403.03,98.96H406.3M403.03,98.96H406.3" style="vector-effect: non-scaling-stroke; stroke-width: 2px; stroke: rgb(255, 102, 146); stroke-opacity: 1; fill: rgb(255, 102, 146); fill-opacity: 0.5;"/><g class="points"/></g><g class="trace boxes" style="opacity: 1;"><path class="box" d="M410.73,187.87H417.27M410.73,187.87H417.27V187.87H410.73ZM414,187.87V187.87M414,187.87V187.87M412.37,187.87H415.63M412.37,187.87H415.63" style="vector-effect: non-scaling-stroke; stroke-width: 2px; stroke: rgb(182, 232, 128); stroke-opacity: 1; fill: rgb(182, 232, 128); fill-opacity: 0.5;"/><g class="points"/></g><g class="trace boxes" style="opacity: 1;"><path class="box" d="M420.07,46.3H426.6M420.07,46.3H426.6V46.3H420.07ZM423.33,46.3V46.3M423.33,46.3V46.3M421.7,46.3H424.97M421.7,46.3H424.97" style="vector-effect: non-scaling-stroke; stroke-width: 2px; stroke: rgb(255, 151, 255); stroke-opacity: 1; fill: rgb(255, 151, 255); fill-opacity: 0.5;"/><g class="points"/></g><g class="trace boxes" style="opacity: 1;"><path class="box" d="M429.4,67.21H435.93M429.4,67.21H435.93V67.21H429.4ZM432.67,67.21V67.21M432.67,67.21V67.21M431.03,67.21H434.3M431.03,67.21H434.3" style="vector-effect: non-scaling-stroke; stroke-width: 2px; stroke: rgb(254, 203, 82); stroke-opacity: 1; fill: rgb(254, 203, 82); fill-opacity: 0.5;"/><g class="points"/></g><g class="trace boxes" style="opacity: 1;"><path class="box" d="M598.73,141H605.27M598.73,148.21H605.27V137.75H598.73ZM602,148.21V154.86M602,137.75V135.06M600.37,154.86H603.63M600.37,135.06H603.63" style="vector-effect: non-scaling-stroke; stroke-width: 2px; stroke: rgb(99, 110, 250); stroke-opacity: 1; fill: rgb(99, 110, 250); fill-opacity: 0.5;"/><g class="points"/></g><g class="trace boxes" style="opacity: 1;"><path class="box" d="M608.07,113.13H614.6M608.07,196.19H614.6V81.97H608.07ZM611.33,196.19V285.82M611.33,81.97V33M609.7,285.82H612.97M609.7,33H612.97" style="vector-effect: non-scaling-stroke; stroke-width: 2px; stroke: rgb(239, 85, 59); stroke-opacity: 1; fill: rgb(239, 85, 59); fill-opacity: 0.5;"/><g class="points"/></g></g></g><g class="overplot"/><path class="xlines-above crisp" d="M0,0" style="fill: none;"/><path class="ylines-above crisp" d="M0,0" style="fill: none;"/><g class="overlines-above"/><g class="xaxislayer-above"><g class="xtick"><text text-anchor="middle" x="0" y="733" transform="translate(160,0)" style="font-family: 'Open Sans', verdana, arial, sans-serif; font-size: 12px; fill: rgb(42, 63, 95); fill-opacity: 1; white-space: pre; opacity: 1;">upper_continental_crust</text></g><g class="xtick"><text text-anchor="middle" x="0" y="733" transform="translate(320,0)" style="font-family: 'Open Sans', verdana, arial, sans-serif; font-size: 12px; fill: rgb(42, 63, 95); fill-opacity: 1; white-space: pre; opacity: 1;">igneous_composite</text></g><g class="xtick"><text text-anchor="middle" x="0" y="733" transform="translate(480,0)" style="font-family: 'Open Sans', verdana, arial, sans-serif; font-size: 12px; fill: rgb(42, 63, 95); fill-opacity: 1; white-space: pre; opacity: 1;">shale_composite</text></g><g class="xtick"><text text-anchor="middle" x="0" y="733" transform="translate(640,0)" style="font-family: 'Open Sans', verdana, arial, sans-serif; font-size: 12px; fill: rgb(42, 63, 95); fill-opacity: 1; white-space: pre; opacity: 1;">Yamuna</text></g></g><g class="yaxislayer-above"><g class="ytick"><text text-anchor="end" x="79" y="4.199999999999999" transform="translate(0,664.2)" style="font-family: 'Open Sans', verdana, arial, sans-serif; font-size: 12px; fill: rgb(42, 63, 95); fill-opacity: 1; white-space: pre; opacity: 1;">10</text></g><g class="ytick"><text text-anchor="end" x="79" y="4.199999999999999" style="font-family: 'Open Sans', verdana, arial, sans-serif; font-size: 12px; fill: rgb(42, 63, 95); fill-opacity: 1; white-space: pre; opacity: 1;" transform="translate(0,585.02)">20</text></g><g class="ytick"><text text-anchor="end" x="79" y="4.199999999999999" style="font-family: 'Open Sans', verdana, arial, sans-serif; font-size: 12px; fill: rgb(42, 63, 95); fill-opacity: 1; white-space: pre; opacity: 1;" transform="translate(0,505.84)">30</text></g><g class="ytick"><text text-anchor="end" x="79" y="4.199999999999999" style="font-family: 'Open Sans', verdana, arial, sans-serif; font-size: 12px; fill: rgb(42, 63, 95); fill-opacity: 1; white-space: pre; opacity: 1;" transform="translate(0,426.66)">40</text></g><g class="ytick"><text text-anchor="end" x="79" y="4.199999999999999" style="font-family: 'Open Sans', verdana, arial, sans-serif; font-size: 12px; fill: rgb(42, 63, 95); fill-opacity: 1; white-space: pre; opacity: 1;" transform="translate(0,347.48)">50</text></g><g class="ytick"><text text-anchor="end" x="79" y="4.199999999999999" style="font-family: 'Open Sans', verdana, arial, sans-serif; font-size: 12px; fill: rgb(42, 63, 95); fill-opacity: 1; white-space: pre; opacity: 1;" transform="translate(0,268.3)">60</text></g><g class="ytick"><text text-anchor="end" x="79" y="4.199999999999999" style="font-family: 'Open Sans', verdana, arial, sans-serif; font-size: 12px; fill: rgb(42, 63, 95); fill-opacity: 1; white-space: pre; opacity: 1;" transform="translate(0,189.12)">70</text></g><g class="ytick"><text text-anchor="end" x="79" y="4.199999999999999" style="font-family: 'Open Sans', verdana, arial, sans-serif; font-size: 12px; fill: rgb(42, 63, 95); fill-opacity: 1; white-space: pre; opacity: 1;" transform="translate(0,109.94)">80</text></g></g><g class="overaxes-above"/></g></g><g class="polarlayer"/><g class="ternarylayer"/><g class="geolayer"/><g class="funnelarealayer"/><g class="pielayer"/><g class="iciclelayer"/><g class="treemaplayer"/><g class="sunburstlayer"/><g class="glimages"/><defs id="topdefs-5e6ce0"><g class="clips"/></defs><g class="layer-above"><g class="imagelayer"/><g class="shapelayer"/></g><g class="infolayer"><g class="g-gtitle"/><g class="g-xtitle"><text class="xtitle" x="400" y="760.8" text-anchor="middle" style="font-family: 'Open Sans', verdana, arial, sans-serif; font-size: 14px; fill: rgb(42, 63, 95); opacity: 1; font-weight: normal; white-space: pre;">sample subcategory</text></g><g class="g-ytitle"><text class="ytitle" transform="rotate(-90,38.934375,390)" x="38.934375" y="390" text-anchor="middle" style="font-family: 'Open Sans', verdana, arial, sans-serif; font-size: 14px; fill: rgb(42, 63, 95); opacity: 1; font-weight: normal; white-space: pre;">W</text></g></g></svg>