<svg class="main-svg" xmlns="http://www.w3.org/2000/svg" xmlns:xlink="http://www.w3.org/1999/xlink" width="800" height="800" style="" viewBox="0 0 800 800"><rect x="0" y="0" width="800" height="800" style="fill: rgb(255, 255, 255); fill-opacity: 1;"/><defs id="defs-f6b5c3"><g class="clips"><clipPath id="clipf6b5c3ternary"><path d="M80,594.3819952931276h472l-236,-408.7639905862551Z"/></clipPath><clipPath id="clip-relativef6b5c3ternary"><path d="M0,408.7639905862551h472l-236,-408.7639905862551Z"/></clipPath></g><g class="gradients"/><g class="patterns"/></defs><g class="bglayer"/><g class="layer-below"><g class="imagelayer"/><g class="shapelayer"/></g><g class="cartesianlayer"/><g class="polarlayer"/><g class="ternarylayer"><g class="ternary"><g class="toplevel draglayer"/><g class="toplevel plotbg"><path d="M80,594.3819952931276h472l-236,-408.7639905862551Z" style="fill: rgb(255, 255, 0); fill-opacity: 1;"/></g><g class="toplevel backplot" clip-path="url(#clipf6b5c3ternary)"><g class="maplayer" transform="translate(80,185.61800470687245)"/></g><g class="toplevel grids" clip-path="url(#clipf6b5c3ternary)"><g class="grid agrid" transform="translate(316,185.61800470687245)rotate(30)translate(0,-122.38199529312755)"><path class="ygrid" transform="translate(0,499.98199529312757)" d="M0,0l408.7639905862551,-236" style="stroke: rgb(255, 255, 255); stroke-opacity: 1; stroke-width: 1px;"/><path class="ygrid" transform="translate(0,405.58199529312753)" d="M0,0l408.7639905862551,-236" style="stroke: rgb(255, 255, 255); stroke-opacity: 1; stroke-width: 1px;"/><path class="ygrid" transform="translate(0,311.18199529312756)" d="M0,0l408.7639905862551,-236" style="stroke: rgb(255, 255, 255); stroke-opacity: 1; stroke-width: 1px;"/><path class="ygrid" transform="translate(0,216.78199529312755)" d="M0,0l408.7639905862551,-236" style="stroke: rgb(255, 255, 255); stroke-opacity: 1; stroke-width: 1px;"/></g><g class="grid bgrid" transform="translate(0,594.3819952931276)"><path class="xgrid" transform="translate(174.4,0)" d="M0,0l-236,-408.7639905862551" style="stroke: rgb(255, 255, 255); stroke-opacity: 1; stroke-width: 1px;"/><path class="xgrid" transform="translate(268.8,0)" d="M0,0l-236,-408.7639905862551" style="stroke: rgb(255, 255, 255); stroke-opacity: 1; stroke-width: 1px;"/><path class="xgrid" transform="translate(363.2,0)" d="M0,0l-236,-408.7639905862551" style="stroke: rgb(255, 255, 255); stroke-opacity: 1; stroke-width: 1px;"/><path class="xgrid" transform="translate(457.6,0)" d="M0,0l-236,-408.7639905862551" style="stroke: rgb(255, 255, 255); stroke-opacity: 1; stroke-width: 1px;"/></g><g class="grid cgrid" transform="translate(316,185.61800470687245)rotate(-30)translate(0,-122.38199529312755)"><path class="ygrid" transform="translate(0,499.98199529312757)" d="M0,0l-408.7639905862551,236" style="stroke: rgb(255, 255, 255); stroke-opacity: 1; stroke-width: 1px;"/><path class="ygrid" transform="translate(0,405.58199529312753)" d="M0,0l-408.7639905862551,236" style="stroke: rgb(255, 255, 255); stroke-opacity: 1; stroke-width: 1px;"/><path class="ygrid" transform="translate(0,311.18199529312756)" d="M0,0l-408.7639905862551,236" style="stroke: rgb(255, 255, 255); stroke-opacity: 1; stroke-width: 1px;"/><path class="ygrid" transform="translate(0,216.78199529312755)" d="M0,0l-408.7639905862551,236" style="stroke: rgb(255, 255, 255); stroke-opacity: 1; stroke-width: 1px;"/></g></g><g class="toplevel frontplot" clip-path="url(#clipf6b5c3ternary)"><g class="scatterlayer" transform="translate(80,185.61800470687245)"><g class="trace scatter trace40396f" style="stroke-miterlimit: 2; opacity: 1;"><g class="fills"/><g class="errorbars"/><g class="lines"/><g class="points"><path class="point" transform="translate(167.9,212.77)" d="M6,0A6,6 0 1,1 0,-6A6,6 0 0,1 6,0Z" style="opacity: 1; stroke-width: 2px; fill: rgb(133, 92, 117); fill-opacity: 1; stroke: rgb(47, 79, 79); stroke-opacity: 1;"/></g><g class="text"/></g><g class="trace scatter trace011aee" style="stroke-miterlimit: 2; opacity: 1;"><g class="fills"/><g class="errorbars"/><g class="lines"/><g class="points"><path class="point" transform="translate(185.68,177.53)" d="M7.8,0L0,7.8L-7.8,0L0,-7.8Z" style="opacity: 1; stroke-width: 2px; fill: rgb(217, 175, 107); fill-opacity: 1; stroke: rgb(47, 79, 79); stroke-opacity: 1;"/><path class="point" transform="translate(191.43,170.53)" d="M7.8,0L0,7.8L-7.8,0L0,-7.8Z" style="opacity: 1; stroke-width: 2px; fill: rgb(217, 175, 107); fill-opacity: 1; stroke: rgb(47, 79, 79); stroke-opacity: 1;"/><path class="point" transform="translate(167.54,208.28)" d="M7.8,0L0,7.8L-7.8,0L0,-7.8Z" style="opacity: 1; stroke-width: 2px; fill: rgb(217, 175, 107); fill-opacity: 1; stroke: rgb(47, 79, 79); stroke-opacity: 1;"/><path class="point" transform="translate(214.64,156.43)" d="M7.8,0L0,7.8L-7.8,0L0,-7.8Z" style="opacity: 1; stroke-width: 2px; fill: rgb(217, 175, 107); fill-opacity: 1; stroke: rgb(47, 79, 79); stroke-opacity: 1;"/></g><g class="text"/></g><g class="trace scatter traceef1628" style="stroke-miterlimit: 2; opacity: 1;"><g class="fills"/><g class="errorbars"/><g class="lines"/><g class="points"><path class="point" transform="translate(232.65,108.13)" d="M6,6H-6V-6H6Z" style="opacity: 1; stroke-width: 2px; fill: rgb(217, 175, 107); fill-opacity: 1; stroke: rgb(47, 79, 79); stroke-opacity: 1;"/><path class="point" transform="translate(191.44,167.44)" d="M6,6H-6V-6H6Z" style="opacity: 1; stroke-width: 2px; fill: rgb(217, 175, 107); fill-opacity: 1; stroke: rgb(47, 79, 79); stroke-opacity: 1;"/><path class="point" transform="translate(182.61,174.54)" d="M6,6H-6V-6H6Z" style="opacity: 1; stroke-width: 2px; fill: rgb(217, 175, 107); fill-opacity: 1; stroke: rgb(47, 79, 79); stroke-opacity: 1;"/><path class="point" transform="translate(213.55,163.28)" d="M6,6H-6V-6H6Z" style="opacity: 1; stroke-width: 2px; fill: rgb(217, 175, 107); fill-opacity: 1; stroke: rgb(47, 79, 79); stroke-opacity: 1;"/><path class="point" transform="translate(178.98,196.15)" d="M6,6H-6V-6H6Z" style="opacity: 1; stroke-width: 2px; fill: rgb(217, 175, 107); fill-opacity: 1; stroke: rgb(47, 79, 79); stroke-opacity: 1;"/><path class="point" transform="translate(173.73,172.14)" d="M6,6H-6V-6H6Z" style="opacity: 1; stroke-width: 2px; fill: rgb(217, 175, 107); fill-opacity: 1; stroke: rgb(47, 79, 79); stroke-opacity: 1;"/><path class="point" transform="translate(182.67,170.56)" d="M6,6H-6V-6H6Z" style="opacity: 1; stroke-width: 2px; fill: rgb(217, 175, 107); fill-opacity: 1; stroke: rgb(47, 79, 79); stroke-opacity: 1;"/><path class="point" transform="translate(172.07,187.43)" d="M6,6H-6V-6H6Z" style="opacity: 1; stroke-width: 2px; fill: rgb(217, 175, 107); fill-opacity: 1; stroke: rgb(47, 79, 79); stroke-opacity: 1;"/><path class="point" transform="translate(224.62,135.3)" d="M6,6H-6V-6H6Z" style="opacity: 1; stroke-width: 2px; fill: rgb(217, 175, 107); fill-opacity: 1; stroke: rgb(47, 79, 79); stroke-opacity: 1;"/><path class="point" transform="translate(220.27,143.94)" d="M6,6H-6V-6H6Z" style="opacity: 1; stroke-width: 2px; fill: rgb(217, 175, 107); fill-opacity: 1; stroke: rgb(47, 79, 79); stroke-opacity: 1;"/><path class="point" transform="translate(278.24,103.49)" d="M6,6H-6V-6H6Z" style="opacity: 1; stroke-width: 2px; fill: rgb(217, 175, 107); fill-opacity: 1; stroke: rgb(47, 79, 79); stroke-opacity: 1;"/><path class="point" transform="translate(219.08,147.62)" d="M6,6H-6V-6H6Z" style="opacity: 1; stroke-width: 2px; fill: rgb(217, 175, 107); fill-opacity: 1; stroke: rgb(47, 79, 79); stroke-opacity: 1;"/><path class="point" transform="translate(209.83,148.92)" d="M6,6H-6V-6H6Z" style="opacity: 1; stroke-width: 2px; fill: rgb(217, 175, 107); fill-opacity: 1; stroke: rgb(47, 79, 79); stroke-opacity: 1;"/><path class="point" transform="translate(252.38,109.28)" d="M6,6H-6V-6H6Z" style="opacity: 1; stroke-width: 2px; fill: rgb(217, 175, 107); fill-opacity: 1; stroke: rgb(47, 79, 79); stroke-opacity: 1;"/><path class="point" transform="translate(237.69,125.38)" d="M6,6H-6V-6H6Z" style="opacity: 1; stroke-width: 2px; fill: rgb(217, 175, 107); fill-opacity: 1; stroke: rgb(47, 79, 79); stroke-opacity: 1;"/><path class="point" transform="translate(230.17,135.84)" d="M6,6H-6V-6H6Z" style="opacity: 1; stroke-width: 2px; fill: rgb(217, 175, 107); fill-opacity: 1; stroke: rgb(47, 79, 79); stroke-opacity: 1;"/><path class="point" transform="translate(180.86,182.8)" d="M6,6H-6V-6H6Z" style="opacity: 1; stroke-width: 2px; fill: rgb(217, 175, 107); fill-opacity: 1; stroke: rgb(47, 79, 79); stroke-opacity: 1;"/><path class="point" transform="translate(181.42,183.03)" d="M6,6H-6V-6H6Z" style="opacity: 1; stroke-width: 2px; fill: rgb(217, 175, 107); fill-opacity: 1; stroke: rgb(47, 79, 79); stroke-opacity: 1;"/><path class="point" transform="translate(205.59,162.02)" d="M6,6H-6V-6H6Z" style="opacity: 1; stroke-width: 2px; fill: rgb(217, 175, 107); fill-opacity: 1; stroke: rgb(47, 79, 79); stroke-opacity: 1;"/><path class="point" transform="translate(229.91,142.99)" d="M6,6H-6V-6H6Z" style="opacity: 1; stroke-width: 2px; fill: rgb(217, 175, 107); fill-opacity: 1; stroke: rgb(47, 79, 79); stroke-opacity: 1;"/><path class="point" transform="translate(250.58,124.86)" d="M6,6H-6V-6H6Z" style="opacity: 1; stroke-width: 2px; fill: rgb(217, 175, 107); fill-opacity: 1; stroke: rgb(47, 79, 79); stroke-opacity: 1;"/><path class="point" transform="translate(249.37,125.65)" d="M6,6H-6V-6H6Z" style="opacity: 1; stroke-width: 2px; fill: rgb(217, 175, 107); fill-opacity: 1; stroke: rgb(47, 79, 79); stroke-opacity: 1;"/><path class="point" transform="translate(184.54,181.93)" d="M6,6H-6V-6H6Z" style="opacity: 1; stroke-width: 2px; fill: rgb(217, 175, 107); fill-opacity: 1; stroke: rgb(47, 79, 79); stroke-opacity: 1;"/><path class="point" transform="translate(220.54,152.54)" d="M6,6H-6V-6H6Z" style="opacity: 1; stroke-width: 2px; fill: rgb(217, 175, 107); fill-opacity: 1; stroke: rgb(47, 79, 79); stroke-opacity: 1;"/><path class="point" transform="translate(193.13,180.45)" d="M6,6H-6V-6H6Z" style="opacity: 1; stroke-width: 2px; fill: rgb(217, 175, 107); fill-opacity: 1; stroke: rgb(47, 79, 79); stroke-opacity: 1;"/><path class="point" transform="translate(222.24,144.42)" d="M6,6H-6V-6H6Z" style="opacity: 1; stroke-width: 2px; fill: rgb(217, 175, 107); fill-opacity: 1; stroke: rgb(47, 79, 79); stroke-opacity: 1;"/><path class="point" transform="translate(225.76,142.6)" d="M6,6H-6V-6H6Z" style="opacity: 1; stroke-width: 2px; fill: rgb(217, 175, 107); fill-opacity: 1; stroke: rgb(47, 79, 79); stroke-opacity: 1;"/><path class="point" transform="translate(228.86,151.89)" d="M6,6H-6V-6H6Z" style="opacity: 1; stroke-width: 2px; fill: rgb(217, 175, 107); fill-opacity: 1; stroke: rgb(47, 79, 79); stroke-opacity: 1;"/><path class="point" transform="translate(235.25,131.35)" d="M6,6H-6V-6H6Z" style="opacity: 1; stroke-width: 2px; fill: rgb(217, 175, 107); fill-opacity: 1; stroke: rgb(47, 79, 79); stroke-opacity: 1;"/><path class="point" transform="translate(239.61,129.99)" d="M6,6H-6V-6H6Z" style="opacity: 1; stroke-width: 2px; fill: rgb(217, 175, 107); fill-opacity: 1; stroke: rgb(47, 79, 79); stroke-opacity: 1;"/><path class="point" transform="translate(227.15,138.2)" d="M6,6H-6V-6H6Z" style="opacity: 1; stroke-width: 2px; fill: rgb(217, 175, 107); fill-opacity: 1; stroke: rgb(47, 79, 79); stroke-opacity: 1;"/><path class="point" transform="translate(208.91,164.32)" d="M6,6H-6V-6H6Z" style="opacity: 1; stroke-width: 2px; fill: rgb(217, 175, 107); fill-opacity: 1; stroke: rgb(47, 79, 79); stroke-opacity: 1;"/><path class="point" transform="translate(217.44,147.17)" d="M6,6H-6V-6H6Z" style="opacity: 1; stroke-width: 2px; fill: rgb(217, 175, 107); fill-opacity: 1; stroke: rgb(47, 79, 79); stroke-opacity: 1;"/><path class="point" transform="translate(208.82,158.86)" d="M6,6H-6V-6H6Z" style="opacity: 1; stroke-width: 2px; fill: rgb(217, 175, 107); fill-opacity: 1; stroke: rgb(47, 79, 79); stroke-opacity: 1;"/><path class="point" transform="translate(199.49,168.49)" d="M6,6H-6V-6H6Z" style="opacity: 1; stroke-width: 2px; fill: rgb(217, 175, 107); fill-opacity: 1; stroke: rgb(47, 79, 79); stroke-opacity: 1;"/><path class="point" transform="translate(180.35,186.64)" d="M6,6H-6V-6H6Z" style="opacity: 1; stroke-width: 2px; fill: rgb(217, 175, 107); fill-opacity: 1; stroke: rgb(47, 79, 79); stroke-opacity: 1;"/></g><g class="text"/></g></g></g><g class="toplevel aaxis" transform="translate(316,185.61800470687245)rotate(30)translate(0,-122.38199529312755)"><g class="ytick"><text text-anchor="end" x="-2.9000000000000004" y="4.199999999999999" transform="translate(0,594.3819952931276) rotate(-30,-2.9000000000000004,-1.8000000000000007)" style="font-family: 'Open Sans', verdana, arial, sans-serif; font-size: 12px; fill: rgb(42, 63, 95); fill-opacity: 1; white-space: pre; opacity: 1;">0</text></g><g class="ytick"><text text-anchor="end" x="-2.9000000000000004" y="4.199999999999999" transform="translate(0,499.98199529312757) rotate(-30,-2.9000000000000004,-1.8000000000000007)" style="font-family: 'Open Sans', verdana, arial, sans-serif; font-size: 12px; fill: rgb(42, 63, 95); fill-opacity: 1; white-space: pre; opacity: 1;">20</text></g><g class="ytick"><text text-anchor="end" x="-2.9000000000000004" y="4.199999999999999" transform="translate(0,405.58199529312753) rotate(-30,-2.9000000000000004,-1.8000000000000007)" style="font-family: 'Open Sans', verdana, arial, sans-serif; font-size: 12px; fill: rgb(42, 63, 95); fill-opacity: 1; white-space: pre; opacity: 1;">40</text></g><g class="ytick"><text text-anchor="end" x="-2.9000000000000004" y="4.199999999999999" transform="translate(0,311.18199529312756) rotate(-30,-2.9000000000000004,-1.8000000000000007)" style="font-family: 'Open Sans', verdana, arial, sans-serif; font-size: 12px; fill: rgb(42, 63, 95); fill-opacity: 1; white-space: pre; opacity: 1;">60</text></g><g class="ytick"><text text-anchor="end" x="-2.9000000000000004" y="4.199999999999999" transform="translate(0,216.78199529312755) rotate(-30,-2.9000000000000004,-1.8000000000000007)" style="font-family: 'Open Sans', verdana, arial, sans-serif; font-size: 12px; fill: rgb(42, 63, 95); fill-opacity: 1; white-space: pre; opacity: 1;">80</text></g><g class="ytick"><text text-anchor="end" x="-2.9000000000000004" y="4.199999999999999" transform="translate(0,122.38199529312755) rotate(-30,-2.9000000000000004,-1.8000000000000007)" style="font-family: 'Open Sans', verdana, arial, sans-serif; font-size: 12px; fill: rgb(42, 63, 95); fill-opacity: 1; white-space: pre; opacity: 1;">100</text></g></g><g class="toplevel aline"><path d="M80,594.3819952931276l236,-408.7639905862551" style="stroke: rgb(255, 255, 255); stroke-opacity: 1; stroke-width: 1px;"/></g><g class="toplevel baxis" transform="translate(0,594.3819952931276)"><g class="xtick"><text text-anchor="middle" x="0" y="14.9" transform="translate(80,0)" style="font-family: 'Open Sans', verdana, arial, sans-serif; font-size: 12px; fill: rgb(42, 63, 95); fill-opacity: 1; white-space: pre; opacity: 1;">100</text></g><g class="xtick"><text text-anchor="middle" x="0" y="14.9" transform="translate(174.4,0)" style="font-family: 'Open Sans', verdana, arial, sans-serif; font-size: 12px; fill: rgb(42, 63, 95); fill-opacity: 1; white-space: pre; opacity: 1;">80</text></g><g class="xtick"><text text-anchor="middle" x="0" y="14.9" transform="translate(268.8,0)" style="font-family: 'Open Sans', verdana, arial, sans-serif; font-size: 12px; fill: rgb(42, 63, 95); fill-opacity: 1; white-space: pre; opacity: 1;">60</text></g><g class="xtick"><text text-anchor="middle" x="0" y="14.9" transform="translate(363.2,0)" style="font-family: 'Open Sans', verdana, arial, sans-serif; font-size: 12px; fill: rgb(42, 63, 95); fill-opacity: 1; white-space: pre; opacity: 1;">40</text></g><g class="xtick"><text text-anchor="middle" x="0" y="14.9" transform="translate(457.6,0)" style="font-family: 'Open Sans', verdana, arial, sans-serif; font-size: 12px; fill: rgb(42, 63, 95); fill-opacity: 1; white-space: pre; opacity: 1;">20</text></g><g class="xtick"><text text-anchor="middle" x="0" y="14.9" transform="translate(552,0)" style="font-family: 'Open Sans', verdana, arial, sans-serif; font-size: 12px; fill: rgb(42, 63, 95); fill-opacity: 1; white-space: pre; opacity: 1;">0</text></g></g><g class="toplevel bline"><path d="M80,594.3819952931276h472" style="stroke: rgb(255, 255, 255); stroke-opacity: 1; stroke-width: 1px;"/></g><g class="toplevel caxis" transform="translate(316,185.61800470687245)rotate(-30)translate(0,-122.38199529312755)"><g class="ytick"><text text-anchor="start" x="2.9000000000000004" y="4.199999999999999" transform="translate(0,594.3819952931276) rotate(30,2.9000000000000004,-1.8000000000000007)" style="font-family: 'Open Sans', verdana, arial, sans-serif; font-size: 12px; fill: rgb(42, 63, 95); fill-opacity: 1; white-space: pre; opacity: 1;">100</text></g><g class="ytick"><text text-anchor="start" x="2.9000000000000004" y="4.199999999999999" transform="translate(0,499.98199529312757) rotate(30,2.9000000000000004,-1.8000000000000007)" style="font-family: 'Open Sans', verdana, arial, sans-serif; font-size: 12px; fill: rgb(42, 63, 95); fill-opacity: 1; white-space: pre; opacity: 1;">80</text></g><g class="ytick"><text text-anchor="start" x="2.9000000000000004" y="4.199999999999999" transform="translate(0,405.58199529312753) rotate(30,2.9000000000000004,-1.8000000000000007)" style="font-family: 'Open Sans', verdana, arial, sans-serif; font-size: 12px; fill: rgb(42, 63, 95); fill-opacity: 1; white-space: pre; opacity: 1;">60</text></g><g class="ytick"><text text-anchor="start" x="2.9000000000000004" y="4.199999999999999" transform="translate(0,311.18199529312756) rotate(30,2.9000000000000004,-1.8000000000000007)" style="font-family: 'Open Sans', verdana, arial, sans-serif; font-size: 12px; fill: rgb(42, 63, 95); fill-opacity: 1; white-space: pre; opacity: 1;">40</text></g><g class="ytick"><text text-anchor="start" x="2.9000000000000004" y="4.199999999999999" transform="translate(0,216.78199529312755) rotate(30,2.9000000000000004,-1.8000000000000007)" style="font-family: 'Open Sans', verdana, arial, sans-serif; font-size: 12px; fill: rgb(42, 63, 95); fill-opacity: 1; white-space: pre; opacity: 1;">20</text></g><g class="ytick"><text text-anchor="start" x="2.9000000000000004" y="4.199999999999999" transform="translate(0,122.38199529312755) rotate(30,2.9000000000000004,-1.8000000000000007)" style="font-family: 'Open Sans', verdana, arial, sans-serif; font-size: 12px; fill: rgb(42, 63, 95); fill-opacity: 1; white-space: pre; opacity: 1;">0</text></g></g><g class="toplevel cline"><path d="M316,185.61800470687245l236,408.7639905862551" style="stroke: rgb(255, 255, 255); stroke-opacity: 1; stroke-width: 1px;"/></g></g></g><g class="geolayer"/><g class="funnelarealayer"/><g class="pielayer"/><g class="iciclelayer"/><g class="treemaplayer"/><g class="sunburstlayer"/><g class="glimages"/><defs id="topdefs-f6b5c3"><g class="clips"/><clipPath id="legendf6b5c3"><rect width="227" height="86" x="0" y="0"/></clipPath></defs><g class="layer-above"><g class="imagelayer"/><g class="shapelayer"/></g><g class="infolayer"><g class="legend" pointer-events="all" transform="translate(561.44,60)"><rect class="bg" shape-rendering="crispEdges" width="227" height="86" x="0" y="0" style="stroke: rgb(68, 68, 68); stroke-opacity: 1; fill: rgb(255, 255, 255); fill-opacity: 1; stroke-width: 0px;"/><g class="scrollbox" transform="" clip-path="url(#legendf6b5c3)"><text class="legendtitletext" text-anchor="start" x="2" y="18.2" style="font-family: 'Open Sans', verdana, arial, sans-serif; font-size: 14px; fill: rgb(42, 63, 95); fill-opacity: 1; white-space: pre;">subcategory, subsubcategory</text><g class="groups" transform=""><g class="traces" transform="translate(0,32.7)" style="opacity: 1;"><text class="legendtext" text-anchor="start" x="40" y="4.680000000000001" style="font-family: 'Open Sans', verdana, arial, sans-serif; font-size: 12px; fill: rgb(42, 63, 95); fill-opacity: 1; white-space: pre;">upper_continental_crust, UCC</text><g class="layers" style="opacity: 1;"><g class="legendfill"/><g class="legendlines"/><g class="legendsymbols"><g class="legendpoints"><path class="scatterpts" transform="translate(20,0)" d="M6,0A6,6 0 1,1 0,-6A6,6 0 0,1 6,0Z" style="opacity: 1; stroke-width: 2px; fill: rgb(133, 92, 117); fill-opacity: 1; stroke: rgb(47, 79, 79); stroke-opacity: 1;"/></g></g></g><rect class="legendtoggle" x="0" y="-9.5" width="221.48263549804688" height="19" style="fill: rgb(0, 0, 0); fill-opacity: 0;"/></g></g><g class="groups" transform=""><g class="traces" transform="translate(0,51.7)" style="opacity: 1;"><text class="legendtext" text-anchor="start" x="40" y="4.680000000000001" style="font-family: 'Open Sans', verdana, arial, sans-serif; font-size: 12px; fill: rgb(42, 63, 95); fill-opacity: 1; white-space: pre;">Yamuna, river</text><g class="layers" style="opacity: 1;"><g class="legendfill"/><g class="legendlines"/><g class="legendsymbols"><g class="legendpoints"><path class="scatterpts" transform="translate(20,0)" d="M7.8,0L0,7.8L-7.8,0L0,-7.8Z" style="opacity: 1; stroke-width: 2px; fill: rgb(217, 175, 107); fill-opacity: 1; stroke: rgb(47, 79, 79); stroke-opacity: 1;"/></g></g></g><rect class="legendtoggle" x="0" y="-9.5" width="221.48263549804688" height="19" style="fill: rgb(0, 0, 0); fill-opacity: 0;"/></g></g><g class="groups" transform=""><g class="traces" transform="translate(0,70.7)" style="opacity: 1;"><text class="legendtext" text-anchor="start" x="40" y="4.680000000000001" style="font-family: 'Open Sans', verdana, arial, sans-serif; font-size: 12px; fill: rgb(42, 63, 95); fill-opacity: 1; white-space: pre;">Yamuna, tributary</text><g class="layers" style="opacity: 1;"><g class="legendfill"/><g class="legendlines"/><g class="legendsymbols"><g class="legendpoints"><path class="scatterpts" transform="translate(20,0)" d="M6,6H-6V-6H6Z" style="opacity: 1; stroke-width: 2px; fill: rgb(217, 175, 107); fill-opacity: 1; stroke: rgb(47, 79, 79); stroke-opacity: 1;"/></g></g></g><rect class="legendtoggle" x="0" y="-9.5" width="221.48263549804688" height="19" style="fill: rgb(0, 0, 0); fill-opacity: 0;"/></g></g></g><rect class="scrollbar" rx="20" ry="3" width="0" height="0" x="0" y="0" style="fill: rgb(128, 139, 164); fill-opacity: 1;"/></g><g class="g-gtitle"/><g class="g-atitle"><text class="atitle" x="316" y="171.9513380402058" text-anchor="middle" style="font-family: 'Open Sans', verdana, arial, sans-serif; font-size: 14px; fill: rgb(42, 63, 95); opacity: 1; font-weight: normal; white-space: pre;">Al​<tspan style="font-size:70%" dy="0.3em">2</tspan><tspan dy="-0.21em">​</tspan>O​<tspan style="font-size:70%" dy="0.3em">3</tspan><tspan dy="-0.21em">​</tspan></text></g><g class="g-btitle"><text class="btitle" x="65" y="621.0019952931276" text-anchor="middle" style="font-family: 'Open Sans', verdana, arial, sans-serif; font-size: 14px; fill: rgb(42, 63, 95); opacity: 1; font-weight: normal; white-space: pre;">CaO*+Na​<tspan style="font-size:70%" dy="0.3em">2</tspan><tspan dy="-0.21em">​</tspan>O</text></g><g class="g-ctitle"><text class="ctitle" x="567" y="621.0019952931276" text-anchor="middle" style="font-family: 'Open Sans', verdana, arial, sans-serif; font-size: 14px; fill: rgb(42, 63, 95); opacity: 1; font-weight: normal; white-space: pre;">K​<tspan style="font-size:70%" dy="0.3em">2</tspan><tspan dy="-0.21em">​</tspan>O</text></g></g></svg>